<svg width="84" height="50" viewBox="0 0 84 50" fill="none" xmlns="http://www.w3.org/2000/svg">
<g clip-path="url(#clip0)" filter="url(#filter0_d)">
<g filter="url(#filter1_d)">
<path d="M55.5 5.625C55.9474 5.6245 56.3763 5.44655 56.6927 5.13019C57.009 4.81383 57.187 4.3849 57.1875 3.9375V1.125H54.9375V3.375H42.5625C42.1151 3.3755 41.6862 3.55345 41.3698 3.86981C41.0535 4.18617 40.8755 4.6151 40.875 5.0625V7.875H38.6689C37.0168 7.87686 35.4329 8.53398 34.2647 9.7022C33.0965 10.8704 32.4394 12.4543 32.4375 14.1064V25.3526C32.4375 30.6033 36.7092 34.875 41.9599 34.875H42.0401C47.2908 34.875 51.5625 30.6033 51.5625 25.3526V14.1064C51.5606 12.4543 50.9035 10.8704 49.7353 9.7022C48.5671 8.53398 46.9832 7.87686 45.3311 7.875H43.125V5.625H55.5ZM34.6875 14.1064C34.6887 13.0509 35.1085 12.0389 35.855 11.2925C36.6014 10.546 37.6134 10.1262 38.6689 10.125H40.875V16.3125H34.6875V14.1064ZM49.3125 25.3526C49.3103 27.2807 48.5435 29.1292 47.1801 30.4926C45.8167 31.856 43.9682 32.6228 42.0401 32.625H41.9599C40.0318 32.6228 38.1833 31.856 36.8199 30.4926C35.4565 29.1292 34.6897 27.2807 34.6875 25.3526V18.5625H49.3125V25.3526ZM45.3311 10.125C46.3866 10.1262 47.3986 10.546 48.145 11.2925C48.8915 12.0389 49.3113 13.0509 49.3125 14.1064V16.3125H43.125V10.125H45.3311Z" fill="#FF6D00"/>
</g>
</g>
<g filter="url(#filter2_d)">
<path d="M16.838 46V37.36H18.578L21.71 41.092L24.83 37.36H26.582V46H24.986V39.664L21.71 43.564L18.422 39.676V46H16.838ZM29.5668 46C29.1108 46 28.7188 45.84 28.3908 45.52C28.0708 45.192 27.9108 44.8 27.9108 44.344V40.696C27.9108 40.24 28.0708 39.852 28.3908 39.532C28.7188 39.204 29.1108 39.04 29.5668 39.04H33.3228C33.7788 39.04 34.1668 39.204 34.4868 39.532C34.8148 39.852 34.9788 40.24 34.9788 40.696V44.344C34.9788 44.8 34.8148 45.192 34.4868 45.52C34.1668 45.84 33.7788 46 33.3228 46H29.5668ZM29.9028 44.428H32.9868C33.2108 44.428 33.3348 44.416 33.3588 44.392C33.3908 44.36 33.4068 44.232 33.4068 44.008V41.032C33.4068 40.808 33.3908 40.684 33.3588 40.66C33.3348 40.628 33.2108 40.612 32.9868 40.612H29.9028C29.6788 40.612 29.5508 40.628 29.5188 40.66C29.4948 40.684 29.4828 40.808 29.4828 41.032V44.008C29.4828 44.232 29.4948 44.36 29.5188 44.392C29.5508 44.416 29.6788 44.428 29.9028 44.428ZM37.583 46C37.127 46 36.735 45.84 36.407 45.52C36.087 45.192 35.927 44.8 35.927 44.344V39.04H37.499V44.008C37.499 44.232 37.511 44.36 37.535 44.392C37.567 44.416 37.695 44.428 37.919 44.428H41.003C41.227 44.428 41.351 44.416 41.375 44.392C41.407 44.36 41.423 44.232 41.423 44.008V39.04H42.995V44.344C42.995 44.8 42.831 45.192 42.503 45.52C42.183 45.84 41.795 46 41.339 46H37.583ZM45.609 46C45.153 46 44.761 45.84 44.433 45.52C44.113 45.192 43.953 44.8 43.953 44.344V44.08H45.525V44.152C45.525 44.28 45.537 44.36 45.561 44.392C45.593 44.416 45.673 44.428 45.801 44.428H49.173C49.293 44.428 49.369 44.416 49.401 44.392C49.433 44.36 49.449 44.28 49.449 44.152V43.588C49.449 43.46 49.433 43.384 49.401 43.36C49.369 43.328 49.293 43.312 49.173 43.312H45.609C45.153 43.312 44.761 43.148 44.433 42.82C44.113 42.492 43.953 42.104 43.953 41.656V40.696C43.953 40.24 44.113 39.852 44.433 39.532C44.761 39.204 45.153 39.04 45.609 39.04H49.365C49.821 39.04 50.213 39.204 50.541 39.532C50.869 39.852 51.033 40.24 51.033 40.696V40.96H49.449V40.888C49.449 40.76 49.433 40.684 49.401 40.66C49.369 40.628 49.293 40.612 49.173 40.612H45.801C45.673 40.612 45.593 40.628 45.561 40.66C45.537 40.684 45.525 40.76 45.525 40.888V41.452C45.525 41.58 45.537 41.66 45.561 41.692C45.593 41.716 45.673 41.728 45.801 41.728H49.365C49.821 41.728 50.213 41.892 50.541 42.22C50.869 42.548 51.033 42.936 51.033 43.384V44.344C51.033 44.8 50.869 45.192 50.541 45.52C50.213 45.84 49.821 46 49.365 46H45.609ZM53.6489 46C53.1929 46 52.8009 45.84 52.4729 45.52C52.1529 45.192 51.9929 44.8 51.9929 44.344V40.696C51.9929 40.24 52.1529 39.852 52.4729 39.532C52.8009 39.204 53.1929 39.04 53.6489 39.04H57.4049C57.8609 39.04 58.2489 39.204 58.5689 39.532C58.8969 39.852 59.0609 40.24 59.0609 40.696V43.312H53.5649V44.008C53.5649 44.232 53.5769 44.36 53.6009 44.392C53.6329 44.416 53.7609 44.428 53.9849 44.428H59.0609V46H53.6489ZM53.5649 41.896H57.4889V41.032C57.4889 40.808 57.4729 40.684 57.4409 40.66C57.4169 40.628 57.2929 40.612 57.0689 40.612H53.9849C53.7609 40.612 53.6329 40.628 53.6009 40.66C53.5769 40.684 53.5649 40.808 53.5649 41.032V41.896ZM61.8394 46C61.3834 46 60.9914 45.84 60.6634 45.52C60.3434 45.192 60.1834 44.8 60.1834 44.344V44.08H61.7554V44.152C61.7554 44.28 61.7674 44.36 61.7914 44.392C61.8234 44.416 61.9034 44.428 62.0314 44.428H65.4034C65.5234 44.428 65.5994 44.416 65.6314 44.392C65.6634 44.36 65.6794 44.28 65.6794 44.152V43.588C65.6794 43.46 65.6634 43.384 65.6314 43.36C65.5994 43.328 65.5234 43.312 65.4034 43.312H61.8394C61.3834 43.312 60.9914 43.148 60.6634 42.82C60.3434 42.492 60.1834 42.104 60.1834 41.656V40.696C60.1834 40.24 60.3434 39.852 60.6634 39.532C60.9914 39.204 61.3834 39.04 61.8394 39.04H65.5954C66.0514 39.04 66.4434 39.204 66.7714 39.532C67.0994 39.852 67.2634 40.24 67.2634 40.696V40.96H65.6794V40.888C65.6794 40.76 65.6634 40.684 65.6314 40.66C65.5994 40.628 65.5234 40.612 65.4034 40.612H62.0314C61.9034 40.612 61.8234 40.628 61.7914 40.66C61.7674 40.684 61.7554 40.76 61.7554 40.888V41.452C61.7554 41.58 61.7674 41.66 61.7914 41.692C61.8234 41.716 61.9034 41.728 62.0314 41.728H65.5954C66.0514 41.728 66.4434 41.892 66.7714 42.22C67.0994 42.548 67.2634 42.936 67.2634 43.384V44.344C67.2634 44.8 67.0994 45.192 66.7714 45.52C66.4434 45.84 66.0514 46 65.5954 46H61.8394Z" fill="#FF6D00"/>
</g>
<defs>
<filter id="filter0_d" x="20" y="0" width="44" height="44" filterUnits="userSpaceOnUse" color-interpolation-filters="sRGB">
<feFlood flood-opacity="0" result="BackgroundImageFix"/>
<feColorMatrix in="SourceAlpha" type="matrix" values="0 0 0 0 0 0 0 0 0 0 0 0 0 0 0 0 0 0 127 0"/>
<feOffset dy="4"/>
<feGaussianBlur stdDeviation="2"/>
<feColorMatrix type="matrix" values="0 0 0 0 0 0 0 0 0 0 0 0 0 0 0 0 0 0 0.25 0"/>
<feBlend mode="normal" in2="BackgroundImageFix" result="effect1_dropShadow"/>
<feBlend mode="normal" in="SourceGraphic" in2="effect1_dropShadow" result="shape"/>
</filter>
<filter id="filter1_d" x="30.4375" y="1.125" width="28.75" height="37.75" filterUnits="userSpaceOnUse" color-interpolation-filters="sRGB">
<feFlood flood-opacity="0" result="BackgroundImageFix"/>
<feColorMatrix in="SourceAlpha" type="matrix" values="0 0 0 0 0 0 0 0 0 0 0 0 0 0 0 0 0 0 127 0"/>
<feOffset dy="2"/>
<feGaussianBlur stdDeviation="1"/>
<feColorMatrix type="matrix" values="0 0 0 0 0.3575 0 0 0 0 0 0 0 0 0 0.704167 0 0 0 1 0"/>
<feBlend mode="normal" in2="BackgroundImageFix" result="effect1_dropShadow"/>
<feBlend mode="normal" in="SourceGraphic" in2="effect1_dropShadow" result="shape"/>
</filter>
<filter id="filter2_d" x="14.8379" y="37.3604" width="54.4254" height="12.64" filterUnits="userSpaceOnUse" color-interpolation-filters="sRGB">
<feFlood flood-opacity="0" result="BackgroundImageFix"/>
<feColorMatrix in="SourceAlpha" type="matrix" values="0 0 0 0 0 0 0 0 0 0 0 0 0 0 0 0 0 0 127 0"/>
<feOffset dy="2"/>
<feGaussianBlur stdDeviation="1"/>
<feColorMatrix type="matrix" values="0 0 0 0 0.3575 0 0 0 0 0 0 0 0 0 0.704167 0 0 0 1 0"/>
<feBlend mode="normal" in2="BackgroundImageFix" result="effect1_dropShadow"/>
<feBlend mode="normal" in="SourceGraphic" in2="effect1_dropShadow" result="shape"/>
</filter>
<clipPath id="clip0">
<rect width="36" height="36" fill="white" transform="translate(24)"/>
</clipPath>
</defs>
</svg>
