<svg width="135" height="108" viewBox="0 0 135 108" fill="none" xmlns="http://www.w3.org/2000/svg">
<g filter="url(#filter0_d)">
<path d="M5.98303 96V83.04H8.35903V88.314H16.855V83.04H19.231V96H16.855V90.708H8.35903V96H5.98303ZM23.6696 96C22.9856 96 22.3976 95.76 21.9056 95.28C21.4256 94.788 21.1856 94.2 21.1856 93.516V88.044C21.1856 87.36 21.4256 86.778 21.9056 86.298C22.3976 85.806 22.9856 85.56 23.6696 85.56H29.3036C29.9876 85.56 30.5696 85.806 31.0496 86.298C31.5416 86.778 31.7876 87.36 31.7876 88.044V91.968H23.5436V93.012C23.5436 93.348 23.5616 93.54 23.5976 93.588C23.6456 93.624 23.8376 93.642 24.1736 93.642H31.7876V96H23.6696ZM23.5436 89.844H29.4296V88.548C29.4296 88.212 29.4056 88.026 29.3576 87.99C29.3216 87.942 29.1356 87.918 28.7996 87.918H24.1736C23.8376 87.918 23.6456 87.942 23.5976 87.99C23.5616 88.026 23.5436 88.212 23.5436 88.548V89.844ZM36.1505 96C35.4665 96 34.8785 95.76 34.3865 95.28C33.9065 94.788 33.6665 94.2 33.6665 93.516V89.592H41.9105V88.548C41.9105 88.212 41.8865 88.026 41.8385 87.99C41.8025 87.942 41.6165 87.918 41.2805 87.918H33.6665V85.56H41.7845C42.4685 85.56 43.0505 85.806 43.5305 86.298C44.0225 86.778 44.2685 87.36 44.2685 88.044V96H36.1505ZM36.6545 93.642H41.9105V91.716H36.0245V93.012C36.0245 93.348 36.0425 93.54 36.0785 93.588C36.1265 93.624 36.3185 93.642 36.6545 93.642ZM48.1265 96C47.4425 96 46.8545 95.76 46.3625 95.28C45.8825 94.788 45.6425 94.2 45.6425 93.516V88.044C45.6425 87.36 45.8825 86.778 46.3625 86.298C46.8545 85.806 47.4425 85.56 48.1265 85.56H53.9045V82.14H56.2625V96H48.1265ZM48.6485 93.642H53.2745C53.5985 93.642 53.7845 93.624 53.8325 93.588C53.8805 93.54 53.9045 93.348 53.9045 93.012V88.548C53.9045 88.212 53.8805 88.026 53.8325 87.99C53.7845 87.942 53.5985 87.918 53.2745 87.918H48.6485C48.3125 87.918 48.1205 87.942 48.0725 87.99C48.0365 88.026 48.0185 88.212 48.0185 88.548V93.012C48.0185 93.348 48.0365 93.54 48.0725 93.588C48.1205 93.624 48.3125 93.642 48.6485 93.642ZM58.2064 100.14V85.56H66.3244C67.0084 85.56 67.5904 85.806 68.0704 86.298C68.5624 86.778 68.8084 87.36 68.8084 88.044V93.516C68.8084 94.2 68.5624 94.788 68.0704 95.28C67.5904 95.76 67.0084 96 66.3244 96H60.5644V100.14H58.2064ZM61.1944 93.642H65.8204C66.1564 93.642 66.3424 93.624 66.3784 93.588C66.4264 93.54 66.4504 93.348 66.4504 93.012V88.548C66.4504 88.212 66.4264 88.026 66.3784 87.99C66.3424 87.942 66.1564 87.918 65.8204 87.918H61.1944C60.8584 87.918 60.6664 87.942 60.6184 87.99C60.5824 88.026 60.5644 88.212 60.5644 88.548V93.012C60.5644 93.348 60.5824 93.54 60.6184 93.588C60.6664 93.624 60.8584 93.642 61.1944 93.642ZM70.1595 96V82.14H72.5175V85.56H78.2775C78.9495 85.56 79.5315 85.806 80.0235 86.298C80.5155 86.778 80.7615 87.36 80.7615 88.044V96H78.4035V88.548C78.4035 88.212 78.3795 88.026 78.3315 87.99C78.2955 87.942 78.1095 87.918 77.7735 87.918H73.1475C72.8115 87.918 72.6195 87.942 72.5715 87.99C72.5355 88.026 72.5175 88.212 72.5175 88.548V96H70.1595ZM84.6129 96C83.9289 96 83.3409 95.76 82.8489 95.28C82.3689 94.788 82.1289 94.2 82.1289 93.516V88.044C82.1289 87.36 82.3689 86.778 82.8489 86.298C83.3409 85.806 83.9289 85.56 84.6129 85.56H90.2469C90.9309 85.56 91.5129 85.806 91.9929 86.298C92.4849 86.778 92.7309 87.36 92.7309 88.044V93.516C92.7309 94.2 92.4849 94.788 91.9929 95.28C91.5129 95.76 90.9309 96 90.2469 96H84.6129ZM85.1169 93.642H89.7429C90.0789 93.642 90.2649 93.624 90.3009 93.588C90.3489 93.54 90.3729 93.348 90.3729 93.012V88.548C90.3729 88.212 90.3489 88.026 90.3009 87.99C90.2649 87.942 90.0789 87.918 89.7429 87.918H85.1169C84.7809 87.918 84.5889 87.942 84.5409 87.99C84.5049 88.026 84.4869 88.212 84.4869 88.548V93.012C84.4869 93.348 84.5049 93.54 84.5409 93.588C84.5889 93.624 84.7809 93.642 85.1169 93.642ZM94.1888 96V85.56H102.307C102.991 85.56 103.573 85.806 104.053 86.298C104.545 86.778 104.791 87.36 104.791 88.044V96H102.433V88.548C102.433 88.212 102.409 88.026 102.361 87.99C102.325 87.942 102.139 87.918 101.803 87.918H97.1768C96.8408 87.918 96.6488 87.942 96.6008 87.99C96.5648 88.026 96.5468 88.212 96.5468 88.548V96H94.1888ZM108.765 96C108.081 96 107.493 95.76 107.001 95.28C106.521 94.788 106.281 94.2 106.281 93.516V88.044C106.281 87.36 106.521 86.778 107.001 86.298C107.493 85.806 108.081 85.56 108.765 85.56H114.399C115.083 85.56 115.665 85.806 116.145 86.298C116.637 86.778 116.883 87.36 116.883 88.044V91.968H108.639V93.012C108.639 93.348 108.657 93.54 108.693 93.588C108.741 93.624 108.933 93.642 109.269 93.642H116.883V96H108.765ZM108.639 89.844H114.525V88.548C114.525 88.212 114.501 88.026 114.453 87.99C114.417 87.942 114.231 87.918 113.895 87.918H109.269C108.933 87.918 108.741 87.942 108.693 87.99C108.657 88.026 108.639 88.212 108.639 88.548V89.844ZM121.051 96C120.367 96 119.779 95.76 119.287 95.28C118.807 94.788 118.567 94.2 118.567 93.516V93.12H120.925V93.228C120.925 93.42 120.943 93.54 120.979 93.588C121.027 93.624 121.147 93.642 121.339 93.642H126.397C126.577 93.642 126.691 93.624 126.739 93.588C126.787 93.54 126.811 93.42 126.811 93.228V92.382C126.811 92.19 126.787 92.076 126.739 92.04C126.691 91.992 126.577 91.968 126.397 91.968H121.051C120.367 91.968 119.779 91.722 119.287 91.23C118.807 90.738 118.567 90.156 118.567 89.484V88.044C118.567 87.36 118.807 86.778 119.287 86.298C119.779 85.806 120.367 85.56 121.051 85.56H126.685C127.369 85.56 127.957 85.806 128.449 86.298C128.941 86.778 129.187 87.36 129.187 88.044V88.44H126.811V88.332C126.811 88.14 126.787 88.026 126.739 87.99C126.691 87.942 126.577 87.918 126.397 87.918H121.339C121.147 87.918 121.027 87.942 120.979 87.99C120.943 88.026 120.925 88.14 120.925 88.332V89.178C120.925 89.37 120.943 89.49 120.979 89.538C121.027 89.574 121.147 89.592 121.339 89.592H126.685C127.369 89.592 127.957 89.838 128.449 90.33C128.941 90.822 129.187 91.404 129.187 92.076V93.516C129.187 94.2 128.941 94.788 128.449 95.28C127.957 95.76 127.369 96 126.685 96H121.051Z" fill="#FF6D00"/>
<g filter="url(#filter1_d)">
<path d="M94.625 44.1875V37.375C94.625 30.7446 91.9911 24.3857 87.3027 19.6973C82.6143 15.0089 76.2554 12.375 69.625 12.375C62.9946 12.375 56.6357 15.0089 51.9473 19.6973C47.2589 24.3857 44.625 30.7446 44.625 37.375V44.1875C42.8014 44.8322 41.2219 46.0252 40.1029 47.6029C38.984 49.1806 38.3804 51.0658 38.375 53V59.25C38.375 61.7364 39.3627 64.121 41.1209 65.8791C42.879 67.6373 45.2636 68.625 47.75 68.625H57.125C57.9538 68.625 58.7487 68.2958 59.3347 67.7097C59.9208 67.1237 60.25 66.3288 60.25 65.5V46.75C60.25 45.9212 59.9208 45.1263 59.3347 44.5403C58.7487 43.9542 57.9538 43.625 57.125 43.625H50.875V37.375C50.875 32.4022 52.8504 27.6331 56.3667 24.1167C59.8831 20.6004 64.6522 18.625 69.625 18.625C74.5978 18.625 79.3669 20.6004 82.8833 24.1167C86.3996 27.6331 88.375 32.4022 88.375 37.375V43.625H82.125C81.2962 43.625 80.5013 43.9542 79.9153 44.5403C79.3292 45.1263 79 45.9212 79 46.75V65.5C79 66.3288 79.3292 67.1237 79.9153 67.7097C80.5013 68.2958 81.2962 68.625 82.125 68.625H91.5C93.9864 68.625 96.371 67.6373 98.1291 65.8791C99.8873 64.121 100.875 61.7364 100.875 59.25V53C100.87 51.0658 100.266 49.1806 99.1471 47.6029C98.0281 46.0252 96.4486 44.8322 94.625 44.1875ZM54 49.875V62.375H47.75C46.9212 62.375 46.1263 62.0458 45.5403 61.4597C44.9542 60.8737 44.625 60.0788 44.625 59.25V53C44.625 52.1712 44.9542 51.3763 45.5403 50.7903C46.1263 50.2042 46.9212 49.875 47.75 49.875H54ZM94.625 59.25C94.625 60.0788 94.2958 60.8737 93.7097 61.4597C93.1237 62.0458 92.3288 62.375 91.5 62.375H85.25V49.875H91.5C92.3288 49.875 93.1237 50.2042 93.7097 50.7903C94.2958 51.3763 94.625 52.1712 94.625 53V59.25Z" fill="#FF6D00"/>
</g>
</g>
<defs>
<filter id="filter0_d" x="0.983398" y="0" width="133.204" height="107.14" filterUnits="userSpaceOnUse" color-interpolation-filters="sRGB">
<feFlood flood-opacity="0" result="BackgroundImageFix"/>
<feColorMatrix in="SourceAlpha" type="matrix" values="0 0 0 0 0 0 0 0 0 0 0 0 0 0 0 0 0 0 127 0"/>
<feOffset dy="2"/>
<feGaussianBlur stdDeviation="2.5"/>
<feColorMatrix type="matrix" values="0 0 0 0 0.3575 0 0 0 0 0 0 0 0 0 0.704167 0 0 0 1 0"/>
<feBlend mode="normal" in2="BackgroundImageFix" result="effect1_dropShadow"/>
<feBlend mode="normal" in="SourceGraphic" in2="effect1_dropShadow" result="shape"/>
</filter>
<filter id="filter1_d" x="28" y="3" width="83" height="83" filterUnits="userSpaceOnUse" color-interpolation-filters="sRGB">
<feFlood flood-opacity="0" result="BackgroundImageFix"/>
<feColorMatrix in="SourceAlpha" type="matrix" values="0 0 0 0 0 0 0 0 0 0 0 0 0 0 0 0 0 0 127 0"/>
<feOffset dy="4"/>
<feGaussianBlur stdDeviation="2"/>
<feColorMatrix type="matrix" values="0 0 0 0 0 0 0 0 0 0 0 0 0 0 0 0 0 0 0.25 0"/>
<feBlend mode="normal" in2="BackgroundImageFix" result="effect1_dropShadow"/>
<feBlend mode="normal" in="SourceGraphic" in2="effect1_dropShadow" result="shape"/>
</filter>
</defs>
</svg>
