<svg width="95" height="105" viewBox="0 0 95 105" fill="none" xmlns="http://www.w3.org/2000/svg">
<g filter="url(#filter0_d)">
<g filter="url(#filter1_d)">
<path d="M75.625 14.7188C76.5571 14.7177 77.4507 14.347 78.1098 13.6879C78.7688 13.0288 79.1396 12.1352 79.1406 11.2031V5.34375H74.4531V10.0312H48.6719C47.7398 10.0323 46.8462 10.403 46.1871 11.0621C45.528 11.7212 45.1573 12.6148 45.1562 13.5469V19.4062H40.5603C37.1184 19.4101 33.8186 20.7791 31.3848 23.2129C28.951 25.6467 27.582 28.9465 27.5781 32.3884V55.818C27.5781 66.7569 36.4775 75.6562 47.4164 75.6562H47.5836C58.5225 75.6562 67.4219 66.7569 67.4219 55.818V32.3884C67.418 28.9465 66.049 25.6467 63.6152 23.2129C61.1814 20.7791 57.8816 19.4101 54.4397 19.4062H49.8438V14.7188H75.625ZM32.2656 32.3884C32.2681 30.1893 33.1428 28.081 34.6978 26.5259C36.2528 24.9709 38.3612 24.0962 40.5603 24.0938H45.1562V36.9844H32.2656V32.3884ZM62.7344 55.818C62.7299 59.8349 61.1322 63.6859 58.2919 66.5262C55.4515 69.3666 51.6005 70.9643 47.5836 70.9688H47.4164C43.3995 70.9643 39.5485 69.3666 36.7081 66.5262C33.8678 63.6859 32.2701 59.8349 32.2656 55.818V41.6719H62.7344V55.818ZM54.4397 24.0938C56.6388 24.0962 58.7472 24.9709 60.3022 26.5259C61.8572 28.081 62.7319 30.1893 62.7344 32.3884V36.9844H49.8438V24.0938H54.4397Z" fill="#FF6D00"/>
</g>
<path d="M9.75702 96V83.04H12.367L17.065 88.638L21.745 83.04H24.373V96H21.979V86.496L17.065 92.346L12.133 86.514V96H9.75702ZM28.8502 96C28.1662 96 27.5782 95.76 27.0862 95.28C26.6062 94.788 26.3662 94.2 26.3662 93.516V88.044C26.3662 87.36 26.6062 86.778 27.0862 86.298C27.5782 85.806 28.1662 85.56 28.8502 85.56H34.4842C35.1682 85.56 35.7502 85.806 36.2302 86.298C36.7222 86.778 36.9682 87.36 36.9682 88.044V93.516C36.9682 94.2 36.7222 94.788 36.2302 95.28C35.7502 95.76 35.1682 96 34.4842 96H28.8502ZM29.3542 93.642H33.9802C34.3162 93.642 34.5022 93.624 34.5382 93.588C34.5862 93.54 34.6102 93.348 34.6102 93.012V88.548C34.6102 88.212 34.5862 88.026 34.5382 87.99C34.5022 87.942 34.3162 87.918 33.9802 87.918H29.3542C29.0182 87.918 28.8262 87.942 28.7782 87.99C28.7422 88.026 28.7242 88.212 28.7242 88.548V93.012C28.7242 93.348 28.7422 93.54 28.7782 93.588C28.8262 93.624 29.0182 93.642 29.3542 93.642ZM40.8745 96C40.1905 96 39.6025 95.76 39.1105 95.28C38.6305 94.788 38.3905 94.2 38.3905 93.516V85.56H40.7485V93.012C40.7485 93.348 40.7665 93.54 40.8025 93.588C40.8505 93.624 41.0425 93.642 41.3785 93.642H46.0045C46.3405 93.642 46.5265 93.624 46.5625 93.588C46.6105 93.54 46.6345 93.348 46.6345 93.012V85.56H48.9925V93.516C48.9925 94.2 48.7465 94.788 48.2545 95.28C47.7745 95.76 47.1925 96 46.5085 96H40.8745ZM52.9134 96C52.2294 96 51.6414 95.76 51.1494 95.28C50.6694 94.788 50.4294 94.2 50.4294 93.516V93.12H52.7874V93.228C52.7874 93.42 52.8054 93.54 52.8414 93.588C52.8894 93.624 53.0094 93.642 53.2014 93.642H58.2594C58.4394 93.642 58.5534 93.624 58.6014 93.588C58.6494 93.54 58.6734 93.42 58.6734 93.228V92.382C58.6734 92.19 58.6494 92.076 58.6014 92.04C58.5534 91.992 58.4394 91.968 58.2594 91.968H52.9134C52.2294 91.968 51.6414 91.722 51.1494 91.23C50.6694 90.738 50.4294 90.156 50.4294 89.484V88.044C50.4294 87.36 50.6694 86.778 51.1494 86.298C51.6414 85.806 52.2294 85.56 52.9134 85.56H58.5474C59.2314 85.56 59.8194 85.806 60.3114 86.298C60.8034 86.778 61.0494 87.36 61.0494 88.044V88.44H58.6734V88.332C58.6734 88.14 58.6494 88.026 58.6014 87.99C58.5534 87.942 58.4394 87.918 58.2594 87.918H53.2014C53.0094 87.918 52.8894 87.942 52.8414 87.99C52.8054 88.026 52.7874 88.14 52.7874 88.332V89.178C52.7874 89.37 52.8054 89.49 52.8414 89.538C52.8894 89.574 53.0094 89.592 53.2014 89.592H58.5474C59.2314 89.592 59.8194 89.838 60.3114 90.33C60.8034 90.822 61.0494 91.404 61.0494 92.076V93.516C61.0494 94.2 60.8034 94.788 60.3114 95.28C59.8194 95.76 59.2314 96 58.5474 96H52.9134ZM64.9733 96C64.2893 96 63.7013 95.76 63.2093 95.28C62.7293 94.788 62.4893 94.2 62.4893 93.516V88.044C62.4893 87.36 62.7293 86.778 63.2093 86.298C63.7013 85.806 64.2893 85.56 64.9733 85.56H70.6073C71.2913 85.56 71.8733 85.806 72.3533 86.298C72.8453 86.778 73.0913 87.36 73.0913 88.044V91.968H64.8473V93.012C64.8473 93.348 64.8653 93.54 64.9013 93.588C64.9493 93.624 65.1413 93.642 65.4773 93.642H73.0913V96H64.9733ZM64.8473 89.844H70.7333V88.548C70.7333 88.212 70.7093 88.026 70.6613 87.99C70.6253 87.942 70.4393 87.918 70.1033 87.918H65.4773C65.1413 87.918 64.9493 87.942 64.9013 87.99C64.8653 88.026 64.8473 88.212 64.8473 88.548V89.844ZM77.2591 96C76.5751 96 75.9871 95.76 75.4951 95.28C75.0151 94.788 74.7751 94.2 74.7751 93.516V93.12H77.1331V93.228C77.1331 93.42 77.1511 93.54 77.1871 93.588C77.2351 93.624 77.3551 93.642 77.5471 93.642H82.6051C82.7851 93.642 82.8991 93.624 82.9471 93.588C82.9951 93.54 83.0191 93.42 83.0191 93.228V92.382C83.0191 92.19 82.9951 92.076 82.9471 92.04C82.8991 91.992 82.7851 91.968 82.6051 91.968H77.2591C76.5751 91.968 75.9871 91.722 75.4951 91.23C75.0151 90.738 74.7751 90.156 74.7751 89.484V88.044C74.7751 87.36 75.0151 86.778 75.4951 86.298C75.9871 85.806 76.5751 85.56 77.2591 85.56H82.8931C83.5771 85.56 84.1651 85.806 84.6571 86.298C85.1491 86.778 85.3951 87.36 85.3951 88.044V88.44H83.0191V88.332C83.0191 88.14 82.9951 88.026 82.9471 87.99C82.8991 87.942 82.7851 87.918 82.6051 87.918H77.5471C77.3551 87.918 77.2351 87.942 77.1871 87.99C77.1511 88.026 77.1331 88.14 77.1331 88.332V89.178C77.1331 89.37 77.1511 89.49 77.1871 89.538C77.2351 89.574 77.3551 89.592 77.5471 89.592H82.8931C83.5771 89.592 84.1651 89.838 84.6571 90.33C85.1491 90.822 85.3951 91.404 85.3951 92.076V93.516C85.3951 94.2 85.1491 94.788 84.6571 95.28C84.1651 95.76 83.5771 96 82.8931 96H77.2591Z" fill="#FF6D00"/>
</g>
<defs>
<filter id="filter0_d" x="4.75684" y="0" width="85.6381" height="103" filterUnits="userSpaceOnUse" color-interpolation-filters="sRGB">
<feFlood flood-opacity="0" result="BackgroundImageFix"/>
<feColorMatrix in="SourceAlpha" type="matrix" values="0 0 0 0 0 0 0 0 0 0 0 0 0 0 0 0 0 0 127 0"/>
<feOffset dy="2"/>
<feGaussianBlur stdDeviation="2.5"/>
<feColorMatrix type="matrix" values="0 0 0 0 0.356863 0 0 0 0 0 0 0 0 0 0.705882 0 0 0 1 0"/>
<feBlend mode="normal" in2="BackgroundImageFix" result="effect1_dropShadow"/>
<feBlend mode="normal" in="SourceGraphic" in2="effect1_dropShadow" result="shape"/>
</filter>
<filter id="filter1_d" x="6" y="3" width="83" height="83" filterUnits="userSpaceOnUse" color-interpolation-filters="sRGB">
<feFlood flood-opacity="0" result="BackgroundImageFix"/>
<feColorMatrix in="SourceAlpha" type="matrix" values="0 0 0 0 0 0 0 0 0 0 0 0 0 0 0 0 0 0 127 0"/>
<feOffset dy="4"/>
<feGaussianBlur stdDeviation="2"/>
<feColorMatrix type="matrix" values="0 0 0 0 0 0 0 0 0 0 0 0 0 0 0 0 0 0 0.25 0"/>
<feBlend mode="normal" in2="BackgroundImageFix" result="effect1_dropShadow"/>
<feBlend mode="normal" in="SourceGraphic" in2="effect1_dropShadow" result="shape"/>
</filter>
</defs>
</svg>
