<svg width="84" height="50" viewBox="0 0 84 50" fill="none" xmlns="http://www.w3.org/2000/svg">
<g clip-path="url(#clip0)" filter="url(#filter0_d)">
<g filter="url(#filter1_d)">
<path d="M56.3698 6.39844H26.9427C25.3175 6.39844 24 7.80321 24 9.53613V28.3623C24 30.0952 25.3175 31.5 26.9427 31.5H56.3698C57.995 31.5 59.3125 30.0952 59.3125 28.3623V9.53613C59.3125 7.80321 57.995 6.39844 56.3698 6.39844ZM56.8602 28.3623C56.8602 28.6506 56.6402 28.8853 56.3698 28.8853H26.9427C26.6723 28.8853 26.4523 28.6506 26.4523 28.3623V9.53613C26.4523 9.24779 26.6723 9.01318 26.9427 9.01318H56.3698C56.6402 9.01318 56.8602 9.24779 56.8602 9.53613V28.3623ZM34.4221 19.8644V18.0341C34.4221 17.6009 34.0927 17.2496 33.6864 17.2496H31.9698C31.5636 17.2496 31.2342 17.6009 31.2342 18.0341V19.8644C31.2342 20.2976 31.5636 20.6488 31.9698 20.6488H33.6864C34.0927 20.6488 34.4221 20.2976 34.4221 19.8644ZM40.3075 19.8644V18.0341C40.3075 17.6009 39.9781 17.2496 39.5718 17.2496H37.8553C37.449 17.2496 37.1196 17.6009 37.1196 18.0341V19.8644C37.1196 20.2976 37.449 20.6488 37.8553 20.6488H39.5718C39.9781 20.6488 40.3075 20.2976 40.3075 19.8644ZM46.1929 19.8644V18.0341C46.1929 17.6009 45.8635 17.2496 45.4573 17.2496H43.7407C43.3344 17.2496 43.005 17.6009 43.005 18.0341V19.8644C43.005 20.2976 43.3344 20.6488 43.7407 20.6488H45.4573C45.8635 20.6488 46.1929 20.2976 46.1929 19.8644ZM52.0783 19.8644V18.0341C52.0783 17.6009 51.7489 17.2496 51.3427 17.2496H49.6261C49.2198 17.2496 48.8904 17.6009 48.8904 18.0341V19.8644C48.8904 20.2976 49.2198 20.6488 49.6261 20.6488H51.3427C51.7489 20.6488 52.0783 20.2976 52.0783 19.8644ZM31.4794 25.2246V23.3943C31.4794 22.9611 31.15 22.6099 30.7437 22.6099H29.0271C28.6208 22.6099 28.2915 22.9611 28.2915 23.3943V25.2246C28.2915 25.6578 28.6208 26.009 29.0271 26.009H30.7437C31.15 26.009 31.4794 25.6578 31.4794 25.2246ZM55.0211 25.2246V23.3943C55.0211 22.9611 54.6917 22.6099 54.2854 22.6099H52.5688C52.1625 22.6099 51.8331 22.9611 51.8331 23.3943V25.2246C51.8331 25.6578 52.1625 26.009 52.5688 26.009H54.2854C54.6917 26.009 55.0211 25.6578 55.0211 25.2246ZM31.4794 14.5041V12.6738C31.4794 12.2406 31.15 11.8894 30.7437 11.8894H29.0271C28.6208 11.8894 28.2915 12.2406 28.2915 12.6738V14.5041C28.2915 14.9373 28.6208 15.2886 29.0271 15.2886H30.7437C31.15 15.2886 31.4794 14.9373 31.4794 14.5041ZM37.3648 14.5041V12.6738C37.3648 12.2406 37.0354 11.8894 36.6291 11.8894H34.9125C34.5063 11.8894 34.1769 12.2406 34.1769 12.6738V14.5041C34.1769 14.9373 34.5063 15.2886 34.9125 15.2886H36.6291C37.0354 15.2886 37.3648 14.9373 37.3648 14.5041ZM43.2502 14.5041V12.6738C43.2502 12.2406 42.9208 11.8894 42.5145 11.8894H40.798C40.3917 11.8894 40.0623 12.2406 40.0623 12.6738V14.5041C40.0623 14.9373 40.3917 15.2886 40.798 15.2886H42.5145C42.9208 15.2886 43.2502 14.9373 43.2502 14.5041ZM49.1356 14.5041V12.6738C49.1356 12.2406 48.8062 11.8894 48.4 11.8894H46.6834C46.2771 11.8894 45.9477 12.2406 45.9477 12.6738V14.5041C45.9477 14.9373 46.2771 15.2886 46.6834 15.2886H48.4C48.8062 15.2886 49.1356 14.9373 49.1356 14.5041ZM55.0211 14.5041V12.6738C55.0211 12.2406 54.6917 11.8894 54.2854 11.8894H52.5688C52.1625 11.8894 51.8331 12.2406 51.8331 12.6738V14.5041C51.8331 14.9373 52.1625 15.2886 52.5688 15.2886H54.2854C54.6917 15.2886 55.0211 14.9373 55.0211 14.5041ZM49.013 24.8324V23.7865C49.013 23.3533 48.6836 23.0021 48.2773 23.0021H35.0352C34.6289 23.0021 34.2995 23.3533 34.2995 23.7865V24.8324C34.2995 25.2656 34.6289 25.6168 35.0352 25.6168H48.2773C48.6836 25.6168 49.013 25.2656 49.013 24.8324Z" fill="#FF6D00"/>
</g>
</g>
<g filter="url(#filter2_d)">
<path d="M14.8891 46V38.956H11.3611V37.36H20.0011V38.956H16.4851V46H14.8891ZM22.4946 46C22.0386 46 21.6466 45.84 21.3186 45.52C20.9986 45.192 20.8386 44.8 20.8386 44.344V40.696C20.8386 40.24 20.9986 39.852 21.3186 39.532C21.6466 39.204 22.0386 39.04 22.4946 39.04H26.2506C26.7066 39.04 27.0946 39.204 27.4146 39.532C27.7426 39.852 27.9066 40.24 27.9066 40.696V43.312H22.4106V44.008C22.4106 44.232 22.4226 44.36 22.4466 44.392C22.4786 44.416 22.6066 44.428 22.8306 44.428H27.9066V46H22.4946ZM22.4106 41.896H26.3346V41.032C26.3346 40.808 26.3186 40.684 26.2866 40.66C26.2626 40.628 26.1386 40.612 25.9146 40.612H22.8306C22.6066 40.612 22.4786 40.628 22.4466 40.66C22.4226 40.684 22.4106 40.808 22.4106 41.032V41.896ZM30.5219 46C30.0659 46 29.6739 45.84 29.3459 45.52C29.0259 45.192 28.8659 44.8 28.8659 44.344V40.696C28.8659 40.24 29.0259 39.852 29.3459 39.532C29.6739 39.204 30.0659 39.04 30.5219 39.04H35.9219V40.612H30.8579C30.6339 40.612 30.5059 40.628 30.4739 40.66C30.4499 40.684 30.4379 40.808 30.4379 41.032V44.008C30.4379 44.232 30.4499 44.36 30.4739 44.392C30.5059 44.416 30.6339 44.428 30.8579 44.428H35.9339V46H30.5219ZM38.8777 46C38.4217 46 38.0297 45.84 37.7017 45.52C37.3817 45.192 37.2217 44.8 37.2217 44.344V36.748H38.8057V44.008C38.8057 44.232 38.8177 44.36 38.8417 44.392C38.8737 44.416 38.9977 44.428 39.2137 44.428H40.2817V46H38.8777ZM42.8386 46C42.3826 46 41.9906 45.84 41.6626 45.52C41.3426 45.192 41.1826 44.8 41.1826 44.344V41.728H46.6786V41.032C46.6786 40.808 46.6626 40.684 46.6306 40.66C46.6066 40.628 46.4826 40.612 46.2586 40.612H41.1826V39.04H46.5946C47.0506 39.04 47.4386 39.204 47.7586 39.532C48.0866 39.852 48.2506 40.24 48.2506 40.696V46H42.8386ZM43.1746 44.428H46.6786V43.144H42.7546V44.008C42.7546 44.232 42.7666 44.36 42.7906 44.392C42.8226 44.416 42.9506 44.428 43.1746 44.428ZM50.8226 46C50.3666 46 49.9746 45.84 49.6466 45.52C49.3266 45.192 49.1666 44.8 49.1666 44.344V40.696C49.1666 40.24 49.3266 39.852 49.6466 39.532C49.9746 39.204 50.3666 39.04 50.8226 39.04H54.6746V36.76H56.2466V46H50.8226ZM51.1706 44.428H54.2546C54.4706 44.428 54.5946 44.416 54.6266 44.392C54.6586 44.36 54.6746 44.232 54.6746 44.008V41.032C54.6746 40.808 54.6586 40.684 54.6266 40.66C54.5946 40.628 54.4706 40.612 54.2546 40.612H51.1706C50.9466 40.612 50.8186 40.628 50.7866 40.66C50.7626 40.684 50.7506 40.808 50.7506 41.032V44.008C50.7506 44.232 50.7626 44.36 50.7866 44.392C50.8186 44.416 50.9466 44.428 51.1706 44.428ZM58.8813 46C58.4253 46 58.0333 45.84 57.7053 45.52C57.3853 45.192 57.2253 44.8 57.2253 44.344V40.696C57.2253 40.24 57.3853 39.852 57.7053 39.532C58.0333 39.204 58.4253 39.04 58.8813 39.04H62.6373C63.0933 39.04 63.4813 39.204 63.8013 39.532C64.1293 39.852 64.2933 40.24 64.2933 40.696V44.344C64.2933 44.8 64.1293 45.192 63.8013 45.52C63.4813 45.84 63.0933 46 62.6373 46H58.8813ZM59.2173 44.428H62.3013C62.5253 44.428 62.6493 44.416 62.6733 44.392C62.7053 44.36 62.7213 44.232 62.7213 44.008V41.032C62.7213 40.808 62.7053 40.684 62.6733 40.66C62.6493 40.628 62.5253 40.612 62.3013 40.612H59.2173C58.9933 40.612 58.8653 40.628 58.8333 40.66C58.8093 40.684 58.7973 40.808 58.7973 41.032V44.008C58.7973 44.232 58.8093 44.36 58.8333 44.392C58.8653 44.416 58.9933 44.428 59.2173 44.428ZM66.8843 46C66.4283 46 66.0363 45.84 65.7083 45.52C65.3883 45.192 65.2283 44.8 65.2283 44.344V44.08H66.8003V44.152C66.8003 44.28 66.8123 44.36 66.8363 44.392C66.8683 44.416 66.9483 44.428 67.0763 44.428H70.4483C70.5683 44.428 70.6443 44.416 70.6763 44.392C70.7083 44.36 70.7243 44.28 70.7243 44.152V43.588C70.7243 43.46 70.7083 43.384 70.6763 43.36C70.6443 43.328 70.5683 43.312 70.4483 43.312H66.8843C66.4283 43.312 66.0363 43.148 65.7083 42.82C65.3883 42.492 65.2283 42.104 65.2283 41.656V40.696C65.2283 40.24 65.3883 39.852 65.7083 39.532C66.0363 39.204 66.4283 39.04 66.8843 39.04H70.6403C71.0963 39.04 71.4883 39.204 71.8163 39.532C72.1443 39.852 72.3083 40.24 72.3083 40.696V40.96H70.7243V40.888C70.7243 40.76 70.7083 40.684 70.6763 40.66C70.6443 40.628 70.5683 40.612 70.4483 40.612H67.0763C66.9483 40.612 66.8683 40.628 66.8363 40.66C66.8123 40.684 66.8003 40.76 66.8003 40.888V41.452C66.8003 41.58 66.8123 41.66 66.8363 41.692C66.8683 41.716 66.9483 41.728 67.0763 41.728H70.6403C71.0963 41.728 71.4883 41.892 71.8163 42.22C72.1443 42.548 72.3083 42.936 72.3083 43.384V44.344C72.3083 44.8 72.1443 45.192 71.8163 45.52C71.4883 45.84 71.0963 46 70.6403 46H66.8843Z" fill="#FF6D00"/>
</g>
<defs>
<filter id="filter0_d" x="20" y="0" width="44" height="44" filterUnits="userSpaceOnUse" color-interpolation-filters="sRGB">
<feFlood flood-opacity="0" result="BackgroundImageFix"/>
<feColorMatrix in="SourceAlpha" type="matrix" values="0 0 0 0 0 0 0 0 0 0 0 0 0 0 0 0 0 0 127 0"/>
<feOffset dy="4"/>
<feGaussianBlur stdDeviation="2"/>
<feColorMatrix type="matrix" values="0 0 0 0 0 0 0 0 0 0 0 0 0 0 0 0 0 0 0.25 0"/>
<feBlend mode="normal" in2="BackgroundImageFix" result="effect1_dropShadow"/>
<feBlend mode="normal" in="SourceGraphic" in2="effect1_dropShadow" result="shape"/>
</filter>
<filter id="filter1_d" x="22" y="6.39844" width="39.3125" height="29.1016" filterUnits="userSpaceOnUse" color-interpolation-filters="sRGB">
<feFlood flood-opacity="0" result="BackgroundImageFix"/>
<feColorMatrix in="SourceAlpha" type="matrix" values="0 0 0 0 0 0 0 0 0 0 0 0 0 0 0 0 0 0 127 0"/>
<feOffset dy="2"/>
<feGaussianBlur stdDeviation="1"/>
<feColorMatrix type="matrix" values="0 0 0 0 0.3575 0 0 0 0 0 0 0 0 0 0.704167 0 0 0 1 0"/>
<feBlend mode="normal" in2="BackgroundImageFix" result="effect1_dropShadow"/>
<feBlend mode="normal" in="SourceGraphic" in2="effect1_dropShadow" result="shape"/>
</filter>
<filter id="filter2_d" x="9.36133" y="36.748" width="64.9473" height="13.252" filterUnits="userSpaceOnUse" color-interpolation-filters="sRGB">
<feFlood flood-opacity="0" result="BackgroundImageFix"/>
<feColorMatrix in="SourceAlpha" type="matrix" values="0 0 0 0 0 0 0 0 0 0 0 0 0 0 0 0 0 0 127 0"/>
<feOffset dy="2"/>
<feGaussianBlur stdDeviation="1"/>
<feColorMatrix type="matrix" values="0 0 0 0 0.3575 0 0 0 0 0 0 0 0 0 0.704167 0 0 0 1 0"/>
<feBlend mode="normal" in2="BackgroundImageFix" result="effect1_dropShadow"/>
<feBlend mode="normal" in="SourceGraphic" in2="effect1_dropShadow" result="shape"/>
</filter>
<clipPath id="clip0">
<rect width="36" height="36" fill="white" transform="translate(24)"/>
</clipPath>
</defs>
</svg>
