<svg width="109" height="105" viewBox="0 0 109 105" fill="none" xmlns="http://www.w3.org/2000/svg">
<g filter="url(#filter0_d)">
<g filter="url(#filter1_d)">
<path d="M29.5 15.5C29.5 13.8424 30.1585 12.2527 31.3306 11.0806C32.5027 9.90848 34.0924 9.25 35.75 9.25H73.25C74.9076 9.25 76.4973 9.90848 77.6694 11.0806C78.8415 12.2527 79.5 13.8424 79.5 15.5V65.5C79.5 67.1576 78.8415 68.7473 77.6694 69.9194C76.4973 71.0915 74.9076 71.75 73.25 71.75H35.75C34.0924 71.75 32.5027 71.0915 31.3306 69.9194C30.1585 68.7473 29.5 67.1576 29.5 65.5V15.5ZM73.25 15.5H35.75V65.5H73.25V15.5Z" fill="#FF6D00"/>
<path d="M54.5 40.5C52.8424 40.5 51.2527 41.1585 50.0806 42.3306C48.9085 43.5027 48.25 45.0924 48.25 46.75C48.25 48.4076 48.9085 49.9973 50.0806 51.1694C51.2527 52.3415 52.8424 53 54.5 53C56.1576 53 57.7473 52.3415 58.9194 51.1694C60.0915 49.9973 60.75 48.4076 60.75 46.75C60.75 45.0924 60.0915 43.5027 58.9194 42.3306C57.7473 41.1585 56.1576 40.5 54.5 40.5ZM42 46.75C42 43.4348 43.317 40.2554 45.6612 37.9112C48.0054 35.567 51.1848 34.25 54.5 34.25C57.8152 34.25 60.9946 35.567 63.3388 37.9112C65.683 40.2554 67 43.4348 67 46.75C67 50.0652 65.683 53.2446 63.3388 55.5888C60.9946 57.933 57.8152 59.25 54.5 59.25C51.1848 59.25 48.0054 57.933 45.6612 55.5888C43.317 53.2446 42 50.0652 42 46.75ZM59.1875 26.4375C59.1875 27.6807 58.6936 28.873 57.8146 29.7521C56.9355 30.6311 55.7432 31.125 54.5 31.125C53.2568 31.125 52.0645 30.6311 51.1854 29.7521C50.3064 28.873 49.8125 27.6807 49.8125 26.4375C49.8125 25.1943 50.3064 24.002 51.1854 23.1229C52.0645 22.2439 53.2568 21.75 54.5 21.75C55.7432 21.75 56.9355 22.2439 57.8146 23.1229C58.6936 24.002 59.1875 25.1943 59.1875 26.4375Z" fill="#FF6D00"/>
</g>
<path d="M5.87616 96V83.058H16.3162C17.0122 83.058 17.6062 83.304 18.0982 83.796C18.5902 84.288 18.8362 84.876 18.8362 85.56V89.052C18.8362 89.736 18.5902 90.324 18.0982 90.816C17.6062 91.308 17.0122 91.554 16.3162 91.554L8.25216 91.572V96H5.87616ZM8.88216 89.16H15.8122C16.1362 89.16 16.3222 89.142 16.3702 89.106C16.4182 89.058 16.4422 88.872 16.4422 88.548V86.064C16.4422 85.728 16.4182 85.542 16.3702 85.506C16.3222 85.458 16.1362 85.434 15.8122 85.434H8.88216C8.54616 85.434 8.35416 85.458 8.30616 85.506C8.27016 85.542 8.25216 85.728 8.25216 86.064V88.548C8.25216 88.872 8.27016 89.058 8.30616 89.106C8.35416 89.142 8.54616 89.16 8.88216 89.16ZM22.5264 96C21.8424 96 21.2544 95.76 20.7624 95.28C20.2824 94.788 20.0424 94.2 20.0424 93.516V89.592H28.2864V88.548C28.2864 88.212 28.2624 88.026 28.2144 87.99C28.1784 87.942 27.9924 87.918 27.6564 87.918H20.0424V85.56H28.1604C28.8444 85.56 29.4264 85.806 29.9064 86.298C30.3984 86.778 30.6444 87.36 30.6444 88.044V96H22.5264ZM23.0304 93.642H28.2864V91.716H22.4004V93.012C22.4004 93.348 22.4184 93.54 22.4544 93.588C22.5024 93.624 22.6944 93.642 23.0304 93.642ZM32.1889 96V88.044C32.1889 87.36 32.4289 86.778 32.9089 86.298C33.4009 85.806 33.9889 85.56 34.6729 85.56H40.4689V87.918H35.1769C34.8409 87.918 34.6489 87.942 34.6009 87.99C34.5649 88.026 34.5469 88.212 34.5469 88.548V96H32.1889ZM44.2003 96C43.5163 96 42.9283 95.76 42.4363 95.28C41.9563 94.788 41.7163 94.2 41.7163 93.516V82.122H44.0923V93.012C44.0923 93.348 44.1103 93.54 44.1463 93.588C44.1943 93.624 44.3803 93.642 44.7043 93.642H46.3063V96H44.2003ZM50.1417 96C49.4577 96 48.8697 95.76 48.3777 95.28C47.8977 94.788 47.6577 94.2 47.6577 93.516V89.592H55.9017V88.548C55.9017 88.212 55.8777 88.026 55.8297 87.99C55.7937 87.942 55.6077 87.918 55.2717 87.918H47.6577V85.56H55.7757C56.4597 85.56 57.0417 85.806 57.5217 86.298C58.0137 86.778 58.2597 87.36 58.2597 88.044V96H50.1417ZM50.6457 93.642H55.9017V91.716H50.0157V93.012C50.0157 93.348 50.0337 93.54 50.0697 93.588C50.1177 93.624 50.3097 93.642 50.6457 93.642ZM59.9984 96V85.56H68.1164C68.8004 85.56 69.3824 85.806 69.8624 86.298C70.3544 86.778 70.6004 87.36 70.6004 88.044V96H68.2424V88.548C68.2424 88.212 68.2184 88.026 68.1704 87.99C68.1344 87.942 67.9484 87.918 67.6124 87.918H62.9864C62.6504 87.918 62.4584 87.942 62.4104 87.99C62.3744 88.026 62.3564 88.212 62.3564 88.548V96H59.9984ZM74.9976 96C74.3136 96 73.7256 95.76 73.2336 95.28C72.7536 94.788 72.5136 94.2 72.5136 93.516V82.356H74.8716V85.56H78.9396V87.918H74.8716V93.012C74.8716 93.348 74.8896 93.54 74.9256 93.588C74.9736 93.624 75.1656 93.642 75.5016 93.642H78.9396V96H74.9976ZM82.8541 96C82.1701 96 81.5821 95.76 81.0901 95.28C80.6101 94.788 80.3701 94.2 80.3701 93.516V88.044C80.3701 87.36 80.6101 86.778 81.0901 86.298C81.5821 85.806 82.1701 85.56 82.8541 85.56H88.4881C89.1721 85.56 89.7541 85.806 90.2341 86.298C90.7261 86.778 90.9721 87.36 90.9721 88.044V91.968H82.7281V93.012C82.7281 93.348 82.7461 93.54 82.7821 93.588C82.8301 93.624 83.0221 93.642 83.3581 93.642H90.9721V96H82.8541ZM82.7281 89.844H88.6141V88.548C88.6141 88.212 88.5901 88.026 88.5421 87.99C88.5061 87.942 88.3201 87.918 87.9841 87.918H83.3581C83.0221 87.918 82.8301 87.942 82.7821 87.99C82.7461 88.026 82.7281 88.212 82.7281 88.548V89.844ZM95.14 96C94.456 96 93.868 95.76 93.376 95.28C92.896 94.788 92.656 94.2 92.656 93.516V93.12H95.014V93.228C95.014 93.42 95.032 93.54 95.068 93.588C95.116 93.624 95.236 93.642 95.428 93.642H100.486C100.666 93.642 100.78 93.624 100.828 93.588C100.876 93.54 100.9 93.42 100.9 93.228V92.382C100.9 92.19 100.876 92.076 100.828 92.04C100.78 91.992 100.666 91.968 100.486 91.968H95.14C94.456 91.968 93.868 91.722 93.376 91.23C92.896 90.738 92.656 90.156 92.656 89.484V88.044C92.656 87.36 92.896 86.778 93.376 86.298C93.868 85.806 94.456 85.56 95.14 85.56H100.774C101.458 85.56 102.046 85.806 102.538 86.298C103.03 86.778 103.276 87.36 103.276 88.044V88.44H100.9V88.332C100.9 88.14 100.876 88.026 100.828 87.99C100.78 87.942 100.666 87.918 100.486 87.918H95.428C95.236 87.918 95.116 87.942 95.068 87.99C95.032 88.026 95.014 88.14 95.014 88.332V89.178C95.014 89.37 95.032 89.49 95.068 89.538C95.116 89.574 95.236 89.592 95.428 89.592H100.774C101.458 89.592 102.046 89.838 102.538 90.33C103.03 90.822 103.276 91.404 103.276 92.076V93.516C103.276 94.2 103.03 94.788 102.538 95.28C102.046 95.76 101.458 96 100.774 96H95.14Z" fill="#FF6D00"/>
</g>
<defs>
<filter id="filter0_d" x="0.875977" y="0" width="107.4" height="103" filterUnits="userSpaceOnUse" color-interpolation-filters="sRGB">
<feFlood flood-opacity="0" result="BackgroundImageFix"/>
<feColorMatrix in="SourceAlpha" type="matrix" values="0 0 0 0 0 0 0 0 0 0 0 0 0 0 0 0 0 0 127 0"/>
<feOffset dy="2"/>
<feGaussianBlur stdDeviation="2.5"/>
<feColorMatrix type="matrix" values="0 0 0 0 0.3575 0 0 0 0 0 0 0 0 0 0.704167 0 0 0 1 0"/>
<feBlend mode="normal" in2="BackgroundImageFix" result="effect1_dropShadow"/>
<feBlend mode="normal" in="SourceGraphic" in2="effect1_dropShadow" result="shape"/>
</filter>
<filter id="filter1_d" x="13" y="3" width="83" height="83" filterUnits="userSpaceOnUse" color-interpolation-filters="sRGB">
<feFlood flood-opacity="0" result="BackgroundImageFix"/>
<feColorMatrix in="SourceAlpha" type="matrix" values="0 0 0 0 0 0 0 0 0 0 0 0 0 0 0 0 0 0 127 0"/>
<feOffset dy="4"/>
<feGaussianBlur stdDeviation="2"/>
<feColorMatrix type="matrix" values="0 0 0 0 0 0 0 0 0 0 0 0 0 0 0 0 0 0 0.25 0"/>
<feBlend mode="normal" in2="BackgroundImageFix" result="effect1_dropShadow"/>
<feBlend mode="normal" in="SourceGraphic" in2="effect1_dropShadow" result="shape"/>
</filter>
</defs>
</svg>
