<svg width="114" height="110" viewBox="0 0 114 110" fill="none" xmlns="http://www.w3.org/2000/svg">
<g filter="url(#filter0_d)">
<g filter="url(#filter1_d)">
<path d="M54.375 69.625V66.2812C49.1684 65.5284 44.4072 62.9249 40.9637 58.9477C37.5203 54.9705 35.625 49.8858 35.625 44.625V29C35.625 26.1273 36.1908 23.2828 37.2901 20.6288C38.3895 17.9748 40.0008 15.5633 42.032 13.532C44.0633 11.5008 46.4748 9.88946 49.1288 8.79014C51.7828 7.69081 54.6273 7.125 57.5 7.125C60.3727 7.125 63.2172 7.69081 65.8712 8.79014C68.5252 9.88946 70.9367 11.5008 72.968 13.532C74.9992 15.5633 76.6105 17.9748 77.7099 20.6288C78.8092 23.2828 79.375 26.1273 79.375 29V44.625C79.375 49.8858 77.4797 54.9705 74.0363 58.9477C70.5928 62.9249 65.8316 65.5284 60.625 66.2812V69.625H73.125V75.875H41.875V69.625H54.375ZM57.5 13.375C53.356 13.375 49.3817 15.0212 46.4515 17.9515C43.5212 20.8817 41.875 24.856 41.875 29V44.625C41.875 48.769 43.5212 52.7433 46.4515 55.6735C49.3817 58.6038 53.356 60.25 57.5 60.25C61.644 60.25 65.6183 58.6038 68.5485 55.6735C71.4788 52.7433 73.125 48.769 73.125 44.625V29C73.125 24.856 71.4788 20.8817 68.5485 17.9515C65.6183 15.0212 61.644 13.375 57.5 13.375ZM57.5 32.125C58.3288 32.125 59.1237 31.7958 59.7097 31.2097C60.2958 30.6237 60.625 29.8288 60.625 29C60.625 28.1712 60.2958 27.3763 59.7097 26.7903C59.1237 26.2042 58.3288 25.875 57.5 25.875C56.6712 25.875 55.8763 26.2042 55.2903 26.7903C54.7042 27.3763 54.375 28.1712 54.375 29C54.375 29.8288 54.7042 30.6237 55.2903 31.2097C55.8763 31.7958 56.6712 32.125 57.5 32.125ZM57.5 38.375C55.0136 38.375 52.629 37.3873 50.8709 35.6291C49.1127 33.871 48.125 31.4864 48.125 29C48.125 26.5136 49.1127 24.129 50.8709 22.3709C52.629 20.6127 55.0136 19.625 57.5 19.625C59.9864 19.625 62.371 20.6127 64.1291 22.3709C65.8873 24.129 66.875 26.5136 66.875 29C66.875 31.4864 65.8873 33.871 64.1291 35.6291C62.371 37.3873 59.9864 38.375 57.5 38.375Z" fill="#FF6D00"/>
</g>
<path d="M8.65327 97C7.96927 97 7.38127 96.754 6.88927 96.262C6.39727 95.77 6.15127 95.182 6.15127 94.498V93.508H8.52727V93.976C8.52727 94.312 8.54527 94.504 8.58127 94.552C8.62927 94.588 8.82127 94.606 9.15727 94.606H16.0873C16.4233 94.606 16.6093 94.588 16.6453 94.552C16.6933 94.504 16.7173 94.312 16.7173 93.976V92.338C16.7173 92.002 16.6933 91.816 16.6453 91.78C16.6093 91.732 16.4233 91.708 16.0873 91.708H8.65327C7.96927 91.708 7.38127 91.462 6.88927 90.97C6.39727 90.478 6.15127 89.89 6.15127 89.206V86.542C6.15127 85.858 6.39727 85.27 6.88927 84.778C7.38127 84.286 7.96927 84.04 8.65327 84.04H16.6093C17.2933 84.04 17.8813 84.286 18.3733 84.778C18.8653 85.27 19.1113 85.858 19.1113 86.542V87.532H16.7173V87.064C16.7173 86.728 16.6933 86.542 16.6453 86.506C16.6093 86.458 16.4233 86.434 16.0873 86.434H9.15727C8.82127 86.434 8.62927 86.458 8.58127 86.506C8.54527 86.542 8.52727 86.728 8.52727 87.064V88.702C8.52727 89.038 8.54527 89.224 8.58127 89.26C8.62927 89.296 8.82127 89.314 9.15727 89.314H16.6093C17.2933 89.314 17.8813 89.566 18.3733 90.07C18.8653 90.562 19.1113 91.15 19.1113 91.834V94.498C19.1113 95.182 18.8653 95.77 18.3733 96.262C17.8813 96.754 17.2933 97 16.6093 97H8.65327ZM23.5064 97C22.8224 97 22.2344 96.76 21.7424 96.28C21.2624 95.788 21.0224 95.2 21.0224 94.516V83.356H23.3804V86.56H27.4484V88.918H23.3804V94.012C23.3804 94.348 23.3984 94.54 23.4344 94.588C23.4824 94.624 23.6744 94.642 24.0104 94.642H27.4484V97H23.5064ZM29.02 97V89.044C29.02 88.36 29.26 87.778 29.74 87.298C30.232 86.806 30.82 86.56 31.504 86.56H37.3V88.918H32.008C31.672 88.918 31.48 88.942 31.432 88.99C31.396 89.026 31.378 89.212 31.378 89.548V97H29.02ZM41.0133 97C40.3293 97 39.7413 96.76 39.2493 96.28C38.7693 95.788 38.5293 95.2 38.5293 94.516V89.044C38.5293 88.36 38.7693 87.778 39.2493 87.298C39.7413 86.806 40.3293 86.56 41.0133 86.56H46.6473C47.3313 86.56 47.9133 86.806 48.3933 87.298C48.8853 87.778 49.1313 88.36 49.1313 89.044V92.968H40.8873V94.012C40.8873 94.348 40.9053 94.54 40.9413 94.588C40.9893 94.624 41.1813 94.642 41.5173 94.642H49.1313V97H41.0133ZM40.8873 90.844H46.7733V89.548C46.7733 89.212 46.7493 89.026 46.7013 88.99C46.6653 88.942 46.4793 88.918 46.1433 88.918H41.5173C41.1813 88.918 40.9893 88.942 40.9413 88.99C40.9053 89.026 40.8873 89.212 40.8873 89.548V90.844ZM53.4942 97C52.8102 97 52.2222 96.76 51.7302 96.28C51.2502 95.788 51.0102 95.2 51.0102 94.516V90.592H59.2542V89.548C59.2542 89.212 59.2302 89.026 59.1822 88.99C59.1462 88.942 58.9602 88.918 58.6242 88.918H51.0102V86.56H59.1282C59.8122 86.56 60.3942 86.806 60.8742 87.298C61.3662 87.778 61.6122 88.36 61.6122 89.044V97H53.4942ZM53.9982 94.642H59.2542V92.716H53.3682V94.012C53.3682 94.348 53.3862 94.54 53.4222 94.588C53.4702 94.624 53.6622 94.642 53.9982 94.642ZM63.0697 97V86.56H76.0117C76.6957 86.56 77.2777 86.806 77.7577 87.298C78.2497 87.778 78.4957 88.36 78.4957 89.044V97H76.1557V89.548C76.1557 89.212 76.1317 89.026 76.0837 88.99C76.0357 88.942 75.8497 88.918 75.5257 88.918H72.6097C72.2737 88.918 72.0817 88.942 72.0337 88.99C71.9977 89.026 71.9797 89.212 71.9797 89.548V97H69.6037V89.548C69.6037 89.212 69.5797 89.026 69.5317 88.99C69.4957 88.942 69.3097 88.918 68.9737 88.918H66.0577C65.7217 88.918 65.5297 88.942 65.4817 88.99C65.4457 89.026 65.4277 89.212 65.4277 89.548V97H63.0697ZM80.6294 97V86.56H82.9874V97H80.6294ZM80.6294 85.516V83.14H82.9874V85.516H80.6294ZM85.0775 97V86.56H93.1955C93.8795 86.56 94.4615 86.806 94.9415 87.298C95.4335 87.778 95.6795 88.36 95.6795 89.044V97H93.3215V89.548C93.3215 89.212 93.2975 89.026 93.2495 88.99C93.2135 88.942 93.0275 88.918 92.6915 88.918H88.0655C87.7295 88.918 87.5375 88.942 87.4895 88.99C87.4535 89.026 87.4355 89.212 87.4355 89.548V97H85.0775ZM98.9996 101.122V98.746H104.886C105.21 98.746 105.39 98.722 105.426 98.674C105.474 98.638 105.498 98.452 105.498 98.116V97H99.7376C99.0536 97 98.4656 96.76 97.9736 96.28C97.4936 95.788 97.2536 95.2 97.2536 94.516V89.044C97.2536 88.36 97.4936 87.778 97.9736 87.298C98.4656 86.806 99.0536 86.56 99.7376 86.56H105.39C106.074 86.56 106.656 86.806 107.136 87.298C107.616 87.778 107.856 88.36 107.856 89.044V98.638C107.856 99.322 107.616 99.904 107.136 100.384C106.656 100.876 106.074 101.122 105.39 101.122H98.9996ZM100.242 94.642H104.886C105.21 94.642 105.39 94.624 105.426 94.588C105.474 94.54 105.498 94.348 105.498 94.012V89.548C105.498 89.212 105.474 89.026 105.426 88.99C105.39 88.942 105.21 88.918 104.886 88.918H100.242C99.9056 88.918 99.7136 88.942 99.6656 88.99C99.6296 89.026 99.6116 89.212 99.6116 89.548V94.012C99.6116 94.348 99.6296 94.54 99.6656 94.588C99.7136 94.624 99.9056 94.642 100.242 94.642Z" fill="#FF6D00"/>
</g>
<defs>
<filter id="filter0_d" x="0.151367" y="0" width="113.704" height="109.122" filterUnits="userSpaceOnUse" color-interpolation-filters="sRGB">
<feFlood flood-opacity="0" result="BackgroundImageFix"/>
<feColorMatrix in="SourceAlpha" type="matrix" values="0 0 0 0 0 0 0 0 0 0 0 0 0 0 0 0 0 0 127 0"/>
<feOffset dy="2"/>
<feGaussianBlur stdDeviation="3"/>
<feColorMatrix type="matrix" values="0 0 0 0 0.3575 0 0 0 0 0 0 0 0 0 0.704167 0 0 0 1 0"/>
<feBlend mode="normal" in2="BackgroundImageFix" result="effect1_dropShadow"/>
<feBlend mode="normal" in="SourceGraphic" in2="effect1_dropShadow" result="shape"/>
</filter>
<filter id="filter1_d" x="16" y="4" width="83" height="83" filterUnits="userSpaceOnUse" color-interpolation-filters="sRGB">
<feFlood flood-opacity="0" result="BackgroundImageFix"/>
<feColorMatrix in="SourceAlpha" type="matrix" values="0 0 0 0 0 0 0 0 0 0 0 0 0 0 0 0 0 0 127 0"/>
<feOffset dy="4"/>
<feGaussianBlur stdDeviation="2"/>
<feColorMatrix type="matrix" values="0 0 0 0 0 0 0 0 0 0 0 0 0 0 0 0 0 0 0.25 0"/>
<feBlend mode="normal" in2="BackgroundImageFix" result="effect1_dropShadow"/>
<feBlend mode="normal" in="SourceGraphic" in2="effect1_dropShadow" result="shape"/>
</filter>
</defs>
</svg>
