<svg width="102" height="105" viewBox="0 0 102 105" fill="none" xmlns="http://www.w3.org/2000/svg">
<g filter="url(#filter0_d)">
<g filter="url(#filter1_d)">
<path d="M81.4371 16.3301H20.1306C16.7447 16.3301 14 19.2567 14 22.8669V62.0881C14 65.6984 16.7447 68.625 20.1306 68.625H81.4371C84.823 68.625 87.5677 65.6984 87.5677 62.0881V22.8669C87.5677 19.2567 84.823 16.3301 81.4371 16.3301ZM82.4588 62.0881C82.4588 62.6888 82.0005 63.1776 81.4371 63.1776H20.1306C19.5673 63.1776 19.1089 62.6888 19.1089 62.0881V22.8669C19.1089 22.2662 19.5673 21.7775 20.1306 21.7775H81.4371C82.0005 21.7775 82.4588 22.2662 82.4588 22.8669V62.0881ZM35.7127 44.3841V40.571C35.7127 39.6685 35.0264 38.9367 34.18 38.9367H30.6038C29.7574 38.9367 29.0712 39.6685 29.0712 40.571V44.3841C29.0712 45.2866 29.7574 46.0183 30.6038 46.0183H34.18C35.0264 46.0183 35.7127 45.2866 35.7127 44.3841ZM47.974 44.3841V40.571C47.974 39.6685 47.2877 38.9367 46.4413 38.9367H42.8651C42.0187 38.9367 41.3324 39.6685 41.3324 40.571V44.3841C41.3324 45.2866 42.0187 46.0183 42.8651 46.0183H46.4413C47.2877 46.0183 47.974 45.2866 47.974 44.3841ZM60.2353 44.3841V40.571C60.2353 39.6685 59.549 38.9367 58.7026 38.9367H55.1264C54.28 38.9367 53.5937 39.6685 53.5937 40.571V44.3841C53.5937 45.2866 54.28 46.0183 55.1264 46.0183H58.7026C59.549 46.0183 60.2353 45.2866 60.2353 44.3841ZM72.4966 44.3841V40.571C72.4966 39.6685 71.8103 38.9367 70.9639 38.9367H67.3877C66.5413 38.9367 65.855 39.6685 65.855 40.571V44.3841C65.855 45.2866 66.5413 46.0183 67.3877 46.0183H70.9639C71.8103 46.0183 72.4966 45.2866 72.4966 44.3841ZM29.5821 55.5513V51.7381C29.5821 50.8356 28.8958 50.1039 28.0494 50.1039H24.4732C23.6268 50.1039 22.9405 50.8356 22.9405 51.7381V55.5513C22.9405 56.4538 23.6268 57.1855 24.4732 57.1855H28.0494C28.8958 57.1855 29.5821 56.4538 29.5821 55.5513ZM78.6272 55.5513V51.7381C78.6272 50.8356 77.9409 50.1039 77.0945 50.1039H73.5183C72.6719 50.1039 71.9857 50.8356 71.9857 51.7381V55.5513C71.9857 56.4538 72.6719 57.1855 73.5183 57.1855H77.0945C77.9409 57.1855 78.6272 56.4538 78.6272 55.5513ZM29.5821 33.217V29.4038C29.5821 28.5013 28.8958 27.7696 28.0494 27.7696H24.4732C23.6268 27.7696 22.9405 28.5013 22.9405 29.4038V33.217C22.9405 34.1195 23.6268 34.8512 24.4732 34.8512H28.0494C28.8958 34.8512 29.5821 34.1195 29.5821 33.217ZM41.8433 33.217V29.4038C41.8433 28.5013 41.1571 27.7696 40.3107 27.7696H36.7345C35.8881 27.7696 35.2018 28.5013 35.2018 29.4038V33.217C35.2018 34.1195 35.8881 34.8512 36.7345 34.8512H40.3107C41.1571 34.8512 41.8433 34.1195 41.8433 33.217ZM54.1046 33.217V29.4038C54.1046 28.5013 53.4184 27.7696 52.572 27.7696H48.9958C48.1493 27.7696 47.4631 28.5013 47.4631 29.4038V33.217C47.4631 34.1195 48.1493 34.8512 48.9958 34.8512H52.572C53.4184 34.8512 54.1046 34.1195 54.1046 33.217ZM66.3659 33.217V29.4038C66.3659 28.5013 65.6797 27.7696 64.8332 27.7696H61.257C60.4106 27.7696 59.7244 28.5013 59.7244 29.4038V33.217C59.7244 34.1195 60.4106 34.8512 61.257 34.8512H64.8332C65.6797 34.8512 66.3659 34.1195 66.3659 33.217ZM78.6272 33.217V29.4038C78.6272 28.5013 77.9409 27.7696 77.0945 27.7696H73.5183C72.6719 27.7696 71.9857 28.5013 71.9857 29.4038V33.217C71.9857 34.1195 72.6719 34.8512 73.5183 34.8512H77.0945C77.9409 34.8512 78.6272 34.1195 78.6272 33.217ZM66.1105 54.7342V52.5552C66.1105 51.6527 65.4242 50.921 64.5778 50.921H36.9899C36.1435 50.921 35.4573 51.6527 35.4573 52.5552V54.7342C35.4573 55.6367 36.1435 56.3684 36.9899 56.3684H64.5778C65.4242 56.3684 66.1105 55.6367 66.1105 54.7342Z" fill="#FF6D00"/>
</g>
<path d="M10.8336 96V85.434H5.54164V83.04H18.5016V85.434H13.2276V96H10.8336ZM22.2418 96C21.5578 96 20.9698 95.76 20.4778 95.28C19.9978 94.788 19.7578 94.2 19.7578 93.516V88.044C19.7578 87.36 19.9978 86.778 20.4778 86.298C20.9698 85.806 21.5578 85.56 22.2418 85.56H27.8758C28.5598 85.56 29.1418 85.806 29.6218 86.298C30.1138 86.778 30.3598 87.36 30.3598 88.044V91.968H22.1158V93.012C22.1158 93.348 22.1338 93.54 22.1698 93.588C22.2178 93.624 22.4098 93.642 22.7458 93.642H30.3598V96H22.2418ZM22.1158 89.844H28.0018V88.548C28.0018 88.212 27.9778 88.026 27.9298 87.99C27.8938 87.942 27.7078 87.918 27.3718 87.918H22.7458C22.4098 87.918 22.2178 87.942 22.1698 87.99C22.1338 88.026 22.1158 88.212 22.1158 88.548V89.844ZM34.2829 96C33.5989 96 33.0109 95.76 32.5189 95.28C32.0389 94.788 31.7989 94.2 31.7989 93.516V88.044C31.7989 87.36 32.0389 86.778 32.5189 86.298C33.0109 85.806 33.5989 85.56 34.2829 85.56H42.3829V87.918H34.7869C34.4509 87.918 34.2589 87.942 34.2109 87.99C34.1749 88.026 34.1569 88.212 34.1569 88.548V93.012C34.1569 93.348 34.1749 93.54 34.2109 93.588C34.2589 93.624 34.4509 93.642 34.7869 93.642H42.4009V96H34.2829ZM46.8165 96C46.1325 96 45.5445 95.76 45.0525 95.28C44.5725 94.788 44.3325 94.2 44.3325 93.516V82.122H46.7085V93.012C46.7085 93.348 46.7265 93.54 46.7625 93.588C46.8105 93.624 46.9965 93.642 47.3205 93.642H48.9225V96H46.8165ZM52.7579 96C52.0739 96 51.4859 95.76 50.9939 95.28C50.5139 94.788 50.2739 94.2 50.2739 93.516V89.592H58.5179V88.548C58.5179 88.212 58.4939 88.026 58.4459 87.99C58.4099 87.942 58.2239 87.918 57.8879 87.918H50.2739V85.56H58.3919C59.0759 85.56 59.6579 85.806 60.1379 86.298C60.6299 86.778 60.8759 87.36 60.8759 88.044V96H52.7579ZM53.2619 93.642H58.5179V91.716H52.6319V93.012C52.6319 93.348 52.6499 93.54 52.6859 93.588C52.7339 93.624 52.9259 93.642 53.2619 93.642ZM64.7339 96C64.0499 96 63.4619 95.76 62.9699 95.28C62.4899 94.788 62.2499 94.2 62.2499 93.516V88.044C62.2499 87.36 62.4899 86.778 62.9699 86.298C63.4619 85.806 64.0499 85.56 64.7339 85.56H70.5119V82.14H72.8699V96H64.7339ZM65.2559 93.642H69.8819C70.2059 93.642 70.3919 93.624 70.4399 93.588C70.4879 93.54 70.5119 93.348 70.5119 93.012V88.548C70.5119 88.212 70.4879 88.026 70.4399 87.99C70.3919 87.942 70.2059 87.918 69.8819 87.918H65.2559C64.9199 87.918 64.7279 87.942 64.6799 87.99C64.6439 88.026 64.6259 88.212 64.6259 88.548V93.012C64.6259 93.348 64.6439 93.54 64.6799 93.588C64.7279 93.624 64.9199 93.642 65.2559 93.642ZM76.8219 96C76.1379 96 75.5499 95.76 75.0579 95.28C74.5779 94.788 74.3379 94.2 74.3379 93.516V88.044C74.3379 87.36 74.5779 86.778 75.0579 86.298C75.5499 85.806 76.1379 85.56 76.8219 85.56H82.4559C83.1399 85.56 83.7219 85.806 84.2019 86.298C84.6939 86.778 84.9399 87.36 84.9399 88.044V93.516C84.9399 94.2 84.6939 94.788 84.2019 95.28C83.7219 95.76 83.1399 96 82.4559 96H76.8219ZM77.3259 93.642H81.9519C82.2879 93.642 82.4739 93.624 82.5099 93.588C82.5579 93.54 82.5819 93.348 82.5819 93.012V88.548C82.5819 88.212 82.5579 88.026 82.5099 87.99C82.4739 87.942 82.2879 87.918 81.9519 87.918H77.3259C76.9899 87.918 76.7979 87.942 76.7499 87.99C76.7139 88.026 76.6959 88.212 76.6959 88.548V93.012C76.6959 93.348 76.7139 93.54 76.7499 93.588C76.7979 93.624 76.9899 93.642 77.3259 93.642ZM88.8265 96C88.1425 96 87.5545 95.76 87.0625 95.28C86.5825 94.788 86.3425 94.2 86.3425 93.516V93.12H88.7005V93.228C88.7005 93.42 88.7185 93.54 88.7545 93.588C88.8025 93.624 88.9225 93.642 89.1145 93.642H94.1725C94.3525 93.642 94.4665 93.624 94.5145 93.588C94.5625 93.54 94.5865 93.42 94.5865 93.228V92.382C94.5865 92.19 94.5625 92.076 94.5145 92.04C94.4665 91.992 94.3525 91.968 94.1725 91.968H88.8265C88.1425 91.968 87.5545 91.722 87.0625 91.23C86.5825 90.738 86.3425 90.156 86.3425 89.484V88.044C86.3425 87.36 86.5825 86.778 87.0625 86.298C87.5545 85.806 88.1425 85.56 88.8265 85.56H94.4605C95.1445 85.56 95.7325 85.806 96.2245 86.298C96.7165 86.778 96.9625 87.36 96.9625 88.044V88.44H94.5865V88.332C94.5865 88.14 94.5625 88.026 94.5145 87.99C94.4665 87.942 94.3525 87.918 94.1725 87.918H89.1145C88.9225 87.918 88.8025 87.942 88.7545 87.99C88.7185 88.026 88.7005 88.14 88.7005 88.332V89.178C88.7005 89.37 88.7185 89.49 88.7545 89.538C88.8025 89.574 88.9225 89.592 89.1145 89.592H94.4605C95.1445 89.592 95.7325 89.838 96.2245 90.33C96.7165 90.822 96.9625 91.404 96.9625 92.076V93.516C96.9625 94.2 96.7165 94.788 96.2245 95.28C95.7325 95.76 95.1445 96 94.4605 96H88.8265Z" fill="#FF6D00"/>
</g>
<defs>
<filter id="filter0_d" x="0.541992" y="0" width="101.421" height="103" filterUnits="userSpaceOnUse" color-interpolation-filters="sRGB">
<feFlood flood-opacity="0" result="BackgroundImageFix"/>
<feColorMatrix in="SourceAlpha" type="matrix" values="0 0 0 0 0 0 0 0 0 0 0 0 0 0 0 0 0 0 127 0"/>
<feOffset dy="2"/>
<feGaussianBlur stdDeviation="2.5"/>
<feColorMatrix type="matrix" values="0 0 0 0 0.3575 0 0 0 0 0 0 0 0 0 0.704167 0 0 0 1 0"/>
<feBlend mode="normal" in2="BackgroundImageFix" result="effect1_dropShadow"/>
<feBlend mode="normal" in="SourceGraphic" in2="effect1_dropShadow" result="shape"/>
</filter>
<filter id="filter1_d" x="10" y="3" width="83" height="83" filterUnits="userSpaceOnUse" color-interpolation-filters="sRGB">
<feFlood flood-opacity="0" result="BackgroundImageFix"/>
<feColorMatrix in="SourceAlpha" type="matrix" values="0 0 0 0 0 0 0 0 0 0 0 0 0 0 0 0 0 0 127 0"/>
<feOffset dy="4"/>
<feGaussianBlur stdDeviation="2"/>
<feColorMatrix type="matrix" values="0 0 0 0 0 0 0 0 0 0 0 0 0 0 0 0 0 0 0.25 0"/>
<feBlend mode="normal" in2="BackgroundImageFix" result="effect1_dropShadow"/>
<feBlend mode="normal" in="SourceGraphic" in2="effect1_dropShadow" result="shape"/>
</filter>
</defs>
</svg>
