<svg width="29" height="29" viewBox="0 0 29 29" fill="none" xmlns="http://www.w3.org/2000/svg">
<g filter="url(#filter0_d)">
<path d="M22.8317 7.37305C22.6029 5.28971 21.6961 3.54004 20.1113 2.12402C18.5265 0.708008 16.672 0 14.548 0C12.424 0 10.5696 0.708008 8.98474 2.12402C7.39989 3.54004 6.4931 5.28971 6.26436 7.37305C5.02263 7.60091 4.00147 8.13802 3.20088 8.98438C2.40029 9.83073 2 10.8236 2 11.9629C2 13.265 2.5065 14.3717 3.51949 15.2832C4.53248 16.1947 5.77421 16.6504 7.24468 16.6504H8.27401V8.34961C8.27401 6.62435 8.8867 5.15137 10.1121 3.93066C11.3375 2.70996 12.8161 2.09961 14.548 2.09961C16.2799 2.09961 17.7585 2.70996 18.9839 3.93066C20.2093 5.15137 20.822 6.62435 20.822 8.34961V15.625C20.822 18.4245 19.711 20.1335 17.489 20.752C16.8681 19.4173 15.8878 18.75 14.548 18.75C13.6657 18.75 12.9223 19.0511 12.3178 19.6533C11.7133 20.2555 11.411 20.9961 11.411 21.875C11.411 22.7539 11.7133 23.4945 12.3178 24.0967C12.9223 24.6989 13.6657 25 14.548 25C15.2342 25 15.8551 24.7965 16.4106 24.3896C16.9661 23.9827 17.3256 23.4538 17.489 22.8027C18.8941 22.5098 20.0378 21.9238 20.9201 21.0449C22.0638 19.9056 22.701 18.4082 22.8317 16.5527C24.0407 16.3574 25.0374 15.8285 25.8216 14.9658C26.6059 14.1032 26.998 13.1022 26.998 11.9629C27.0307 10.8236 26.6631 9.83073 25.8951 8.98438C25.1272 8.13802 24.1061 7.60091 22.8317 7.37305ZM6.16633 14.502C5.54547 14.3392 5.04714 14.0218 4.67135 13.5498C4.29557 13.0778 4.10767 12.5488 4.10767 11.9629C4.10767 10.791 4.79389 9.96094 6.16633 9.47266V14.502ZM14.548 22.9004C13.8618 22.9004 13.5187 22.5586 13.5187 21.875C13.5187 21.1914 13.8618 20.8496 14.548 20.8496C15.2342 20.8496 15.5773 21.1914 15.5773 21.875C15.5773 22.5586 15.2342 22.9004 14.548 22.9004ZM22.9297 14.502V9.47266C23.5506 9.63542 24.0489 9.9528 24.4247 10.4248C24.8005 10.8968 24.9884 11.4095 24.9884 11.9629C24.9884 13.1673 24.3021 14.0137 22.9297 14.502Z" fill="#FF6D00"/>
</g>
<g filter="url(#filter1_d)">
<path d="M18.3556 11.9326L18.4196 11.9946L14.3932 8.14824C14.3103 8.06778 14.1635 8.06318 14.0663 8.13675L12.7092 9.13916C12.6097 9.21273 12.6003 9.33918 12.6832 9.41965L14.2961 10.898C14.3813 10.9784 14.5306 10.983 14.6277 10.9095L14.63 10.9072C14.7271 10.8336 14.8764 10.8382 14.9616 10.9187L16.9511 12.7878C17.0364 12.8683 17.0269 12.9948 16.9298 13.0683L14.7224 14.7697C14.6229 14.8455 14.4737 14.8409 14.3861 14.7605L10.7884 11.3693C10.7055 11.2888 10.5587 11.2842 10.4592 11.3578L9.37445 12.1602C9.27497 12.2338 9.26313 12.3602 9.34603 12.4407L14.289 16.9492C14.289 16.9492 14.4642 17.1056 14.6987 16.9308L19.3882 13.1626C19.483 13.089 19.4925 12.9626 19.4048 12.8821L18.3556 11.9326ZM19.6464 10.0151L14.6608 5.26516C14.6253 5.23758 14.4713 5.13871 14.2748 5.29046L9.37682 9.01731C9.27734 9.09088 9.26313 9.21733 9.34839 9.2978L10.3502 10.2565L14.4169 14.0524C14.5045 14.1328 14.6561 14.1374 14.7556 14.0615L15.9445 13.1695L15.9374 13.1626L16.1198 13.0246C16.2193 12.9511 16.2287 12.8246 16.1411 12.7442L14.7887 11.4934C14.7035 11.413 14.5519 11.4084 14.4524 11.4819L14.45 11.4842C14.3506 11.5578 14.2013 11.5555 14.1137 11.4751L11.8732 9.36447C11.7879 9.284 11.7997 9.15985 11.8992 9.08398L14.0829 7.44012C14.18 7.36655 14.3269 7.37115 14.4121 7.45162L18.2111 11.1072C18.2988 11.1877 18.448 11.1923 18.5451 11.1187L19.6298 10.2956C19.7269 10.222 19.734 10.0956 19.6464 10.0151Z" fill="#FF6D00"/>
</g>
<defs>
<filter id="filter0_d" x="0" y="0" width="29" height="29" filterUnits="userSpaceOnUse" color-interpolation-filters="sRGB">
<feFlood flood-opacity="0" result="BackgroundImageFix"/>
<feColorMatrix in="SourceAlpha" type="matrix" values="0 0 0 0 0 0 0 0 0 0 0 0 0 0 0 0 0 0 127 0"/>
<feOffset dy="2"/>
<feGaussianBlur stdDeviation="1"/>
<feColorMatrix type="matrix" values="0 0 0 0 0.3575 0 0 0 0 0 0 0 0 0 0.704167 0 0 0 1 0"/>
<feBlend mode="normal" in2="BackgroundImageFix" result="effect1_dropShadow"/>
<feBlend mode="normal" in="SourceGraphic" in2="effect1_dropShadow" result="shape"/>
</filter>
<filter id="filter1_d" x="7.29102" y="5.20801" width="14.4167" height="15.8056" filterUnits="userSpaceOnUse" color-interpolation-filters="sRGB">
<feFlood flood-opacity="0" result="BackgroundImageFix"/>
<feColorMatrix in="SourceAlpha" type="matrix" values="0 0 0 0 0 0 0 0 0 0 0 0 0 0 0 0 0 0 127 0"/>
<feOffset dy="2"/>
<feGaussianBlur stdDeviation="1"/>
<feColorMatrix type="matrix" values="0 0 0 0 0.3575 0 0 0 0 0 0 0 0 0 0.704167 0 0 0 1 0"/>
<feBlend mode="normal" in2="BackgroundImageFix" result="effect1_dropShadow"/>
<feBlend mode="normal" in="SourceGraphic" in2="effect1_dropShadow" result="shape"/>
</filter>
</defs>
</svg>
