<svg width="25" height="25" viewBox="0 0 25 25" fill="none" xmlns="http://www.w3.org/2000/svg">
<path d="M12.5 2.08301C9.62812 2.08301 7.29167 4.41947 7.29167 7.29134C7.29167 10.1632 9.62812 12.4997 12.5 12.4997C15.3719 12.4997 17.7083 10.1632 17.7083 7.29134C17.7083 4.41947 15.3719 2.08301 12.5 2.08301ZM12.5 10.4163C10.7771 10.4163 9.375 9.01426 9.375 7.29134C9.375 5.56842 10.7771 4.16634 12.5 4.16634C14.2229 4.16634 15.625 5.56842 15.625 7.29134C15.625 9.01426 14.2229 10.4163 12.5 10.4163ZM21.875 21.8747V20.833C21.875 16.8132 18.6031 13.5413 14.5833 13.5413H10.4167C6.39583 13.5413 3.125 16.8132 3.125 20.833V21.8747H5.20833V20.833C5.20833 17.9611 7.54479 15.6247 10.4167 15.6247H14.5833C17.4552 15.6247 19.7917 17.9611 19.7917 20.833V21.8747H21.875Z" fill="#FF6D00"/>
</svg>
