<svg width="25" height="25" viewBox="0 0 25 25" fill="none" xmlns="http://www.w3.org/2000/svg">
<path d="M22.7309 7.74062C22.5361 7.45937 22.2163 7.29167 21.8747 7.29167H7.63822L6.43613 4.40625C6.11113 3.62708 5.35697 3.125 4.51322 3.125H2.08301V5.20833H4.51322L9.45488 17.0677C9.61634 17.4552 9.99551 17.7083 10.4163 17.7083H18.7497C19.184 17.7083 19.5726 17.4385 19.7257 17.0333L22.8507 8.7C22.9705 8.37917 22.9257 8.02083 22.7309 7.74062ZM18.0278 15.625H11.1111L8.50697 9.375H20.3715L18.0278 15.625Z" fill="#FF6D00"/>
<path d="M10.9375 21.875C11.8004 21.875 12.5 21.1754 12.5 20.3125C12.5 19.4496 11.8004 18.75 10.9375 18.75C10.0746 18.75 9.375 19.4496 9.375 20.3125C9.375 21.1754 10.0746 21.875 10.9375 21.875Z" fill="#FF6D00"/>
<path d="M18.2295 21.875C19.0924 21.875 19.792 21.1754 19.792 20.3125C19.792 19.4496 19.0924 18.75 18.2295 18.75C17.3665 18.75 16.667 19.4496 16.667 20.3125C16.667 21.1754 17.3665 21.875 18.2295 21.875Z" fill="#FF6D00"/>
</svg>
