<svg width="40" height="40" viewBox="0 0 40 40" fill="none" xmlns="http://www.w3.org/2000/svg">
<path d="M16.6663 29.9997C19.743 29.9997 22.5713 28.9413 24.828 27.1863L32.1547 34.513L34.5113 32.1563L27.1847 24.8297C28.9413 22.5713 29.9997 19.743 29.9997 16.6663C29.9997 9.31467 24.018 3.33301 16.6663 3.33301C9.31468 3.33301 3.33301 9.31467 3.33301 16.6663C3.33301 24.018 9.31468 29.9997 16.6663 29.9997ZM16.6663 6.66634C22.1813 6.66634 26.6663 11.1513 26.6663 16.6663C26.6663 22.1813 22.1813 26.6663 16.6663 26.6663C11.1513 26.6663 6.66634 22.1813 6.66634 16.6663C6.66634 11.1513 11.1513 6.66634 16.6663 6.66634Z" fill="#FF6D00"/>
</svg>
