<svg width="84" height="55" viewBox="0 0 84 55" fill="none" xmlns="http://www.w3.org/2000/svg">
<g clip-path="url(#clip0)" filter="url(#filter0_d)">
<g filter="url(#filter1_d)">
<path d="M40.5 32.1562V30.5178C38.0008 30.1489 35.7155 28.8732 34.0626 26.9244C32.4097 24.9755 31.5 22.484 31.5 19.9062V12.25C31.5 10.8424 31.7716 9.44857 32.2993 8.14811C32.8269 6.84765 33.6004 5.66603 34.5754 4.6707C35.5504 3.67537 36.7079 2.88583 37.9818 2.34717C39.2557 1.8085 40.6211 1.53125 42 1.53125C43.3789 1.53125 44.7443 1.8085 46.0182 2.34717C47.2921 2.88583 48.4496 3.67537 49.4246 4.6707C50.3996 5.66603 51.1731 6.84765 51.7007 8.14811C52.2284 9.44857 52.5 10.8424 52.5 12.25V19.9062C52.5 22.484 51.5903 24.9755 49.9374 26.9244C48.2845 28.8732 45.9992 30.1489 43.5 30.5178V32.1562H49.5V35.2187H34.5V32.1562H40.5ZM42 4.59375C40.0109 4.59375 38.1032 5.40039 36.6967 6.83621C35.2902 8.27204 34.5 10.2194 34.5 12.25V19.9062C34.5 21.9368 35.2902 23.8842 36.6967 25.32C38.1032 26.7559 40.0109 27.5625 42 27.5625C43.9891 27.5625 45.8968 26.7559 47.3033 25.32C48.7098 23.8842 49.5 21.9368 49.5 19.9062V12.25C49.5 10.2194 48.7098 8.27204 47.3033 6.83621C45.8968 5.40039 43.9891 4.59375 42 4.59375ZM42 13.7812C42.3978 13.7812 42.7794 13.6199 43.0607 13.3328C43.342 13.0456 43.5 12.6561 43.5 12.25C43.5 11.8439 43.342 11.4544 43.0607 11.1672C42.7794 10.8801 42.3978 10.7187 42 10.7187C41.6022 10.7187 41.2206 10.8801 40.9393 11.1672C40.658 11.4544 40.5 11.8439 40.5 12.25C40.5 12.6561 40.658 13.0456 40.9393 13.3328C41.2206 13.6199 41.6022 13.7812 42 13.7812ZM42 16.8437C40.8065 16.8437 39.6619 16.3598 38.818 15.4983C37.9741 14.6368 37.5 13.4683 37.5 12.25C37.5 11.0317 37.9741 9.86322 38.818 9.00173C39.6619 8.14023 40.8065 7.65625 42 7.65625C43.1935 7.65625 44.3381 8.14023 45.182 9.00173C46.0259 9.86322 46.5 11.0317 46.5 12.25C46.5 13.4683 46.0259 14.6368 45.182 15.4983C44.3381 16.3598 43.1935 16.8437 42 16.8437Z" fill="#FF6D00"/>
</g>
</g>
<g filter="url(#filter2_d)">
<path d="M9.76884 47.7295C9.31284 47.7295 8.92084 47.5655 8.59284 47.2375C8.26484 46.9095 8.10084 46.5175 8.10084 46.0615V45.4015H9.68484V45.7135C9.68484 45.9375 9.69684 46.0655 9.72084 46.0975C9.75284 46.1215 9.88084 46.1335 10.1048 46.1335H14.7248C14.9488 46.1335 15.0728 46.1215 15.0968 46.0975C15.1288 46.0655 15.1448 45.9375 15.1448 45.7135V44.6215C15.1448 44.3975 15.1288 44.2735 15.0968 44.2495C15.0728 44.2175 14.9488 44.2015 14.7248 44.2015H9.76884C9.31284 44.2015 8.92084 44.0375 8.59284 43.7095C8.26484 43.3815 8.10084 42.9895 8.10084 42.5335V40.7575C8.10084 40.3015 8.26484 39.9095 8.59284 39.5815C8.92084 39.2535 9.31284 39.0895 9.76884 39.0895H15.0728C15.5288 39.0895 15.9208 39.2535 16.2488 39.5815C16.5768 39.9095 16.7408 40.3015 16.7408 40.7575V41.4175H15.1448V41.1055C15.1448 40.8815 15.1288 40.7575 15.0968 40.7335C15.0728 40.7015 14.9488 40.6855 14.7248 40.6855H10.1048C9.88084 40.6855 9.75284 40.7015 9.72084 40.7335C9.69684 40.7575 9.68484 40.8815 9.68484 41.1055V42.1975C9.68484 42.4215 9.69684 42.5455 9.72084 42.5695C9.75284 42.5935 9.88084 42.6055 10.1048 42.6055H15.0728C15.5288 42.6055 15.9208 42.7735 16.2488 43.1095C16.5768 43.4375 16.7408 43.8295 16.7408 44.2855V46.0615C16.7408 46.5175 16.5768 46.9095 16.2488 47.2375C15.9208 47.5655 15.5288 47.7295 15.0728 47.7295H9.76884ZM19.6709 47.7295C19.2149 47.7295 18.8229 47.5695 18.4949 47.2495C18.1749 46.9215 18.0149 46.5295 18.0149 46.0735V38.6335H19.5869V40.7695H22.2989V42.3415H19.5869V45.7375C19.5869 45.9615 19.5989 46.0895 19.6229 46.1215C19.6549 46.1455 19.7829 46.1575 20.0069 46.1575H22.2989V47.7295H19.6709ZM23.3467 47.7295V42.4255C23.3467 41.9695 23.5067 41.5815 23.8267 41.2615C24.1547 40.9335 24.5467 40.7695 25.0027 40.7695H28.8667V42.3415H25.3387C25.1147 42.3415 24.9867 42.3575 24.9547 42.3895C24.9307 42.4135 24.9187 42.5375 24.9187 42.7615V47.7295H23.3467ZM31.3422 47.7295C30.8862 47.7295 30.4942 47.5695 30.1662 47.2495C29.8462 46.9215 29.6862 46.5295 29.6862 46.0735V42.4255C29.6862 41.9695 29.8462 41.5815 30.1662 41.2615C30.4942 40.9335 30.8862 40.7695 31.3422 40.7695H35.0982C35.5542 40.7695 35.9422 40.9335 36.2622 41.2615C36.5902 41.5815 36.7542 41.9695 36.7542 42.4255V45.0415H31.2582V45.7375C31.2582 45.9615 31.2702 46.0895 31.2942 46.1215C31.3262 46.1455 31.4542 46.1575 31.6782 46.1575H36.7542V47.7295H31.3422ZM31.2582 43.6255H35.1822V42.7615C35.1822 42.5375 35.1662 42.4135 35.1342 42.3895C35.1102 42.3575 34.9862 42.3415 34.7622 42.3415H31.6782C31.4542 42.3415 31.3262 42.3575 31.2942 42.3895C31.2702 42.4135 31.2582 42.5375 31.2582 42.7615V43.6255ZM39.6628 47.7295C39.2068 47.7295 38.8148 47.5695 38.4868 47.2495C38.1668 46.9215 38.0068 46.5295 38.0068 46.0735V43.4575H43.5028V42.7615C43.5028 42.5375 43.4868 42.4135 43.4548 42.3895C43.4308 42.3575 43.3068 42.3415 43.0828 42.3415H38.0068V40.7695H43.4188C43.8748 40.7695 44.2628 40.9335 44.5828 41.2615C44.9108 41.5815 45.0748 41.9695 45.0748 42.4255V47.7295H39.6628ZM39.9988 46.1575H43.5028V44.8735H39.5788V45.7375C39.5788 45.9615 39.5908 46.0895 39.6148 46.1215C39.6468 46.1455 39.7748 46.1575 39.9988 46.1575ZM46.0464 47.7295V40.7695H54.6744C55.1304 40.7695 55.5184 40.9335 55.8384 41.2615C56.1664 41.5815 56.3304 41.9695 56.3304 42.4255V47.7295H54.7704V42.7615C54.7704 42.5375 54.7544 42.4135 54.7224 42.3895C54.6904 42.3575 54.5664 42.3415 54.3504 42.3415H52.4064C52.1824 42.3415 52.0544 42.3575 52.0224 42.3895C51.9984 42.4135 51.9864 42.5375 51.9864 42.7615V47.7295H50.4024V42.7615C50.4024 42.5375 50.3864 42.4135 50.3544 42.3895C50.3304 42.3575 50.2064 42.3415 49.9824 42.3415H48.0384C47.8144 42.3415 47.6864 42.3575 47.6544 42.3895C47.6304 42.4135 47.6184 42.5375 47.6184 42.7615V47.7295H46.0464ZM57.7529 47.7295V40.7695H59.3249V47.7295H57.7529ZM57.7529 40.0735V38.4895H59.3249V40.0735H57.7529ZM60.7183 47.7295V40.7695H66.1303C66.5863 40.7695 66.9743 40.9335 67.2943 41.2615C67.6223 41.5815 67.7863 41.9695 67.7863 42.4255V47.7295H66.2143V42.7615C66.2143 42.5375 66.1983 42.4135 66.1663 42.3895C66.1423 42.3575 66.0183 42.3415 65.7943 42.3415H62.7103C62.4863 42.3415 62.3583 42.3575 62.3263 42.3895C62.3023 42.4135 62.2903 42.5375 62.2903 42.7615V47.7295H60.7183ZM69.9998 50.4775V48.8935H73.9238C74.1398 48.8935 74.2598 48.8775 74.2838 48.8455C74.3158 48.8215 74.3318 48.6975 74.3318 48.4735V47.7295H70.4918C70.0358 47.7295 69.6438 47.5695 69.3158 47.2495C68.9958 46.9215 68.8358 46.5295 68.8358 46.0735V42.4255C68.8358 41.9695 68.9958 41.5815 69.3158 41.2615C69.6438 40.9335 70.0358 40.7695 70.4918 40.7695H74.2598C74.7158 40.7695 75.1038 40.9335 75.4238 41.2615C75.7438 41.5815 75.9038 41.9695 75.9038 42.4255V48.8215C75.9038 49.2775 75.7438 49.6655 75.4238 49.9855C75.1038 50.3135 74.7158 50.4775 74.2598 50.4775H69.9998ZM70.8278 46.1575H73.9238C74.1398 46.1575 74.2598 46.1455 74.2838 46.1215C74.3158 46.0895 74.3318 45.9615 74.3318 45.7375V42.7615C74.3318 42.5375 74.3158 42.4135 74.2838 42.3895C74.2598 42.3575 74.1398 42.3415 73.9238 42.3415H70.8278C70.6038 42.3415 70.4758 42.3575 70.4438 42.3895C70.4198 42.4135 70.4078 42.5375 70.4078 42.7615V45.7375C70.4078 45.9615 70.4198 46.0895 70.4438 46.1215C70.4758 46.1455 70.6038 46.1575 70.8278 46.1575Z" fill="#FF6D00"/>
</g>
<defs>
<filter id="filter0_d" x="20" y="0" width="44" height="44.75" filterUnits="userSpaceOnUse" color-interpolation-filters="sRGB">
<feFlood flood-opacity="0" result="BackgroundImageFix"/>
<feColorMatrix in="SourceAlpha" type="matrix" values="0 0 0 0 0 0 0 0 0 0 0 0 0 0 0 0 0 0 127 0"/>
<feOffset dy="4"/>
<feGaussianBlur stdDeviation="2"/>
<feColorMatrix type="matrix" values="0 0 0 0 0 0 0 0 0 0 0 0 0 0 0 0 0 0 0.25 0"/>
<feBlend mode="normal" in2="BackgroundImageFix" result="effect1_dropShadow"/>
<feBlend mode="normal" in="SourceGraphic" in2="effect1_dropShadow" result="shape"/>
</filter>
<filter id="filter1_d" x="29.5" y="1.53125" width="25" height="37.6875" filterUnits="userSpaceOnUse" color-interpolation-filters="sRGB">
<feFlood flood-opacity="0" result="BackgroundImageFix"/>
<feColorMatrix in="SourceAlpha" type="matrix" values="0 0 0 0 0 0 0 0 0 0 0 0 0 0 0 0 0 0 127 0"/>
<feOffset dy="2"/>
<feGaussianBlur stdDeviation="1"/>
<feColorMatrix type="matrix" values="0 0 0 0 0.3575 0 0 0 0 0 0 0 0 0 0.704167 0 0 0 1 0"/>
<feBlend mode="normal" in2="BackgroundImageFix" result="effect1_dropShadow"/>
<feBlend mode="normal" in="SourceGraphic" in2="effect1_dropShadow" result="shape"/>
</filter>
<filter id="filter2_d" x="6.10059" y="38.4893" width="71.8029" height="15.988" filterUnits="userSpaceOnUse" color-interpolation-filters="sRGB">
<feFlood flood-opacity="0" result="BackgroundImageFix"/>
<feColorMatrix in="SourceAlpha" type="matrix" values="0 0 0 0 0 0 0 0 0 0 0 0 0 0 0 0 0 0 127 0"/>
<feOffset dy="2"/>
<feGaussianBlur stdDeviation="1"/>
<feColorMatrix type="matrix" values="0 0 0 0 0.3575 0 0 0 0 0 0 0 0 0 0.704167 0 0 0 1 0"/>
<feBlend mode="normal" in2="BackgroundImageFix" result="effect1_dropShadow"/>
<feBlend mode="normal" in="SourceGraphic" in2="effect1_dropShadow" result="shape"/>
</filter>
<clipPath id="clip0">
<rect width="36" height="36.75" fill="white" transform="translate(24)"/>
</clipPath>
</defs>
</svg>
