<svg width="88" height="55" viewBox="0 0 88 55" fill="none" xmlns="http://www.w3.org/2000/svg">
<g filter="url(#filter0_d)">
<path d="M2.98869 48V39.36H4.57269V42.876H10.2367V39.36H11.8207V48H10.2367V44.472H4.57269V48H2.98869ZM14.7797 48C14.3237 48 13.9317 47.84 13.6037 47.52C13.2837 47.192 13.1237 46.8 13.1237 46.344V42.696C13.1237 42.24 13.2837 41.852 13.6037 41.532C13.9317 41.204 14.3237 41.04 14.7797 41.04H18.5357C18.9917 41.04 19.3797 41.204 19.6997 41.532C20.0277 41.852 20.1917 42.24 20.1917 42.696V45.312H14.6957V46.008C14.6957 46.232 14.7077 46.36 14.7317 46.392C14.7637 46.416 14.8917 46.428 15.1157 46.428H20.1917V48H14.7797ZM14.6957 43.896H18.6197V43.032C18.6197 42.808 18.6037 42.684 18.5717 42.66C18.5477 42.628 18.4237 42.612 18.1997 42.612H15.1157C14.8917 42.612 14.7637 42.628 14.7317 42.66C14.7077 42.684 14.6957 42.808 14.6957 43.032V43.896ZM23.1003 48C22.6443 48 22.2523 47.84 21.9243 47.52C21.6043 47.192 21.4443 46.8 21.4443 46.344V43.728H26.9403V43.032C26.9403 42.808 26.9243 42.684 26.8923 42.66C26.8683 42.628 26.7443 42.612 26.5203 42.612H21.4443V41.04H26.8563C27.3123 41.04 27.7003 41.204 28.0203 41.532C28.3483 41.852 28.5123 42.24 28.5123 42.696V48H23.1003ZM23.4363 46.428H26.9403V45.144H23.0163V46.008C23.0163 46.232 23.0283 46.36 23.0523 46.392C23.0843 46.416 23.2123 46.428 23.4363 46.428ZM31.0843 48C30.6283 48 30.2363 47.84 29.9083 47.52C29.5883 47.192 29.4283 46.8 29.4283 46.344V42.696C29.4283 42.24 29.5883 41.852 29.9083 41.532C30.2363 41.204 30.6283 41.04 31.0843 41.04H34.9363V38.76H36.5083V48H31.0843ZM31.4323 46.428H34.5163C34.7323 46.428 34.8563 46.416 34.8883 46.392C34.9203 46.36 34.9363 46.232 34.9363 46.008V43.032C34.9363 42.808 34.9203 42.684 34.8883 42.66C34.8563 42.628 34.7323 42.612 34.5163 42.612H31.4323C31.2083 42.612 31.0803 42.628 31.0483 42.66C31.0243 42.684 31.0123 42.808 31.0123 43.032V46.008C31.0123 46.232 31.0243 46.36 31.0483 46.392C31.0803 46.416 31.2083 46.428 31.4323 46.428ZM37.8043 50.76V41.04H43.2162C43.6723 41.04 44.0603 41.204 44.3803 41.532C44.7083 41.852 44.8723 42.24 44.8723 42.696V46.344C44.8723 46.8 44.7083 47.192 44.3803 47.52C44.0603 47.84 43.6723 48 43.2162 48H39.3763V50.76H37.8043ZM39.7963 46.428H42.8803C43.1043 46.428 43.2283 46.416 43.2523 46.392C43.2843 46.36 43.3003 46.232 43.3003 46.008V43.032C43.3003 42.808 43.2843 42.684 43.2523 42.66C43.2283 42.628 43.1043 42.612 42.8803 42.612H39.7963C39.5723 42.612 39.4443 42.628 39.4123 42.66C39.3883 42.684 39.3763 42.808 39.3763 43.032V46.008C39.3763 46.232 39.3883 46.36 39.4123 46.392C39.4443 46.416 39.5723 46.428 39.7963 46.428ZM45.773 48V38.76H47.345V41.04H51.185C51.633 41.04 52.021 41.204 52.349 41.532C52.677 41.852 52.841 42.24 52.841 42.696V48H51.269V43.032C51.269 42.808 51.253 42.684 51.221 42.66C51.197 42.628 51.073 42.612 50.849 42.612H47.765C47.541 42.612 47.413 42.628 47.381 42.66C47.357 42.684 47.345 42.808 47.345 43.032V48H45.773ZM55.4086 48C54.9526 48 54.5606 47.84 54.2326 47.52C53.9126 47.192 53.7526 46.8 53.7526 46.344V42.696C53.7526 42.24 53.9126 41.852 54.2326 41.532C54.5606 41.204 54.9526 41.04 55.4086 41.04H59.1646C59.6206 41.04 60.0086 41.204 60.3286 41.532C60.6566 41.852 60.8206 42.24 60.8206 42.696V46.344C60.8206 46.8 60.6566 47.192 60.3286 47.52C60.0086 47.84 59.6206 48 59.1646 48H55.4086ZM55.7446 46.428H58.8286C59.0526 46.428 59.1766 46.416 59.2006 46.392C59.2326 46.36 59.2486 46.232 59.2486 46.008V43.032C59.2486 42.808 59.2326 42.684 59.2006 42.66C59.1766 42.628 59.0526 42.612 58.8286 42.612H55.7446C55.5206 42.612 55.3926 42.628 55.3606 42.66C55.3366 42.684 55.3246 42.808 55.3246 43.032V46.008C55.3246 46.232 55.3366 46.36 55.3606 46.392C55.3926 46.416 55.5206 46.428 55.7446 46.428ZM61.7925 48V41.04H67.2045C67.6605 41.04 68.0485 41.204 68.3685 41.532C68.6965 41.852 68.8605 42.24 68.8605 42.696V48H67.2885V43.032C67.2885 42.808 67.2725 42.684 67.2405 42.66C67.2165 42.628 67.0925 42.612 66.8685 42.612H63.7845C63.5605 42.612 63.4325 42.628 63.4005 42.66C63.3765 42.684 63.3645 42.808 63.3645 43.032V48H61.7925ZM71.5102 48C71.0542 48 70.6622 47.84 70.3342 47.52C70.0142 47.192 69.8542 46.8 69.8542 46.344V42.696C69.8542 42.24 70.0142 41.852 70.3342 41.532C70.6622 41.204 71.0542 41.04 71.5102 41.04H75.2662C75.7222 41.04 76.1102 41.204 76.4302 41.532C76.7582 41.852 76.9222 42.24 76.9222 42.696V45.312H71.4262V46.008C71.4262 46.232 71.4382 46.36 71.4622 46.392C71.4942 46.416 71.6222 46.428 71.8462 46.428H76.9222V48H71.5102ZM71.4262 43.896H75.3502V43.032C75.3502 42.808 75.3342 42.684 75.3022 42.66C75.2782 42.628 75.1542 42.612 74.9302 42.612H71.8462C71.6222 42.612 71.4942 42.628 71.4622 42.66C71.4382 42.684 71.4262 42.808 71.4262 43.032V43.896ZM79.7008 48C79.2448 48 78.8528 47.84 78.5248 47.52C78.2048 47.192 78.0448 46.8 78.0448 46.344V46.08H79.6168V46.152C79.6168 46.28 79.6288 46.36 79.6528 46.392C79.6848 46.416 79.7648 46.428 79.8928 46.428H83.2648C83.3848 46.428 83.4608 46.416 83.4928 46.392C83.5248 46.36 83.5408 46.28 83.5408 46.152V45.588C83.5408 45.46 83.5248 45.384 83.4928 45.36C83.4608 45.328 83.3848 45.312 83.2648 45.312H79.7008C79.2448 45.312 78.8528 45.148 78.5248 44.82C78.2048 44.492 78.0448 44.104 78.0448 43.656V42.696C78.0448 42.24 78.2048 41.852 78.5248 41.532C78.8528 41.204 79.2448 41.04 79.7008 41.04H83.4568C83.9128 41.04 84.3048 41.204 84.6328 41.532C84.9608 41.852 85.1248 42.24 85.1248 42.696V42.96H83.5408V42.888C83.5408 42.76 83.5248 42.684 83.4928 42.66C83.4608 42.628 83.3848 42.612 83.2648 42.612H79.8928C79.7648 42.612 79.6848 42.628 79.6528 42.66C79.6288 42.684 79.6168 42.76 79.6168 42.888V43.452C79.6168 43.58 79.6288 43.66 79.6528 43.692C79.6848 43.716 79.7648 43.728 79.8928 43.728H83.4568C83.9128 43.728 84.3048 43.892 84.6328 44.22C84.9608 44.548 85.1248 44.936 85.1248 45.384V46.344C85.1248 46.8 84.9608 47.192 84.6328 47.52C84.3048 47.84 83.9128 48 83.4568 48H79.7008Z" fill="#FF6D00"/>
</g>
<g clip-path="url(#clip0)" filter="url(#filter1_d)">
<g filter="url(#filter2_d)">
<path d="M56.0469 19.77V16.5C56.0469 13.3174 54.7826 10.2652 52.5322 8.01472C50.2817 5.76428 47.2295 4.5 44.0469 4.5C40.8643 4.5 37.812 5.76428 35.5616 8.01472C33.3112 10.2652 32.0469 13.3174 32.0469 16.5V19.77C31.1716 20.0795 30.4134 20.6521 29.8763 21.4094C29.3392 22.1667 29.0495 23.0716 29.0469 24V27C29.0469 28.1935 29.521 29.3381 30.3649 30.182C31.2088 31.0259 32.3534 31.5 33.5469 31.5H38.0469C38.4447 31.5 38.8262 31.342 39.1075 31.0607C39.3888 30.7794 39.5469 30.3978 39.5469 30V21C39.5469 20.6022 39.3888 20.2206 39.1075 19.9393C38.8262 19.658 38.4447 19.5 38.0469 19.5H35.0469V16.5C35.0469 14.1131 35.9951 11.8239 37.6829 10.136C39.3707 8.44821 41.6599 7.5 44.0469 7.5C46.4338 7.5 48.723 8.44821 50.4108 10.136C52.0987 11.8239 53.0469 14.1131 53.0469 16.5V19.5H50.0469C49.649 19.5 49.2675 19.658 48.9862 19.9393C48.7049 20.2206 48.5469 20.6022 48.5469 21V30C48.5469 30.3978 48.7049 30.7794 48.9862 31.0607C49.2675 31.342 49.649 31.5 50.0469 31.5H54.5469C55.7403 31.5 56.8849 31.0259 57.7289 30.182C58.5728 29.3381 59.0469 28.1935 59.0469 27V24C59.0443 23.0716 58.7546 22.1667 58.2175 21.4094C57.6804 20.6521 56.9222 20.0795 56.0469 19.77ZM36.5469 22.5V28.5H33.5469C33.149 28.5 32.7675 28.342 32.4862 28.0607C32.2049 27.7794 32.0469 27.3978 32.0469 27V24C32.0469 23.6022 32.2049 23.2206 32.4862 22.9393C32.7675 22.658 33.149 22.5 33.5469 22.5H36.5469ZM56.0469 27C56.0469 27.3978 55.8888 27.7794 55.6075 28.0607C55.3262 28.342 54.9447 28.5 54.5469 28.5H51.5469V22.5H54.5469C54.9447 22.5 55.3262 22.658 55.6075 22.9393C55.8888 23.2206 56.0469 23.6022 56.0469 24V27Z" fill="#FF6D00"/>
</g>
</g>
<defs>
<filter id="filter0_d" x="0.988281" y="38.7598" width="86.1361" height="16" filterUnits="userSpaceOnUse" color-interpolation-filters="sRGB">
<feFlood flood-opacity="0" result="BackgroundImageFix"/>
<feColorMatrix in="SourceAlpha" type="matrix" values="0 0 0 0 0 0 0 0 0 0 0 0 0 0 0 0 0 0 127 0"/>
<feOffset dy="2"/>
<feGaussianBlur stdDeviation="1"/>
<feColorMatrix type="matrix" values="0 0 0 0 0.3575 0 0 0 0 0 0 0 0 0 0.704167 0 0 0 1 0"/>
<feBlend mode="normal" in2="BackgroundImageFix" result="effect1_dropShadow"/>
<feBlend mode="normal" in="SourceGraphic" in2="effect1_dropShadow" result="shape"/>
</filter>
<filter id="filter1_d" x="21.9873" y="0" width="44" height="44" filterUnits="userSpaceOnUse" color-interpolation-filters="sRGB">
<feFlood flood-opacity="0" result="BackgroundImageFix"/>
<feColorMatrix in="SourceAlpha" type="matrix" values="0 0 0 0 0 0 0 0 0 0 0 0 0 0 0 0 0 0 127 0"/>
<feOffset dy="4"/>
<feGaussianBlur stdDeviation="2"/>
<feColorMatrix type="matrix" values="0 0 0 0 0 0 0 0 0 0 0 0 0 0 0 0 0 0 0.25 0"/>
<feBlend mode="normal" in2="BackgroundImageFix" result="effect1_dropShadow"/>
<feBlend mode="normal" in="SourceGraphic" in2="effect1_dropShadow" result="shape"/>
</filter>
<filter id="filter2_d" x="27.0469" y="4.5" width="34" height="31" filterUnits="userSpaceOnUse" color-interpolation-filters="sRGB">
<feFlood flood-opacity="0" result="BackgroundImageFix"/>
<feColorMatrix in="SourceAlpha" type="matrix" values="0 0 0 0 0 0 0 0 0 0 0 0 0 0 0 0 0 0 127 0"/>
<feOffset dy="2"/>
<feGaussianBlur stdDeviation="1"/>
<feColorMatrix type="matrix" values="0 0 0 0 0.3575 0 0 0 0 0 0 0 0 0 0.704167 0 0 0 1 0"/>
<feBlend mode="normal" in2="BackgroundImageFix" result="effect1_dropShadow"/>
<feBlend mode="normal" in="SourceGraphic" in2="effect1_dropShadow" result="shape"/>
</filter>
<clipPath id="clip0">
<rect width="36" height="36" fill="white" transform="translate(25.9873)"/>
</clipPath>
</defs>
</svg>
