<svg width="94" height="61" viewBox="0 0 94 61" fill="none" xmlns="http://www.w3.org/2000/svg">
<g filter="url(#filter0_d)">
<path d="M5.98869 51V42.36H7.57269V45.876H13.2367V42.36H14.8207V51H13.2367V47.472H7.57269V51H5.98869ZM17.7797 51C17.3237 51 16.9317 50.84 16.6037 50.52C16.2837 50.192 16.1237 49.8 16.1237 49.344V45.696C16.1237 45.24 16.2837 44.852 16.6037 44.532C16.9317 44.204 17.3237 44.04 17.7797 44.04H21.5357C21.9917 44.04 22.3797 44.204 22.6997 44.532C23.0277 44.852 23.1917 45.24 23.1917 45.696V48.312H17.6957V49.008C17.6957 49.232 17.7077 49.36 17.7317 49.392C17.7637 49.416 17.8917 49.428 18.1157 49.428H23.1917V51H17.7797ZM17.6957 46.896H21.6197V46.032C21.6197 45.808 21.6037 45.684 21.5717 45.66C21.5477 45.628 21.4237 45.612 21.1997 45.612H18.1157C17.8917 45.612 17.7637 45.628 17.7317 45.66C17.7077 45.684 17.6957 45.808 17.6957 46.032V46.896ZM26.1003 51C25.6443 51 25.2523 50.84 24.9243 50.52C24.6043 50.192 24.4443 49.8 24.4443 49.344V46.728H29.9403V46.032C29.9403 45.808 29.9243 45.684 29.8923 45.66C29.8683 45.628 29.7443 45.612 29.5203 45.612H24.4443V44.04H29.8563C30.3123 44.04 30.7003 44.204 31.0203 44.532C31.3483 44.852 31.5123 45.24 31.5123 45.696V51H26.1003ZM26.4363 49.428H29.9403V48.144H26.0163V49.008C26.0163 49.232 26.0283 49.36 26.0523 49.392C26.0843 49.416 26.2123 49.428 26.4363 49.428ZM34.0843 51C33.6283 51 33.2363 50.84 32.9083 50.52C32.5883 50.192 32.4283 49.8 32.4283 49.344V45.696C32.4283 45.24 32.5883 44.852 32.9083 44.532C33.2363 44.204 33.6283 44.04 34.0843 44.04H37.9363V41.76H39.5083V51H34.0843ZM34.4323 49.428H37.5163C37.7323 49.428 37.8563 49.416 37.8883 49.392C37.9203 49.36 37.9363 49.232 37.9363 49.008V46.032C37.9363 45.808 37.9203 45.684 37.8883 45.66C37.8563 45.628 37.7323 45.612 37.5163 45.612H34.4323C34.2083 45.612 34.0803 45.628 34.0483 45.66C34.0243 45.684 34.0123 45.808 34.0123 46.032V49.008C34.0123 49.232 34.0243 49.36 34.0483 49.392C34.0803 49.416 34.2083 49.428 34.4323 49.428ZM40.8043 53.76V44.04H46.2162C46.6723 44.04 47.0603 44.204 47.3803 44.532C47.7083 44.852 47.8723 45.24 47.8723 45.696V49.344C47.8723 49.8 47.7083 50.192 47.3803 50.52C47.0603 50.84 46.6723 51 46.2162 51H42.3763V53.76H40.8043ZM42.7963 49.428H45.8803C46.1043 49.428 46.2283 49.416 46.2523 49.392C46.2843 49.36 46.3003 49.232 46.3003 49.008V46.032C46.3003 45.808 46.2843 45.684 46.2523 45.66C46.2283 45.628 46.1043 45.612 45.8803 45.612H42.7963C42.5723 45.612 42.4443 45.628 42.4123 45.66C42.3883 45.684 42.3763 45.808 42.3763 46.032V49.008C42.3763 49.232 42.3883 49.36 42.4123 49.392C42.4443 49.416 42.5723 49.428 42.7963 49.428ZM48.773 51V41.76H50.345V44.04H54.185C54.633 44.04 55.021 44.204 55.349 44.532C55.677 44.852 55.841 45.24 55.841 45.696V51H54.269V46.032C54.269 45.808 54.253 45.684 54.221 45.66C54.197 45.628 54.073 45.612 53.849 45.612H50.765C50.541 45.612 50.413 45.628 50.381 45.66C50.357 45.684 50.345 45.808 50.345 46.032V51H48.773ZM58.4086 51C57.9526 51 57.5606 50.84 57.2326 50.52C56.9126 50.192 56.7526 49.8 56.7526 49.344V45.696C56.7526 45.24 56.9126 44.852 57.2326 44.532C57.5606 44.204 57.9526 44.04 58.4086 44.04H62.1646C62.6206 44.04 63.0086 44.204 63.3286 44.532C63.6566 44.852 63.8206 45.24 63.8206 45.696V49.344C63.8206 49.8 63.6566 50.192 63.3286 50.52C63.0086 50.84 62.6206 51 62.1646 51H58.4086ZM58.7446 49.428H61.8286C62.0526 49.428 62.1766 49.416 62.2006 49.392C62.2326 49.36 62.2486 49.232 62.2486 49.008V46.032C62.2486 45.808 62.2326 45.684 62.2006 45.66C62.1766 45.628 62.0526 45.612 61.8286 45.612H58.7446C58.5206 45.612 58.3926 45.628 58.3606 45.66C58.3366 45.684 58.3246 45.808 58.3246 46.032V49.008C58.3246 49.232 58.3366 49.36 58.3606 49.392C58.3926 49.416 58.5206 49.428 58.7446 49.428ZM64.7925 51V44.04H70.2045C70.6605 44.04 71.0485 44.204 71.3685 44.532C71.6965 44.852 71.8605 45.24 71.8605 45.696V51H70.2885V46.032C70.2885 45.808 70.2725 45.684 70.2405 45.66C70.2165 45.628 70.0925 45.612 69.8685 45.612H66.7845C66.5605 45.612 66.4325 45.628 66.4005 45.66C66.3765 45.684 66.3645 45.808 66.3645 46.032V51H64.7925ZM74.5102 51C74.0542 51 73.6622 50.84 73.3342 50.52C73.0142 50.192 72.8542 49.8 72.8542 49.344V45.696C72.8542 45.24 73.0142 44.852 73.3342 44.532C73.6622 44.204 74.0542 44.04 74.5102 44.04H78.2662C78.7222 44.04 79.1102 44.204 79.4302 44.532C79.7582 44.852 79.9222 45.24 79.9222 45.696V48.312H74.4262V49.008C74.4262 49.232 74.4382 49.36 74.4622 49.392C74.4942 49.416 74.6222 49.428 74.8462 49.428H79.9222V51H74.5102ZM74.4262 46.896H78.3502V46.032C78.3502 45.808 78.3342 45.684 78.3022 45.66C78.2782 45.628 78.1542 45.612 77.9302 45.612H74.8462C74.6222 45.612 74.4942 45.628 74.4622 45.66C74.4382 45.684 74.4262 45.808 74.4262 46.032V46.896ZM82.7008 51C82.2448 51 81.8528 50.84 81.5248 50.52C81.2048 50.192 81.0448 49.8 81.0448 49.344V49.08H82.6168V49.152C82.6168 49.28 82.6288 49.36 82.6528 49.392C82.6848 49.416 82.7648 49.428 82.8928 49.428H86.2648C86.3848 49.428 86.4608 49.416 86.4928 49.392C86.5248 49.36 86.5408 49.28 86.5408 49.152V48.588C86.5408 48.46 86.5248 48.384 86.4928 48.36C86.4608 48.328 86.3848 48.312 86.2648 48.312H82.7008C82.2448 48.312 81.8528 48.148 81.5248 47.82C81.2048 47.492 81.0448 47.104 81.0448 46.656V45.696C81.0448 45.24 81.2048 44.852 81.5248 44.532C81.8528 44.204 82.2448 44.04 82.7008 44.04H86.4568C86.9128 44.04 87.3048 44.204 87.6328 44.532C87.9608 44.852 88.1248 45.24 88.1248 45.696V45.96H86.5408V45.888C86.5408 45.76 86.5248 45.684 86.4928 45.66C86.4608 45.628 86.3848 45.612 86.2648 45.612H82.8928C82.7648 45.612 82.6848 45.628 82.6528 45.66C82.6288 45.684 82.6168 45.76 82.6168 45.888V46.452C82.6168 46.58 82.6288 46.66 82.6528 46.692C82.6848 46.716 82.7648 46.728 82.8928 46.728H86.4568C86.9128 46.728 87.3048 46.892 87.6328 47.22C87.9608 47.548 88.1248 47.936 88.1248 48.384V49.344C88.1248 49.8 87.9608 50.192 87.6328 50.52C87.3048 50.84 86.9128 51 86.4568 51H82.7008Z" fill="#FF6D00"/>
<g filter="url(#filter1_d)">
<path d="M59.0469 22.77V19.5C59.0469 16.3174 57.7826 13.2652 55.5322 11.0147C53.2817 8.76428 50.2295 7.5 47.0469 7.5C43.8643 7.5 40.812 8.76428 38.5616 11.0147C36.3112 13.2652 35.0469 16.3174 35.0469 19.5V22.77C34.1716 23.0795 33.4134 23.6521 32.8763 24.4094C32.3392 25.1667 32.0495 26.0716 32.0469 27V30C32.0469 31.1935 32.521 32.3381 33.3649 33.182C34.2088 34.0259 35.3534 34.5 36.5469 34.5H41.0469C41.4447 34.5 41.8262 34.342 42.1075 34.0607C42.3888 33.7794 42.5469 33.3978 42.5469 33V24C42.5469 23.6022 42.3888 23.2206 42.1075 22.9393C41.8262 22.658 41.4447 22.5 41.0469 22.5H38.0469V19.5C38.0469 17.1131 38.9951 14.8239 40.6829 13.136C42.3707 11.4482 44.6599 10.5 47.0469 10.5C49.4338 10.5 51.723 11.4482 53.4108 13.136C55.0987 14.8239 56.0469 17.1131 56.0469 19.5V22.5H53.0469C52.649 22.5 52.2675 22.658 51.9862 22.9393C51.7049 23.2206 51.5469 23.6022 51.5469 24V33C51.5469 33.3978 51.7049 33.7794 51.9862 34.0607C52.2675 34.342 52.649 34.5 53.0469 34.5H57.5469C58.7403 34.5 59.8849 34.0259 60.7289 33.182C61.5728 32.3381 62.0469 31.1935 62.0469 30V27C62.0443 26.0716 61.7546 25.1667 61.2175 24.4094C60.6804 23.6521 59.9222 23.0795 59.0469 22.77ZM39.5469 25.5V31.5H36.5469C36.149 31.5 35.7675 31.342 35.4862 31.0607C35.2049 30.7794 35.0469 30.3978 35.0469 30V27C35.0469 26.6022 35.2049 26.2206 35.4862 25.9393C35.7675 25.658 36.149 25.5 36.5469 25.5H39.5469ZM59.0469 30C59.0469 30.3978 58.8888 30.7794 58.6075 31.0607C58.3262 31.342 57.9447 31.5 57.5469 31.5H54.5469V25.5H57.5469C57.9447 25.5 58.3262 25.658 58.6075 25.9393C58.8888 26.2206 59.0469 26.6022 59.0469 27V30Z" fill="#FF6D00"/>
</g>
</g>
<defs>
<filter id="filter0_d" x="0.988281" y="0" width="92.1361" height="60.7598" filterUnits="userSpaceOnUse" color-interpolation-filters="sRGB">
<feFlood flood-opacity="0" result="BackgroundImageFix"/>
<feColorMatrix in="SourceAlpha" type="matrix" values="0 0 0 0 0 0 0 0 0 0 0 0 0 0 0 0 0 0 127 0"/>
<feOffset dy="2"/>
<feGaussianBlur stdDeviation="2.5"/>
<feColorMatrix type="matrix" values="0 0 0 0 0.3575 0 0 0 0 0 0 0 0 0 0.704167 0 0 0 1 0"/>
<feBlend mode="normal" in2="BackgroundImageFix" result="effect1_dropShadow"/>
<feBlend mode="normal" in="SourceGraphic" in2="effect1_dropShadow" result="shape"/>
</filter>
<filter id="filter1_d" x="24.9873" y="3" width="44" height="44" filterUnits="userSpaceOnUse" color-interpolation-filters="sRGB">
<feFlood flood-opacity="0" result="BackgroundImageFix"/>
<feColorMatrix in="SourceAlpha" type="matrix" values="0 0 0 0 0 0 0 0 0 0 0 0 0 0 0 0 0 0 127 0"/>
<feOffset dy="4"/>
<feGaussianBlur stdDeviation="2"/>
<feColorMatrix type="matrix" values="0 0 0 0 0 0 0 0 0 0 0 0 0 0 0 0 0 0 0.25 0"/>
<feBlend mode="normal" in2="BackgroundImageFix" result="effect1_dropShadow"/>
<feBlend mode="normal" in="SourceGraphic" in2="effect1_dropShadow" result="shape"/>
</filter>
</defs>
</svg>
