<svg width="84" height="57" viewBox="0 0 84 57" fill="none" xmlns="http://www.w3.org/2000/svg">
<g filter="url(#filter0_d)">
<g filter="url(#filter1_d)">
<path d="M30 9C30 8.20435 30.3161 7.44129 30.8787 6.87868C31.4413 6.31607 32.2044 6 33 6H51C51.7956 6 52.5587 6.31607 53.1213 6.87868C53.6839 7.44129 54 8.20435 54 9V33C54 33.7957 53.6839 34.5587 53.1213 35.1213C52.5587 35.6839 51.7956 36 51 36H33C32.2044 36 31.4413 35.6839 30.8787 35.1213C30.3161 34.5587 30 33.7957 30 33V9ZM51 9H33V33H51V9Z" fill="#FF6D00"/>
<path d="M42 21C41.2044 21 40.4413 21.3161 39.8787 21.8787C39.3161 22.4413 39 23.2044 39 24C39 24.7957 39.3161 25.5587 39.8787 26.1213C40.4413 26.6839 41.2044 27 42 27C42.7957 27 43.5587 26.6839 44.1213 26.1213C44.6839 25.5587 45 24.7957 45 24C45 23.2044 44.6839 22.4413 44.1213 21.8787C43.5587 21.3161 42.7957 21 42 21ZM36 24C36 22.4087 36.6321 20.8826 37.7574 19.7574C38.8826 18.6321 40.4087 18 42 18C43.5913 18 45.1174 18.6321 46.2426 19.7574C47.3679 20.8826 48 22.4087 48 24C48 25.5913 47.3679 27.1174 46.2426 28.2426C45.1174 29.3679 43.5913 30 42 30C40.4087 30 38.8826 29.3679 37.7574 28.2426C36.6321 27.1174 36 25.5913 36 24ZM44.25 14.25C44.25 14.8467 44.0129 15.419 43.591 15.841C43.169 16.2629 42.5967 16.5 42 16.5C41.4033 16.5 40.831 16.2629 40.409 15.841C39.9871 15.419 39.75 14.8467 39.75 14.25C39.75 13.6533 39.9871 13.081 40.409 12.659C40.831 12.2371 41.4033 12 42 12C42.5967 12 43.169 12.2371 43.591 12.659C44.0129 13.081 44.25 13.6533 44.25 14.25Z" fill="#FF6D00"/>
</g>
<path d="M9.58411 50V41.372H16.5441C17.0081 41.372 17.4041 41.536 17.7321 41.864C18.0601 42.192 18.2241 42.584 18.2241 43.04V45.368C18.2241 45.824 18.0601 46.216 17.7321 46.544C17.4041 46.872 17.0081 47.036 16.5441 47.036L11.1681 47.048V50H9.58411ZM11.5881 45.44H16.2081C16.4241 45.44 16.5481 45.428 16.5801 45.404C16.6121 45.372 16.6281 45.248 16.6281 45.032V43.376C16.6281 43.152 16.6121 43.028 16.5801 43.004C16.5481 42.972 16.4241 42.956 16.2081 42.956H11.5881C11.3641 42.956 11.2361 42.972 11.2041 43.004C11.1801 43.028 11.1681 43.152 11.1681 43.376V45.032C11.1681 45.248 11.1801 45.372 11.2041 45.404C11.2361 45.428 11.3641 45.44 11.5881 45.44ZM20.6843 50C20.2283 50 19.8363 49.84 19.5083 49.52C19.1883 49.192 19.0283 48.8 19.0283 48.344V45.728H24.5243V45.032C24.5243 44.808 24.5083 44.684 24.4763 44.66C24.4523 44.628 24.3283 44.612 24.1043 44.612H19.0283V43.04H24.4403C24.8963 43.04 25.2843 43.204 25.6043 43.532C25.9323 43.852 26.0963 44.24 26.0963 44.696V50H20.6843ZM21.0203 48.428H24.5243V47.144H20.6003V48.008C20.6003 48.232 20.6123 48.36 20.6363 48.392C20.6683 48.416 20.7963 48.428 21.0203 48.428ZM27.126 50V44.696C27.126 44.24 27.286 43.852 27.606 43.532C27.934 43.204 28.326 43.04 28.782 43.04H32.646V44.612H29.118C28.894 44.612 28.766 44.628 28.734 44.66C28.71 44.684 28.698 44.808 28.698 45.032V50H27.126ZM35.1335 50C34.6775 50 34.2855 49.84 33.9575 49.52C33.6375 49.192 33.4775 48.8 33.4775 48.344V40.748H35.0615V48.008C35.0615 48.232 35.0735 48.36 35.0975 48.392C35.1295 48.416 35.2535 48.428 35.4695 48.428H36.5375V50H35.1335ZM39.0945 50C38.6385 50 38.2465 49.84 37.9185 49.52C37.5985 49.192 37.4385 48.8 37.4385 48.344V45.728H42.9345V45.032C42.9345 44.808 42.9185 44.684 42.8865 44.66C42.8625 44.628 42.7385 44.612 42.5145 44.612H37.4385V43.04H42.8505C43.3065 43.04 43.6945 43.204 44.0145 43.532C44.3425 43.852 44.5065 44.24 44.5065 44.696V50H39.0945ZM39.4305 48.428H42.9345V47.144H39.0105V48.008C39.0105 48.232 39.0225 48.36 39.0465 48.392C39.0785 48.416 39.2065 48.428 39.4305 48.428ZM45.6656 50V43.04H51.0776C51.5336 43.04 51.9216 43.204 52.2416 43.532C52.5696 43.852 52.7336 44.24 52.7336 44.696V50H51.1616V45.032C51.1616 44.808 51.1456 44.684 51.1136 44.66C51.0896 44.628 50.9656 44.612 50.7416 44.612H47.6576C47.4336 44.612 47.3056 44.628 47.2736 44.66C47.2496 44.684 47.2376 44.808 47.2376 45.032V50H45.6656ZM55.665 50C55.209 50 54.817 49.84 54.489 49.52C54.169 49.192 54.009 48.8 54.009 48.344V40.904H55.581V43.04H58.293V44.612H55.581V48.008C55.581 48.232 55.593 48.36 55.617 48.392C55.649 48.416 55.777 48.428 56.001 48.428H58.293V50H55.665ZM60.9028 50C60.4468 50 60.0548 49.84 59.7268 49.52C59.4068 49.192 59.2468 48.8 59.2468 48.344V44.696C59.2468 44.24 59.4068 43.852 59.7268 43.532C60.0548 43.204 60.4468 43.04 60.9028 43.04H64.6588C65.1148 43.04 65.5028 43.204 65.8228 43.532C66.1508 43.852 66.3148 44.24 66.3148 44.696V47.312H60.8188V48.008C60.8188 48.232 60.8308 48.36 60.8548 48.392C60.8868 48.416 61.0148 48.428 61.2388 48.428H66.3148V50H60.9028ZM60.8188 45.896H64.7428V45.032C64.7428 44.808 64.7268 44.684 64.6948 44.66C64.6708 44.628 64.5468 44.612 64.3228 44.612H61.2388C61.0148 44.612 60.8868 44.628 60.8548 44.66C60.8308 44.684 60.8188 44.808 60.8188 45.032V45.896ZM69.0933 50C68.6373 50 68.2453 49.84 67.9173 49.52C67.5973 49.192 67.4373 48.8 67.4373 48.344V48.08H69.0093V48.152C69.0093 48.28 69.0213 48.36 69.0453 48.392C69.0773 48.416 69.1573 48.428 69.2853 48.428H72.6573C72.7773 48.428 72.8533 48.416 72.8853 48.392C72.9173 48.36 72.9333 48.28 72.9333 48.152V47.588C72.9333 47.46 72.9173 47.384 72.8853 47.36C72.8533 47.328 72.7773 47.312 72.6573 47.312H69.0933C68.6373 47.312 68.2453 47.148 67.9173 46.82C67.5973 46.492 67.4373 46.104 67.4373 45.656V44.696C67.4373 44.24 67.5973 43.852 67.9173 43.532C68.2453 43.204 68.6373 43.04 69.0933 43.04H72.8493C73.3053 43.04 73.6973 43.204 74.0253 43.532C74.3533 43.852 74.5173 44.24 74.5173 44.696V44.96H72.9333V44.888C72.9333 44.76 72.9173 44.684 72.8853 44.66C72.8533 44.628 72.7773 44.612 72.6573 44.612H69.2853C69.1573 44.612 69.0773 44.628 69.0453 44.66C69.0213 44.684 69.0093 44.76 69.0093 44.888V45.452C69.0093 45.58 69.0213 45.66 69.0453 45.692C69.0773 45.716 69.1573 45.728 69.2853 45.728H72.8493C73.3053 45.728 73.6973 45.892 74.0253 46.22C74.3533 46.548 74.5173 46.936 74.5173 47.384V48.344C74.5173 48.8 74.3533 49.192 74.0253 49.52C73.6973 49.84 73.3053 50 72.8493 50H69.0933Z" fill="#FF6D00"/>
</g>
<defs>
<filter id="filter0_d" x="4.58398" y="0" width="74.9332" height="57" filterUnits="userSpaceOnUse" color-interpolation-filters="sRGB">
<feFlood flood-opacity="0" result="BackgroundImageFix"/>
<feColorMatrix in="SourceAlpha" type="matrix" values="0 0 0 0 0 0 0 0 0 0 0 0 0 0 0 0 0 0 127 0"/>
<feOffset dy="2"/>
<feGaussianBlur stdDeviation="2.5"/>
<feColorMatrix type="matrix" values="0 0 0 0 0.3575 0 0 0 0 0 0 0 0 0 0.704167 0 0 0 1 0"/>
<feBlend mode="normal" in2="BackgroundImageFix" result="effect1_dropShadow"/>
<feBlend mode="normal" in="SourceGraphic" in2="effect1_dropShadow" result="shape"/>
</filter>
<filter id="filter1_d" x="20" y="3" width="44" height="44" filterUnits="userSpaceOnUse" color-interpolation-filters="sRGB">
<feFlood flood-opacity="0" result="BackgroundImageFix"/>
<feColorMatrix in="SourceAlpha" type="matrix" values="0 0 0 0 0 0 0 0 0 0 0 0 0 0 0 0 0 0 127 0"/>
<feOffset dy="4"/>
<feGaussianBlur stdDeviation="2"/>
<feColorMatrix type="matrix" values="0 0 0 0 0 0 0 0 0 0 0 0 0 0 0 0 0 0 0.25 0"/>
<feBlend mode="normal" in2="BackgroundImageFix" result="effect1_dropShadow"/>
<feBlend mode="normal" in="SourceGraphic" in2="effect1_dropShadow" result="shape"/>
</filter>
</defs>
</svg>
