<svg width="34" height="33" viewBox="0 0 34 33" fill="none" xmlns="http://www.w3.org/2000/svg">
<path d="M4.49282 7.05961C4.22122 7.05961 3.96075 7.16567 3.76869 7.35445C3.57664 7.54323 3.46875 7.79927 3.46875 8.06625C3.46875 8.33322 3.57664 8.58926 3.76869 8.77804C3.96075 8.96683 4.22122 9.07288 4.49282 9.07288H6.76627L9.45344 19.6425C9.6818 20.5384 10.498 21.1525 11.4371 21.1525H24.2073C25.132 21.1525 25.9175 20.5485 26.1602 19.6727L28.8146 10.0795H26.6702L24.2062 19.1392H11.436L8.7499 8.56956C8.63894 8.13594 8.38315 7.75145 8.0235 7.47768C7.66385 7.20391 7.22114 7.0567 6.76627 7.05961H4.49282ZM22.9261 21.1525C21.2415 21.1525 19.8539 22.5165 19.8539 24.1724C19.8539 25.8283 21.2415 27.1923 22.9261 27.1923C24.6107 27.1923 25.9984 25.8283 25.9984 24.1724C25.9984 22.5165 24.6107 21.1525 22.9261 21.1525ZM13.7095 21.1525C12.0249 21.1525 10.6373 22.5165 10.6373 24.1724C10.6373 25.8283 12.0249 27.1923 13.7095 27.1923C15.3941 27.1923 16.7817 25.8283 16.7817 24.1724C16.7817 22.5165 15.3941 21.1525 13.7095 21.1525ZM16.7817 7.05961V12.0928H13.7095L17.8058 16.1193L21.9021 12.0928H18.8299V7.05961H16.7817ZM13.7095 23.1658C14.2871 23.1658 14.7336 23.6047 14.7336 24.1724C14.7336 24.7401 14.2871 25.179 13.7095 25.179C13.1319 25.179 12.6854 24.7401 12.6854 24.1724C12.6854 23.6047 13.1319 23.1658 13.7095 23.1658ZM22.9261 23.1658C23.5037 23.1658 23.9502 23.6047 23.9502 24.1724C23.9502 24.7401 23.5037 25.179 22.9261 25.179C22.3486 25.179 21.9021 24.7401 21.9021 24.1724C21.9021 23.6047 22.3486 23.1658 22.9261 23.1658Z" fill="#FF6D00"/>
</svg>
