<svg width="84" height="51" viewBox="0 0 84 51" fill="none" xmlns="http://www.w3.org/2000/svg">
<g clip-path="url(#clip0)" filter="url(#filter0_d)">
<g filter="url(#filter1_d)">
<path d="M30 6C30 5.20435 30.3161 4.44129 30.8787 3.87868C31.4413 3.31607 32.2044 3 33 3H51C51.7956 3 52.5587 3.31607 53.1213 3.87868C53.6839 4.44129 54 5.20435 54 6V30C54 30.7957 53.6839 31.5587 53.1213 32.1213C52.5587 32.6839 51.7956 33 51 33H33C32.2044 33 31.4413 32.6839 30.8787 32.1213C30.3161 31.5587 30 30.7957 30 30V6ZM51 6H33V30H51V6Z" fill="#FF6D00"/>
</g>
<g filter="url(#filter2_d)">
<path d="M42 18C41.2044 18 40.4413 18.3161 39.8787 18.8787C39.3161 19.4413 39 20.2044 39 21C39 21.7957 39.3161 22.5587 39.8787 23.1213C40.4413 23.6839 41.2044 24 42 24C42.7957 24 43.5587 23.6839 44.1213 23.1213C44.6839 22.5587 45 21.7957 45 21C45 20.2044 44.6839 19.4413 44.1213 18.8787C43.5587 18.3161 42.7957 18 42 18ZM36 21C36 19.4087 36.6321 17.8826 37.7574 16.7574C38.8826 15.6321 40.4087 15 42 15C43.5913 15 45.1174 15.6321 46.2426 16.7574C47.3679 17.8826 48 19.4087 48 21C48 22.5913 47.3679 24.1174 46.2426 25.2426C45.1174 26.3679 43.5913 27 42 27C40.4087 27 38.8826 26.3679 37.7574 25.2426C36.6321 24.1174 36 22.5913 36 21ZM44.25 11.25C44.25 11.8467 44.0129 12.419 43.591 12.841C43.169 13.2629 42.5967 13.5 42 13.5C41.4033 13.5 40.831 13.2629 40.409 12.841C39.9871 12.419 39.75 11.8467 39.75 11.25C39.75 10.6533 39.9871 10.081 40.409 9.65901C40.831 9.23705 41.4033 9 42 9C42.5967 9 43.169 9.23705 43.591 9.65901C44.0129 10.081 44.25 10.6533 44.25 11.25Z" fill="#FF6D00"/>
</g>
</g>
<g filter="url(#filter3_d)">
<path d="M9.58411 47V38.372H16.5441C17.0081 38.372 17.4041 38.536 17.7321 38.864C18.0601 39.192 18.2241 39.584 18.2241 40.04V42.368C18.2241 42.824 18.0601 43.216 17.7321 43.544C17.4041 43.872 17.0081 44.036 16.5441 44.036L11.1681 44.048V47H9.58411ZM11.5881 42.44H16.2081C16.4241 42.44 16.5481 42.428 16.5801 42.404C16.6121 42.372 16.6281 42.248 16.6281 42.032V40.376C16.6281 40.152 16.6121 40.028 16.5801 40.004C16.5481 39.972 16.4241 39.956 16.2081 39.956H11.5881C11.3641 39.956 11.2361 39.972 11.2041 40.004C11.1801 40.028 11.1681 40.152 11.1681 40.376V42.032C11.1681 42.248 11.1801 42.372 11.2041 42.404C11.2361 42.428 11.3641 42.44 11.5881 42.44ZM20.6843 47C20.2283 47 19.8363 46.84 19.5083 46.52C19.1883 46.192 19.0283 45.8 19.0283 45.344V42.728H24.5243V42.032C24.5243 41.808 24.5083 41.684 24.4763 41.66C24.4523 41.628 24.3283 41.612 24.1043 41.612H19.0283V40.04H24.4403C24.8963 40.04 25.2843 40.204 25.6043 40.532C25.9323 40.852 26.0963 41.24 26.0963 41.696V47H20.6843ZM21.0203 45.428H24.5243V44.144H20.6003V45.008C20.6003 45.232 20.6123 45.36 20.6363 45.392C20.6683 45.416 20.7963 45.428 21.0203 45.428ZM27.126 47V41.696C27.126 41.24 27.286 40.852 27.606 40.532C27.934 40.204 28.326 40.04 28.782 40.04H32.646V41.612H29.118C28.894 41.612 28.766 41.628 28.734 41.66C28.71 41.684 28.698 41.808 28.698 42.032V47H27.126ZM35.1335 47C34.6775 47 34.2855 46.84 33.9575 46.52C33.6375 46.192 33.4775 45.8 33.4775 45.344V37.748H35.0615V45.008C35.0615 45.232 35.0735 45.36 35.0975 45.392C35.1295 45.416 35.2535 45.428 35.4695 45.428H36.5375V47H35.1335ZM39.0945 47C38.6385 47 38.2465 46.84 37.9185 46.52C37.5985 46.192 37.4385 45.8 37.4385 45.344V42.728H42.9345V42.032C42.9345 41.808 42.9185 41.684 42.8865 41.66C42.8625 41.628 42.7385 41.612 42.5145 41.612H37.4385V40.04H42.8505C43.3065 40.04 43.6945 40.204 44.0145 40.532C44.3425 40.852 44.5065 41.24 44.5065 41.696V47H39.0945ZM39.4305 45.428H42.9345V44.144H39.0105V45.008C39.0105 45.232 39.0225 45.36 39.0465 45.392C39.0785 45.416 39.2065 45.428 39.4305 45.428ZM45.6656 47V40.04H51.0776C51.5336 40.04 51.9216 40.204 52.2416 40.532C52.5696 40.852 52.7336 41.24 52.7336 41.696V47H51.1616V42.032C51.1616 41.808 51.1456 41.684 51.1136 41.66C51.0896 41.628 50.9656 41.612 50.7416 41.612H47.6576C47.4336 41.612 47.3056 41.628 47.2736 41.66C47.2496 41.684 47.2376 41.808 47.2376 42.032V47H45.6656ZM55.665 47C55.209 47 54.817 46.84 54.489 46.52C54.169 46.192 54.009 45.8 54.009 45.344V37.904H55.581V40.04H58.293V41.612H55.581V45.008C55.581 45.232 55.593 45.36 55.617 45.392C55.649 45.416 55.777 45.428 56.001 45.428H58.293V47H55.665ZM60.9028 47C60.4468 47 60.0548 46.84 59.7268 46.52C59.4068 46.192 59.2468 45.8 59.2468 45.344V41.696C59.2468 41.24 59.4068 40.852 59.7268 40.532C60.0548 40.204 60.4468 40.04 60.9028 40.04H64.6588C65.1148 40.04 65.5028 40.204 65.8228 40.532C66.1508 40.852 66.3148 41.24 66.3148 41.696V44.312H60.8188V45.008C60.8188 45.232 60.8308 45.36 60.8548 45.392C60.8868 45.416 61.0148 45.428 61.2388 45.428H66.3148V47H60.9028ZM60.8188 42.896H64.7428V42.032C64.7428 41.808 64.7268 41.684 64.6948 41.66C64.6708 41.628 64.5468 41.612 64.3228 41.612H61.2388C61.0148 41.612 60.8868 41.628 60.8548 41.66C60.8308 41.684 60.8188 41.808 60.8188 42.032V42.896ZM69.0933 47C68.6373 47 68.2453 46.84 67.9173 46.52C67.5973 46.192 67.4373 45.8 67.4373 45.344V45.08H69.0093V45.152C69.0093 45.28 69.0213 45.36 69.0453 45.392C69.0773 45.416 69.1573 45.428 69.2853 45.428H72.6573C72.7773 45.428 72.8533 45.416 72.8853 45.392C72.9173 45.36 72.9333 45.28 72.9333 45.152V44.588C72.9333 44.46 72.9173 44.384 72.8853 44.36C72.8533 44.328 72.7773 44.312 72.6573 44.312H69.0933C68.6373 44.312 68.2453 44.148 67.9173 43.82C67.5973 43.492 67.4373 43.104 67.4373 42.656V41.696C67.4373 41.24 67.5973 40.852 67.9173 40.532C68.2453 40.204 68.6373 40.04 69.0933 40.04H72.8493C73.3053 40.04 73.6973 40.204 74.0253 40.532C74.3533 40.852 74.5173 41.24 74.5173 41.696V41.96H72.9333V41.888C72.9333 41.76 72.9173 41.684 72.8853 41.66C72.8533 41.628 72.7773 41.612 72.6573 41.612H69.2853C69.1573 41.612 69.0773 41.628 69.0453 41.66C69.0213 41.684 69.0093 41.76 69.0093 41.888V42.452C69.0093 42.58 69.0213 42.66 69.0453 42.692C69.0773 42.716 69.1573 42.728 69.2853 42.728H72.8493C73.3053 42.728 73.6973 42.892 74.0253 43.22C74.3533 43.548 74.5173 43.936 74.5173 44.384V45.344C74.5173 45.8 74.3533 46.192 74.0253 46.52C73.6973 46.84 73.3053 47 72.8493 47H69.0933Z" fill="#FF6D00"/>
</g>
<defs>
<filter id="filter0_d" x="20" y="0" width="44" height="44" filterUnits="userSpaceOnUse" color-interpolation-filters="sRGB">
<feFlood flood-opacity="0" result="BackgroundImageFix"/>
<feColorMatrix in="SourceAlpha" type="matrix" values="0 0 0 0 0 0 0 0 0 0 0 0 0 0 0 0 0 0 127 0"/>
<feOffset dy="4"/>
<feGaussianBlur stdDeviation="2"/>
<feColorMatrix type="matrix" values="0 0 0 0 0 0 0 0 0 0 0 0 0 0 0 0 0 0 0.25 0"/>
<feBlend mode="normal" in2="BackgroundImageFix" result="effect1_dropShadow"/>
<feBlend mode="normal" in="SourceGraphic" in2="effect1_dropShadow" result="shape"/>
</filter>
<filter id="filter1_d" x="28" y="3" width="28" height="34" filterUnits="userSpaceOnUse" color-interpolation-filters="sRGB">
<feFlood flood-opacity="0" result="BackgroundImageFix"/>
<feColorMatrix in="SourceAlpha" type="matrix" values="0 0 0 0 0 0 0 0 0 0 0 0 0 0 0 0 0 0 127 0"/>
<feOffset dy="2"/>
<feGaussianBlur stdDeviation="1"/>
<feColorMatrix type="matrix" values="0 0 0 0 0.3575 0 0 0 0 0 0 0 0 0 0.704167 0 0 0 1 0"/>
<feBlend mode="normal" in2="BackgroundImageFix" result="effect1_dropShadow"/>
<feBlend mode="normal" in="SourceGraphic" in2="effect1_dropShadow" result="shape"/>
</filter>
<filter id="filter2_d" x="34" y="9" width="16" height="22" filterUnits="userSpaceOnUse" color-interpolation-filters="sRGB">
<feFlood flood-opacity="0" result="BackgroundImageFix"/>
<feColorMatrix in="SourceAlpha" type="matrix" values="0 0 0 0 0 0 0 0 0 0 0 0 0 0 0 0 0 0 127 0"/>
<feOffset dy="2"/>
<feGaussianBlur stdDeviation="1"/>
<feColorMatrix type="matrix" values="0 0 0 0 0.3575 0 0 0 0 0 0 0 0 0 0.704167 0 0 0 1 0"/>
<feBlend mode="normal" in2="BackgroundImageFix" result="effect1_dropShadow"/>
<feBlend mode="normal" in="SourceGraphic" in2="effect1_dropShadow" result="shape"/>
</filter>
<filter id="filter3_d" x="7.58398" y="37.748" width="68.9332" height="13.252" filterUnits="userSpaceOnUse" color-interpolation-filters="sRGB">
<feFlood flood-opacity="0" result="BackgroundImageFix"/>
<feColorMatrix in="SourceAlpha" type="matrix" values="0 0 0 0 0 0 0 0 0 0 0 0 0 0 0 0 0 0 127 0"/>
<feOffset dy="2"/>
<feGaussianBlur stdDeviation="1"/>
<feColorMatrix type="matrix" values="0 0 0 0 0.3575 0 0 0 0 0 0 0 0 0 0.704167 0 0 0 1 0"/>
<feBlend mode="normal" in2="BackgroundImageFix" result="effect1_dropShadow"/>
<feBlend mode="normal" in="SourceGraphic" in2="effect1_dropShadow" result="shape"/>
</filter>
<clipPath id="clip0">
<rect width="36" height="36" fill="white" transform="translate(24)"/>
</clipPath>
</defs>
</svg>
