<svg width="40" height="40" viewBox="0 0 40 40" fill="none" xmlns="http://www.w3.org/2000/svg">
<path d="M19.9998 7.65819C18.1598 5.98152 15.8131 5.06152 13.3398 5.06152C10.7098 5.06152 8.2198 6.09986 6.31814 7.99152C2.39647 11.9299 2.39814 18.0899 6.32147 22.0115L18.5415 34.2315C18.8248 34.7299 19.3715 35.0515 19.9998 35.0515C20.5365 35.0515 21.0148 34.7799 21.3198 34.3699L33.6781 22.0115C37.6015 18.0882 37.6015 11.9299 33.6748 7.98486C31.7798 6.09986 29.2898 5.06152 26.6598 5.06152C24.1881 5.06152 21.8398 5.98152 19.9998 7.65819ZM31.3181 10.3415C33.9231 12.9599 33.9248 17.0499 31.3215 19.6549L19.9998 30.9765L8.67814 19.6549C6.0748 17.0499 6.07647 12.9599 8.6748 10.3482C9.94147 9.08819 11.5981 8.39486 13.3398 8.39486C15.0815 8.39486 16.7315 9.08819 17.9881 10.3449L18.8215 11.1782C19.4731 11.8299 20.5265 11.8299 21.1781 11.1782L22.0115 10.3449C24.5315 7.82986 28.8015 7.83652 31.3181 10.3415Z" fill="#FF6D00"/>
</svg>
