<svg width="226" height="84" viewBox="0 0 226 84" fill="none" xmlns="http://www.w3.org/2000/svg">
<g filter="url(#filter0_d)">
<g filter="url(#filter1_d)">
<path d="M210.329 20.6445C209.688 14.8112 207.149 9.91211 202.712 5.94727C198.274 1.98242 193.082 0 187.134 0C181.187 0 175.995 1.98242 171.557 5.94727C167.12 9.91211 164.581 14.8112 163.94 20.6445C160.463 21.2826 157.604 22.7865 155.362 25.1562C153.121 27.526 152 30.306 152 33.4961C152 37.1419 153.418 40.2409 156.255 42.793C159.091 45.3451 162.568 46.6211 166.685 46.6211H169.567V23.3789C169.567 18.5482 171.283 14.4238 174.714 11.0059C178.145 7.58789 182.285 5.87891 187.134 5.87891C191.984 5.87891 196.124 7.58789 199.555 11.0059C202.986 14.4238 204.702 18.5482 204.702 23.3789V43.75C204.702 51.5885 201.591 56.3737 195.369 58.1055C193.631 54.3685 190.886 52.5 187.134 52.5C184.664 52.5 182.583 53.3431 180.89 55.0293C179.197 56.7155 178.351 58.7891 178.351 61.25C178.351 63.7109 179.197 65.7845 180.89 67.4707C182.583 69.1569 184.664 70 187.134 70C189.056 70 190.794 69.4303 192.35 68.291C193.905 67.1517 194.912 65.6706 195.369 63.8477C199.303 63.0273 202.506 61.3867 204.976 58.9258C208.179 55.7357 209.963 51.543 210.329 46.3477C213.714 45.8008 216.505 44.3197 218.701 41.9043C220.896 39.4889 221.994 36.6862 221.994 33.4961C222.086 30.306 221.057 27.526 218.906 25.1562C216.756 22.7865 213.897 21.2826 210.329 20.6445ZM163.666 40.6055C161.927 40.1497 160.532 39.2611 159.48 37.9395C158.428 36.6178 157.901 35.1367 157.901 33.4961C157.901 30.2148 159.823 27.8906 163.666 26.5234V40.6055ZM187.134 64.1211C185.213 64.1211 184.252 63.1641 184.252 61.25C184.252 59.3359 185.213 58.3789 187.134 58.3789C189.056 58.3789 190.017 59.3359 190.017 61.25C190.017 63.1641 189.056 64.1211 187.134 64.1211ZM210.603 40.6055V26.5234C212.342 26.9792 213.737 27.8678 214.789 29.1895C215.841 30.5111 216.367 31.9466 216.367 33.4961C216.367 36.8685 214.446 39.2383 210.603 40.6055Z" fill="#FF6D00"/>
</g>
<g filter="url(#filter2_d)">
<path d="M197.797 33.4118L197.976 33.5856L186.702 22.8157C186.47 22.5904 186.059 22.5775 185.787 22.7835L181.987 25.5902C181.708 25.7962 181.682 26.1503 181.914 26.3756L186.43 30.5149C186.669 30.7402 187.087 30.7531 187.359 30.5471L187.365 30.5407C187.637 30.3347 188.055 30.3475 188.294 30.5729L193.864 35.8065C194.103 36.0319 194.077 36.3859 193.805 36.5919L187.624 41.3557C187.345 41.5681 186.928 41.5552 186.682 41.3299L176.609 31.8346C176.377 31.6093 175.965 31.5964 175.687 31.8024L172.65 34.0491C172.371 34.2551 172.338 34.6092 172.57 34.8345L186.41 47.4584C186.41 47.4584 186.901 47.8962 187.558 47.4069L200.688 36.8559C200.954 36.6499 200.98 36.2958 200.735 36.0705L197.797 33.4118ZM201.411 28.0429L187.451 14.743C187.352 14.6658 186.921 14.389 186.371 14.8139L172.656 25.249C172.378 25.455 172.338 25.8091 172.577 26.0344L175.382 28.7189L186.768 39.3472C187.014 39.5725 187.438 39.5854 187.717 39.3729L191.046 36.8752L191.026 36.8559L191.537 36.4696C191.815 36.2636 191.842 35.9095 191.596 35.6842L187.81 32.1822C187.571 31.9569 187.146 31.944 186.868 32.15L186.861 32.1565C186.583 32.3625 186.165 32.356 185.92 32.1307L179.646 26.2211C179.407 25.9958 179.44 25.6482 179.719 25.4357L185.833 20.8329C186.105 20.6269 186.516 20.6398 186.755 20.8651L197.392 31.1007C197.638 31.326 198.056 31.3389 198.327 31.1329L201.365 28.8283C201.637 28.6223 201.656 28.2682 201.411 28.0429Z" fill="#FF6D00"/>
</g>
<g filter="url(#filter3_d)">
<path d="M8.45344 70C7.54144 70 6.75744 69.672 6.10144 69.016C5.44544 68.36 5.11744 67.576 5.11744 66.664V56.056C5.11744 55.144 5.44544 54.36 6.10144 53.704C6.75744 53.048 7.54144 52.72 8.45344 52.72H22.3494V55.912H9.12544C8.67744 55.912 8.42144 55.944 8.35744 56.008C8.30944 56.056 8.28544 56.304 8.28544 56.752V65.968C8.28544 66.416 8.30944 66.672 8.35744 66.736C8.42144 66.784 8.67744 66.808 9.12544 66.808H22.3494V70H8.45344ZM26.8438 75.16V71.992H34.6918C35.1238 71.992 35.3638 71.96 35.4118 71.896C35.4758 71.848 35.5078 71.6 35.5078 71.152V70H27.8278C26.9158 70 26.1318 69.68 25.4758 69.04C24.8358 68.384 24.5158 67.6 24.5158 66.688V56.128H27.6598V66.016C27.6598 66.464 27.6838 66.72 27.7318 66.784C27.7958 66.832 28.0518 66.856 28.4998 66.856H34.6918C35.1238 66.856 35.3638 66.832 35.4118 66.784C35.4758 66.72 35.5078 66.464 35.5078 66.016V56.128H38.6518V71.848C38.6518 72.76 38.3318 73.536 37.6918 74.176C37.0518 74.832 36.2758 75.16 35.3638 75.16H26.8438ZM41.2335 70V51.52H44.3775V56.08H52.0575C52.9695 56.08 53.7455 56.408 54.3855 57.064C55.0415 57.704 55.3695 58.48 55.3695 59.392V66.688C55.3695 67.6 55.0415 68.384 54.3855 69.04C53.7455 69.68 52.9695 70 52.0575 70H41.2335ZM45.2175 66.856H51.3855C51.8335 66.856 52.0815 66.832 52.1295 66.784C52.1935 66.72 52.2255 66.464 52.2255 66.016V60.064C52.2255 59.616 52.1935 59.368 52.1295 59.32C52.0815 59.256 51.8335 59.224 51.3855 59.224H45.2175C44.7695 59.224 44.5135 59.256 44.4495 59.32C44.4015 59.368 44.3775 59.616 44.3775 60.064V66.016C44.3775 66.464 44.4015 66.72 44.4495 66.784C44.5135 66.832 44.7695 66.856 45.2175 66.856ZM60.4813 70C59.5693 70 58.7853 69.68 58.1293 69.04C57.4893 68.384 57.1693 67.6 57.1693 66.688V59.392C57.1693 58.48 57.4893 57.704 58.1293 57.064C58.7853 56.408 59.5693 56.08 60.4813 56.08H67.9933C68.9053 56.08 69.6813 56.408 70.3213 57.064C70.9773 57.704 71.3053 58.48 71.3053 59.392V64.624H60.3133V66.016C60.3133 66.464 60.3373 66.72 60.3853 66.784C60.4493 66.832 60.7053 66.856 61.1533 66.856H71.3053V70H60.4813ZM60.3133 61.792H68.1613V60.064C68.1613 59.616 68.1293 59.368 68.0653 59.32C68.0173 59.256 67.7693 59.224 67.3213 59.224H61.1533C60.7053 59.224 60.4493 59.256 60.3853 59.32C60.3373 59.368 60.3133 59.616 60.3133 60.064V61.792ZM73.6699 70V59.392C73.6699 58.48 73.9899 57.704 74.6299 57.064C75.2859 56.408 76.0699 56.08 76.9819 56.08H84.7099V59.224H77.6539C77.2059 59.224 76.9499 59.256 76.8859 59.32C76.8379 59.368 76.8139 59.616 76.8139 60.064V70H73.6699ZM89.5689 70C88.6569 70 87.8729 69.672 87.2169 69.016C86.5609 68.36 86.2329 67.576 86.2329 66.664V65.344H89.4009V65.968C89.4009 66.416 89.4249 66.672 89.4729 66.736C89.5369 66.784 89.7929 66.808 90.2409 66.808H99.4809C99.9289 66.808 100.177 66.784 100.225 66.736C100.289 66.672 100.321 66.416 100.321 65.968V63.784C100.321 63.336 100.289 63.088 100.225 63.04C100.177 62.976 99.9289 62.944 99.4809 62.944H89.5689C88.6569 62.944 87.8729 62.616 87.2169 61.96C86.5609 61.304 86.2329 60.52 86.2329 59.608V56.056C86.2329 55.144 86.5609 54.36 87.2169 53.704C87.8729 53.048 88.6569 52.72 89.5689 52.72H100.177C101.089 52.72 101.873 53.048 102.529 53.704C103.185 54.36 103.513 55.144 103.513 56.056V57.376H100.321V56.752C100.321 56.304 100.289 56.056 100.225 56.008C100.177 55.944 99.9289 55.912 99.4809 55.912H90.2409C89.7929 55.912 89.5369 55.944 89.4729 56.008C89.4249 56.056 89.4009 56.304 89.4009 56.752V58.936C89.4009 59.384 89.4249 59.632 89.4729 59.68C89.5369 59.728 89.7929 59.752 90.2409 59.752H100.177C101.089 59.752 101.873 60.088 102.529 60.76C103.185 61.416 103.513 62.2 103.513 63.112V66.664C103.513 67.576 103.185 68.36 102.529 69.016C101.873 69.672 101.089 70 100.177 70H89.5689ZM109.325 70C108.413 70 107.629 69.68 106.973 69.04C106.333 68.384 106.013 67.6 106.013 66.688V59.392C106.013 58.48 106.333 57.704 106.973 57.064C107.629 56.408 108.413 56.08 109.325 56.08H116.837C117.749 56.08 118.525 56.408 119.165 57.064C119.821 57.704 120.149 58.48 120.149 59.392V66.688C120.149 67.6 119.821 68.384 119.165 69.04C118.525 69.68 117.749 70 116.837 70H109.325ZM109.997 66.856H116.165C116.613 66.856 116.861 66.832 116.909 66.784C116.973 66.72 117.005 66.464 117.005 66.016V60.064C117.005 59.616 116.973 59.368 116.909 59.32C116.861 59.256 116.613 59.224 116.165 59.224H109.997C109.549 59.224 109.293 59.256 109.229 59.32C109.181 59.368 109.157 59.616 109.157 60.064V66.016C109.157 66.464 109.181 66.72 109.229 66.784C109.293 66.832 109.549 66.856 109.997 66.856ZM125.357 70C124.445 70 123.661 69.68 123.005 69.04C122.365 68.384 122.045 67.6 122.045 66.688V56.08H125.189V66.016C125.189 66.464 125.213 66.72 125.261 66.784C125.325 66.832 125.581 66.856 126.029 66.856H132.197C132.645 66.856 132.893 66.832 132.941 66.784C133.005 66.72 133.037 66.464 133.037 66.016V56.08H136.181V66.688C136.181 67.6 135.853 68.384 135.197 69.04C134.557 69.68 133.781 70 132.869 70H125.357ZM138.804 70V56.08H149.628C150.54 56.08 151.316 56.408 151.956 57.064C152.612 57.704 152.94 58.48 152.94 59.392V70H149.796V60.064C149.796 59.616 149.764 59.368 149.7 59.32C149.652 59.256 149.404 59.224 148.956 59.224H142.788C142.34 59.224 142.084 59.256 142.02 59.32C141.972 59.368 141.948 59.616 141.948 60.064V70H138.804ZM158.083 70C157.171 70 156.387 69.68 155.731 69.04C155.091 68.384 154.771 67.6 154.771 66.688V59.392C154.771 58.48 155.091 57.704 155.731 57.064C156.387 56.408 157.171 56.08 158.083 56.08H165.787V51.52H168.931V70H158.083ZM158.779 66.856H164.947C165.379 66.856 165.627 66.832 165.691 66.784C165.755 66.72 165.787 66.464 165.787 66.016V60.064C165.787 59.616 165.755 59.368 165.691 59.32C165.627 59.256 165.379 59.224 164.947 59.224H158.779C158.331 59.224 158.075 59.256 158.011 59.32C157.963 59.368 157.939 59.616 157.939 60.064V66.016C157.939 66.464 157.963 66.72 158.011 66.784C158.075 66.832 158.331 66.856 158.779 66.856Z" fill="#FF6D00"/>
</g>
</g>
<defs>
<filter id="filter0_d" x="1.11719" y="0" width="224.883" height="83.1595" filterUnits="userSpaceOnUse" color-interpolation-filters="sRGB">
<feFlood flood-opacity="0" result="BackgroundImageFix"/>
<feColorMatrix in="SourceAlpha" type="matrix" values="0 0 0 0 0 0 0 0 0 0 0 0 0 0 0 0 0 0 127 0"/>
<feOffset dy="4"/>
<feGaussianBlur stdDeviation="2"/>
<feColorMatrix type="matrix" values="0 0 0 0 0 0 0 0 0 0 0 0 0 0 0 0 0 0 0.25 0"/>
<feBlend mode="normal" in2="BackgroundImageFix" result="effect1_dropShadow"/>
<feBlend mode="normal" in="SourceGraphic" in2="effect1_dropShadow" result="shape"/>
</filter>
<filter id="filter1_d" x="148" y="0" width="78" height="78" filterUnits="userSpaceOnUse" color-interpolation-filters="sRGB">
<feFlood flood-opacity="0" result="BackgroundImageFix"/>
<feColorMatrix in="SourceAlpha" type="matrix" values="0 0 0 0 0 0 0 0 0 0 0 0 0 0 0 0 0 0 127 0"/>
<feOffset dy="4"/>
<feGaussianBlur stdDeviation="2"/>
<feColorMatrix type="matrix" values="0 0 0 0 0.3575 0 0 0 0 0 0 0 0 0 0.704167 0 0 0 1 0"/>
<feBlend mode="normal" in2="BackgroundImageFix" result="effect1_dropShadow"/>
<feBlend mode="normal" in="SourceGraphic" in2="effect1_dropShadow" result="shape"/>
</filter>
<filter id="filter2_d" x="168.416" y="14.583" width="37.1667" height="41.0556" filterUnits="userSpaceOnUse" color-interpolation-filters="sRGB">
<feFlood flood-opacity="0" result="BackgroundImageFix"/>
<feColorMatrix in="SourceAlpha" type="matrix" values="0 0 0 0 0 0 0 0 0 0 0 0 0 0 0 0 0 0 127 0"/>
<feOffset dy="4"/>
<feGaussianBlur stdDeviation="2"/>
<feColorMatrix type="matrix" values="0 0 0 0 0.3575 0 0 0 0 0 0 0 0 0 0.704167 0 0 0 1 0"/>
<feBlend mode="normal" in2="BackgroundImageFix" result="effect1_dropShadow"/>
<feBlend mode="normal" in="SourceGraphic" in2="effect1_dropShadow" result="shape"/>
</filter>
<filter id="filter3_d" x="3.11719" y="51.5195" width="167.813" height="27.64" filterUnits="userSpaceOnUse" color-interpolation-filters="sRGB">
<feFlood flood-opacity="0" result="BackgroundImageFix"/>
<feColorMatrix in="SourceAlpha" type="matrix" values="0 0 0 0 0 0 0 0 0 0 0 0 0 0 0 0 0 0 127 0"/>
<feOffset dy="2"/>
<feGaussianBlur stdDeviation="1"/>
<feColorMatrix type="matrix" values="0 0 0 0 0.352941 0 0 0 0 0.0941176 0 0 0 0 0.603922 0 0 0 1 0"/>
<feBlend mode="normal" in2="BackgroundImageFix" result="effect1_dropShadow"/>
<feBlend mode="normal" in="SourceGraphic" in2="effect1_dropShadow" result="shape"/>
</filter>
</defs>
</svg>
