<svg width="84" height="63" viewBox="0 0 84 63" fill="none" xmlns="http://www.w3.org/2000/svg">
<g filter="url(#filter0_d)">
<g filter="url(#filter1_d)">
<path d="M40.5 36.1562V34.5178C38.0008 34.1489 35.7155 32.8732 34.0626 30.9244C32.4097 28.9755 31.5 26.484 31.5 23.9062V16.25C31.5 14.8424 31.7716 13.4486 32.2993 12.1481C32.8269 10.8477 33.6004 9.66603 34.5754 8.6707C35.5504 7.67537 36.7079 6.88583 37.9818 6.34717C39.2557 5.8085 40.6211 5.53125 42 5.53125C43.3789 5.53125 44.7443 5.8085 46.0182 6.34717C47.2921 6.88583 48.4496 7.67537 49.4246 8.6707C50.3996 9.66603 51.1731 10.8477 51.7007 12.1481C52.2284 13.4486 52.5 14.8424 52.5 16.25V23.9062C52.5 26.484 51.5903 28.9755 49.9374 30.9244C48.2845 32.8732 45.9992 34.1489 43.5 34.5178V36.1562H49.5V39.2187H34.5V36.1562H40.5ZM42 8.59375C40.0109 8.59375 38.1032 9.40039 36.6967 10.8362C35.2902 12.272 34.5 14.2194 34.5 16.25V23.9062C34.5 25.9368 35.2902 27.8842 36.6967 29.32C38.1032 30.7559 40.0109 31.5625 42 31.5625C43.9891 31.5625 45.8968 30.7559 47.3033 29.32C48.7098 27.8842 49.5 25.9368 49.5 23.9062V16.25C49.5 14.2194 48.7098 12.272 47.3033 10.8362C45.8968 9.40039 43.9891 8.59375 42 8.59375ZM42 17.7812C42.3978 17.7812 42.7794 17.6199 43.0607 17.3328C43.342 17.0456 43.5 16.6561 43.5 16.25C43.5 15.8439 43.342 15.4544 43.0607 15.1672C42.7794 14.8801 42.3978 14.7187 42 14.7187C41.6022 14.7187 41.2206 14.8801 40.9393 15.1672C40.658 15.4544 40.5 15.8439 40.5 16.25C40.5 16.6561 40.658 17.0456 40.9393 17.3328C41.2206 17.6199 41.6022 17.7812 42 17.7812ZM42 20.8437C40.8065 20.8437 39.6619 20.3598 38.818 19.4983C37.9741 18.6368 37.5 17.4683 37.5 16.25C37.5 15.0317 37.9741 13.8632 38.818 13.0017C39.6619 12.1402 40.8065 11.6562 42 11.6562C43.1935 11.6562 44.3381 12.1402 45.182 13.0017C46.0259 13.8632 46.5 15.0317 46.5 16.25C46.5 17.4683 46.0259 18.6368 45.182 19.4983C44.3381 20.3598 43.1935 20.8437 42 20.8437Z" fill="#FF6D00"/>
</g>
<path d="M9.76884 51.7295C9.31284 51.7295 8.92084 51.5655 8.59284 51.2375C8.26484 50.9095 8.10084 50.5175 8.10084 50.0615V49.4015H9.68484V49.7135C9.68484 49.9375 9.69684 50.0655 9.72084 50.0975C9.75284 50.1215 9.88084 50.1335 10.1048 50.1335H14.7248C14.9488 50.1335 15.0728 50.1215 15.0968 50.0975C15.1288 50.0655 15.1448 49.9375 15.1448 49.7135V48.6215C15.1448 48.3975 15.1288 48.2735 15.0968 48.2495C15.0728 48.2175 14.9488 48.2015 14.7248 48.2015H9.76884C9.31284 48.2015 8.92084 48.0375 8.59284 47.7095C8.26484 47.3815 8.10084 46.9895 8.10084 46.5335V44.7575C8.10084 44.3015 8.26484 43.9095 8.59284 43.5815C8.92084 43.2535 9.31284 43.0895 9.76884 43.0895H15.0728C15.5288 43.0895 15.9208 43.2535 16.2488 43.5815C16.5768 43.9095 16.7408 44.3015 16.7408 44.7575V45.4175H15.1448V45.1055C15.1448 44.8815 15.1288 44.7575 15.0968 44.7335C15.0728 44.7015 14.9488 44.6855 14.7248 44.6855H10.1048C9.88084 44.6855 9.75284 44.7015 9.72084 44.7335C9.69684 44.7575 9.68484 44.8815 9.68484 45.1055V46.1975C9.68484 46.4215 9.69684 46.5455 9.72084 46.5695C9.75284 46.5935 9.88084 46.6055 10.1048 46.6055H15.0728C15.5288 46.6055 15.9208 46.7735 16.2488 47.1095C16.5768 47.4375 16.7408 47.8295 16.7408 48.2855V50.0615C16.7408 50.5175 16.5768 50.9095 16.2488 51.2375C15.9208 51.5655 15.5288 51.7295 15.0728 51.7295H9.76884ZM19.6709 51.7295C19.2149 51.7295 18.8229 51.5695 18.4949 51.2495C18.1749 50.9215 18.0149 50.5295 18.0149 50.0735V42.6335H19.5869V44.7695H22.2989V46.3415H19.5869V49.7375C19.5869 49.9615 19.5989 50.0895 19.6229 50.1215C19.6549 50.1455 19.7829 50.1575 20.0069 50.1575H22.2989V51.7295H19.6709ZM23.3467 51.7295V46.4255C23.3467 45.9695 23.5067 45.5815 23.8267 45.2615C24.1547 44.9335 24.5467 44.7695 25.0027 44.7695H28.8667V46.3415H25.3387C25.1147 46.3415 24.9867 46.3575 24.9547 46.3895C24.9307 46.4135 24.9187 46.5375 24.9187 46.7615V51.7295H23.3467ZM31.3422 51.7295C30.8862 51.7295 30.4942 51.5695 30.1662 51.2495C29.8462 50.9215 29.6862 50.5295 29.6862 50.0735V46.4255C29.6862 45.9695 29.8462 45.5815 30.1662 45.2615C30.4942 44.9335 30.8862 44.7695 31.3422 44.7695H35.0982C35.5542 44.7695 35.9422 44.9335 36.2622 45.2615C36.5902 45.5815 36.7542 45.9695 36.7542 46.4255V49.0415H31.2582V49.7375C31.2582 49.9615 31.2702 50.0895 31.2942 50.1215C31.3262 50.1455 31.4542 50.1575 31.6782 50.1575H36.7542V51.7295H31.3422ZM31.2582 47.6255H35.1822V46.7615C35.1822 46.5375 35.1662 46.4135 35.1342 46.3895C35.1102 46.3575 34.9862 46.3415 34.7622 46.3415H31.6782C31.4542 46.3415 31.3262 46.3575 31.2942 46.3895C31.2702 46.4135 31.2582 46.5375 31.2582 46.7615V47.6255ZM39.6628 51.7295C39.2068 51.7295 38.8148 51.5695 38.4868 51.2495C38.1668 50.9215 38.0068 50.5295 38.0068 50.0735V47.4575H43.5028V46.7615C43.5028 46.5375 43.4868 46.4135 43.4548 46.3895C43.4308 46.3575 43.3068 46.3415 43.0828 46.3415H38.0068V44.7695H43.4188C43.8748 44.7695 44.2628 44.9335 44.5828 45.2615C44.9108 45.5815 45.0748 45.9695 45.0748 46.4255V51.7295H39.6628ZM39.9988 50.1575H43.5028V48.8735H39.5788V49.7375C39.5788 49.9615 39.5908 50.0895 39.6148 50.1215C39.6468 50.1455 39.7748 50.1575 39.9988 50.1575ZM46.0464 51.7295V44.7695H54.6744C55.1304 44.7695 55.5184 44.9335 55.8384 45.2615C56.1664 45.5815 56.3304 45.9695 56.3304 46.4255V51.7295H54.7704V46.7615C54.7704 46.5375 54.7544 46.4135 54.7224 46.3895C54.6904 46.3575 54.5664 46.3415 54.3504 46.3415H52.4064C52.1824 46.3415 52.0544 46.3575 52.0224 46.3895C51.9984 46.4135 51.9864 46.5375 51.9864 46.7615V51.7295H50.4024V46.7615C50.4024 46.5375 50.3864 46.4135 50.3544 46.3895C50.3304 46.3575 50.2064 46.3415 49.9824 46.3415H48.0384C47.8144 46.3415 47.6864 46.3575 47.6544 46.3895C47.6304 46.4135 47.6184 46.5375 47.6184 46.7615V51.7295H46.0464ZM57.7529 51.7295V44.7695H59.3249V51.7295H57.7529ZM57.7529 44.0735V42.4895H59.3249V44.0735H57.7529ZM60.7183 51.7295V44.7695H66.1303C66.5863 44.7695 66.9743 44.9335 67.2943 45.2615C67.6223 45.5815 67.7863 45.9695 67.7863 46.4255V51.7295H66.2143V46.7615C66.2143 46.5375 66.1983 46.4135 66.1663 46.3895C66.1423 46.3575 66.0183 46.3415 65.7943 46.3415H62.7103C62.4863 46.3415 62.3583 46.3575 62.3263 46.3895C62.3023 46.4135 62.2903 46.5375 62.2903 46.7615V51.7295H60.7183ZM69.9998 54.4775V52.8935H73.9238C74.1398 52.8935 74.2598 52.8775 74.2838 52.8455C74.3158 52.8215 74.3318 52.6975 74.3318 52.4735V51.7295H70.4918C70.0358 51.7295 69.6438 51.5695 69.3158 51.2495C68.9958 50.9215 68.8358 50.5295 68.8358 50.0735V46.4255C68.8358 45.9695 68.9958 45.5815 69.3158 45.2615C69.6438 44.9335 70.0358 44.7695 70.4918 44.7695H74.2598C74.7158 44.7695 75.1038 44.9335 75.4238 45.2615C75.7438 45.5815 75.9038 45.9695 75.9038 46.4255V52.8215C75.9038 53.2775 75.7438 53.6655 75.4238 53.9855C75.1038 54.3135 74.7158 54.4775 74.2598 54.4775H69.9998ZM70.8278 50.1575H73.9238C74.1398 50.1575 74.2598 50.1455 74.2838 50.1215C74.3158 50.0895 74.3318 49.9615 74.3318 49.7375V46.7615C74.3318 46.5375 74.3158 46.4135 74.2838 46.3895C74.2598 46.3575 74.1398 46.3415 73.9238 46.3415H70.8278C70.6038 46.3415 70.4758 46.3575 70.4438 46.3895C70.4198 46.4135 70.4078 46.5375 70.4078 46.7615V49.7375C70.4078 49.9615 70.4198 50.0895 70.4438 50.1215C70.4758 50.1455 70.6038 50.1575 70.8278 50.1575Z" fill="#FF6D00"/>
</g>
<defs>
<filter id="filter0_d" x="2.10059" y="0" width="79.8029" height="62.4773" filterUnits="userSpaceOnUse" color-interpolation-filters="sRGB">
<feFlood flood-opacity="0" result="BackgroundImageFix"/>
<feColorMatrix in="SourceAlpha" type="matrix" values="0 0 0 0 0 0 0 0 0 0 0 0 0 0 0 0 0 0 127 0"/>
<feOffset dy="2"/>
<feGaussianBlur stdDeviation="3"/>
<feColorMatrix type="matrix" values="0 0 0 0 0.3575 0 0 0 0 0 0 0 0 0 0.704167 0 0 0 1 0"/>
<feBlend mode="normal" in2="BackgroundImageFix" result="effect1_dropShadow"/>
<feBlend mode="normal" in="SourceGraphic" in2="effect1_dropShadow" result="shape"/>
</filter>
<filter id="filter1_d" x="20" y="4" width="44" height="44.75" filterUnits="userSpaceOnUse" color-interpolation-filters="sRGB">
<feFlood flood-opacity="0" result="BackgroundImageFix"/>
<feColorMatrix in="SourceAlpha" type="matrix" values="0 0 0 0 0 0 0 0 0 0 0 0 0 0 0 0 0 0 127 0"/>
<feOffset dy="4"/>
<feGaussianBlur stdDeviation="2"/>
<feColorMatrix type="matrix" values="0 0 0 0 0 0 0 0 0 0 0 0 0 0 0 0 0 0 0.25 0"/>
<feBlend mode="normal" in2="BackgroundImageFix" result="effect1_dropShadow"/>
<feBlend mode="normal" in="SourceGraphic" in2="effect1_dropShadow" result="shape"/>
</filter>
</defs>
</svg>
