<svg width="84" height="56" viewBox="0 0 84 56" fill="none" xmlns="http://www.w3.org/2000/svg">
<g filter="url(#filter0_d)">
<g filter="url(#filter1_d)">
<path d="M55.5 8.625C55.9474 8.6245 56.3763 8.44655 56.6927 8.13019C57.009 7.81383 57.187 7.3849 57.1875 6.9375V4.125H54.9375V6.375H42.5625C42.1151 6.3755 41.6862 6.55345 41.3698 6.86981C41.0535 7.18617 40.8755 7.6151 40.875 8.0625V10.875H38.6689C37.0168 10.8769 35.4329 11.534 34.2647 12.7022C33.0965 13.8704 32.4394 15.4543 32.4375 17.1064V28.3526C32.4375 33.6033 36.7092 37.875 41.9599 37.875H42.0401C47.2908 37.875 51.5625 33.6033 51.5625 28.3526V17.1064C51.5606 15.4543 50.9035 13.8704 49.7353 12.7022C48.5671 11.534 46.9832 10.8769 45.3311 10.875H43.125V8.625H55.5ZM34.6875 17.1064C34.6887 16.0509 35.1085 15.0389 35.855 14.2925C36.6014 13.546 37.6134 13.1262 38.6689 13.125H40.875V19.3125H34.6875V17.1064ZM49.3125 28.3526C49.3103 30.2807 48.5435 32.1292 47.1801 33.4926C45.8167 34.856 43.9682 35.6228 42.0401 35.625H41.9599C40.0318 35.6228 38.1833 34.856 36.8199 33.4926C35.4565 32.1292 34.6897 30.2807 34.6875 28.3526V21.5625H49.3125V28.3526ZM45.3311 13.125C46.3866 13.1262 47.3986 13.546 48.145 14.2925C48.8915 15.0389 49.3113 16.0509 49.3125 17.1064V19.3125H43.125V13.125H45.3311Z" fill="#FF6D00"/>
</g>
<path d="M16.838 49V40.36H18.578L21.71 44.092L24.83 40.36H26.582V49H24.986V42.664L21.71 46.564L18.422 42.676V49H16.838ZM29.5668 49C29.1108 49 28.7188 48.84 28.3908 48.52C28.0708 48.192 27.9108 47.8 27.9108 47.344V43.696C27.9108 43.24 28.0708 42.852 28.3908 42.532C28.7188 42.204 29.1108 42.04 29.5668 42.04H33.3228C33.7788 42.04 34.1668 42.204 34.4868 42.532C34.8148 42.852 34.9788 43.24 34.9788 43.696V47.344C34.9788 47.8 34.8148 48.192 34.4868 48.52C34.1668 48.84 33.7788 49 33.3228 49H29.5668ZM29.9028 47.428H32.9868C33.2108 47.428 33.3348 47.416 33.3588 47.392C33.3908 47.36 33.4068 47.232 33.4068 47.008V44.032C33.4068 43.808 33.3908 43.684 33.3588 43.66C33.3348 43.628 33.2108 43.612 32.9868 43.612H29.9028C29.6788 43.612 29.5508 43.628 29.5188 43.66C29.4948 43.684 29.4828 43.808 29.4828 44.032V47.008C29.4828 47.232 29.4948 47.36 29.5188 47.392C29.5508 47.416 29.6788 47.428 29.9028 47.428ZM37.583 49C37.127 49 36.735 48.84 36.407 48.52C36.087 48.192 35.927 47.8 35.927 47.344V42.04H37.499V47.008C37.499 47.232 37.511 47.36 37.535 47.392C37.567 47.416 37.695 47.428 37.919 47.428H41.003C41.227 47.428 41.351 47.416 41.375 47.392C41.407 47.36 41.423 47.232 41.423 47.008V42.04H42.995V47.344C42.995 47.8 42.831 48.192 42.503 48.52C42.183 48.84 41.795 49 41.339 49H37.583ZM45.609 49C45.153 49 44.761 48.84 44.433 48.52C44.113 48.192 43.953 47.8 43.953 47.344V47.08H45.525V47.152C45.525 47.28 45.537 47.36 45.561 47.392C45.593 47.416 45.673 47.428 45.801 47.428H49.173C49.293 47.428 49.369 47.416 49.401 47.392C49.433 47.36 49.449 47.28 49.449 47.152V46.588C49.449 46.46 49.433 46.384 49.401 46.36C49.369 46.328 49.293 46.312 49.173 46.312H45.609C45.153 46.312 44.761 46.148 44.433 45.82C44.113 45.492 43.953 45.104 43.953 44.656V43.696C43.953 43.24 44.113 42.852 44.433 42.532C44.761 42.204 45.153 42.04 45.609 42.04H49.365C49.821 42.04 50.213 42.204 50.541 42.532C50.869 42.852 51.033 43.24 51.033 43.696V43.96H49.449V43.888C49.449 43.76 49.433 43.684 49.401 43.66C49.369 43.628 49.293 43.612 49.173 43.612H45.801C45.673 43.612 45.593 43.628 45.561 43.66C45.537 43.684 45.525 43.76 45.525 43.888V44.452C45.525 44.58 45.537 44.66 45.561 44.692C45.593 44.716 45.673 44.728 45.801 44.728H49.365C49.821 44.728 50.213 44.892 50.541 45.22C50.869 45.548 51.033 45.936 51.033 46.384V47.344C51.033 47.8 50.869 48.192 50.541 48.52C50.213 48.84 49.821 49 49.365 49H45.609ZM53.6489 49C53.1929 49 52.8009 48.84 52.4729 48.52C52.1529 48.192 51.9929 47.8 51.9929 47.344V43.696C51.9929 43.24 52.1529 42.852 52.4729 42.532C52.8009 42.204 53.1929 42.04 53.6489 42.04H57.4049C57.8609 42.04 58.2489 42.204 58.5689 42.532C58.8969 42.852 59.0609 43.24 59.0609 43.696V46.312H53.5649V47.008C53.5649 47.232 53.5769 47.36 53.6009 47.392C53.6329 47.416 53.7609 47.428 53.9849 47.428H59.0609V49H53.6489ZM53.5649 44.896H57.4889V44.032C57.4889 43.808 57.4729 43.684 57.4409 43.66C57.4169 43.628 57.2929 43.612 57.0689 43.612H53.9849C53.7609 43.612 53.6329 43.628 53.6009 43.66C53.5769 43.684 53.5649 43.808 53.5649 44.032V44.896ZM61.8394 49C61.3834 49 60.9914 48.84 60.6634 48.52C60.3434 48.192 60.1834 47.8 60.1834 47.344V47.08H61.7554V47.152C61.7554 47.28 61.7674 47.36 61.7914 47.392C61.8234 47.416 61.9034 47.428 62.0314 47.428H65.4034C65.5234 47.428 65.5994 47.416 65.6314 47.392C65.6634 47.36 65.6794 47.28 65.6794 47.152V46.588C65.6794 46.46 65.6634 46.384 65.6314 46.36C65.5994 46.328 65.5234 46.312 65.4034 46.312H61.8394C61.3834 46.312 60.9914 46.148 60.6634 45.82C60.3434 45.492 60.1834 45.104 60.1834 44.656V43.696C60.1834 43.24 60.3434 42.852 60.6634 42.532C60.9914 42.204 61.3834 42.04 61.8394 42.04H65.5954C66.0514 42.04 66.4434 42.204 66.7714 42.532C67.0994 42.852 67.2634 43.24 67.2634 43.696V43.96H65.6794V43.888C65.6794 43.76 65.6634 43.684 65.6314 43.66C65.5994 43.628 65.5234 43.612 65.4034 43.612H62.0314C61.9034 43.612 61.8234 43.628 61.7914 43.66C61.7674 43.684 61.7554 43.76 61.7554 43.888V44.452C61.7554 44.58 61.7674 44.66 61.7914 44.692C61.8234 44.716 61.9034 44.728 62.0314 44.728H65.5954C66.0514 44.728 66.4434 44.892 66.7714 45.22C67.0994 45.548 67.2634 45.936 67.2634 46.384V47.344C67.2634 47.8 67.0994 48.192 66.7714 48.52C66.4434 48.84 66.0514 49 65.5954 49H61.8394Z" fill="#FF6D00"/>
</g>
<defs>
<filter id="filter0_d" x="11.8379" y="0" width="60.4254" height="56.0004" filterUnits="userSpaceOnUse" color-interpolation-filters="sRGB">
<feFlood flood-opacity="0" result="BackgroundImageFix"/>
<feColorMatrix in="SourceAlpha" type="matrix" values="0 0 0 0 0 0 0 0 0 0 0 0 0 0 0 0 0 0 127 0"/>
<feOffset dy="2"/>
<feGaussianBlur stdDeviation="2.5"/>
<feColorMatrix type="matrix" values="0 0 0 0 0.356863 0 0 0 0 0 0 0 0 0 0.705882 0 0 0 1 0"/>
<feBlend mode="normal" in2="BackgroundImageFix" result="effect1_dropShadow"/>
<feBlend mode="normal" in="SourceGraphic" in2="effect1_dropShadow" result="shape"/>
</filter>
<filter id="filter1_d" x="20" y="3" width="44" height="44" filterUnits="userSpaceOnUse" color-interpolation-filters="sRGB">
<feFlood flood-opacity="0" result="BackgroundImageFix"/>
<feColorMatrix in="SourceAlpha" type="matrix" values="0 0 0 0 0 0 0 0 0 0 0 0 0 0 0 0 0 0 127 0"/>
<feOffset dy="4"/>
<feGaussianBlur stdDeviation="2"/>
<feColorMatrix type="matrix" values="0 0 0 0 0 0 0 0 0 0 0 0 0 0 0 0 0 0 0.25 0"/>
<feBlend mode="normal" in2="BackgroundImageFix" result="effect1_dropShadow"/>
<feBlend mode="normal" in="SourceGraphic" in2="effect1_dropShadow" result="shape"/>
</filter>
</defs>
</svg>
