<svg width="84" height="56" viewBox="0 0 84 56" fill="none" xmlns="http://www.w3.org/2000/svg">
<g filter="url(#filter0_d)">
<g filter="url(#filter1_d)">
<path d="M56.3698 9.39844H26.9427C25.3175 9.39844 24 10.8032 24 12.5361V31.3623C24 33.0952 25.3175 34.5 26.9427 34.5H56.3698C57.995 34.5 59.3125 33.0952 59.3125 31.3623V12.5361C59.3125 10.8032 57.995 9.39844 56.3698 9.39844ZM56.8602 31.3623C56.8602 31.6506 56.6402 31.8853 56.3698 31.8853H26.9427C26.6723 31.8853 26.4523 31.6506 26.4523 31.3623V12.5361C26.4523 12.2478 26.6723 12.0132 26.9427 12.0132H56.3698C56.6402 12.0132 56.8602 12.2478 56.8602 12.5361V31.3623ZM34.4221 22.8644V21.0341C34.4221 20.6009 34.0927 20.2496 33.6864 20.2496H31.9698C31.5636 20.2496 31.2342 20.6009 31.2342 21.0341V22.8644C31.2342 23.2976 31.5636 23.6488 31.9698 23.6488H33.6864C34.0927 23.6488 34.4221 23.2976 34.4221 22.8644ZM40.3075 22.8644V21.0341C40.3075 20.6009 39.9781 20.2496 39.5718 20.2496H37.8553C37.449 20.2496 37.1196 20.6009 37.1196 21.0341V22.8644C37.1196 23.2976 37.449 23.6488 37.8553 23.6488H39.5718C39.9781 23.6488 40.3075 23.2976 40.3075 22.8644ZM46.1929 22.8644V21.0341C46.1929 20.6009 45.8635 20.2496 45.4573 20.2496H43.7407C43.3344 20.2496 43.005 20.6009 43.005 21.0341V22.8644C43.005 23.2976 43.3344 23.6488 43.7407 23.6488H45.4573C45.8635 23.6488 46.1929 23.2976 46.1929 22.8644ZM52.0783 22.8644V21.0341C52.0783 20.6009 51.7489 20.2496 51.3427 20.2496H49.6261C49.2198 20.2496 48.8904 20.6009 48.8904 21.0341V22.8644C48.8904 23.2976 49.2198 23.6488 49.6261 23.6488H51.3427C51.7489 23.6488 52.0783 23.2976 52.0783 22.8644ZM31.4794 28.2246V26.3943C31.4794 25.9611 31.15 25.6099 30.7437 25.6099H29.0271C28.6208 25.6099 28.2915 25.9611 28.2915 26.3943V28.2246C28.2915 28.6578 28.6208 29.009 29.0271 29.009H30.7437C31.15 29.009 31.4794 28.6578 31.4794 28.2246ZM55.0211 28.2246V26.3943C55.0211 25.9611 54.6917 25.6099 54.2854 25.6099H52.5688C52.1625 25.6099 51.8331 25.9611 51.8331 26.3943V28.2246C51.8331 28.6578 52.1625 29.009 52.5688 29.009H54.2854C54.6917 29.009 55.0211 28.6578 55.0211 28.2246ZM31.4794 17.5041V15.6738C31.4794 15.2406 31.15 14.8894 30.7437 14.8894H29.0271C28.6208 14.8894 28.2915 15.2406 28.2915 15.6738V17.5041C28.2915 17.9373 28.6208 18.2886 29.0271 18.2886H30.7437C31.15 18.2886 31.4794 17.9373 31.4794 17.5041ZM37.3648 17.5041V15.6738C37.3648 15.2406 37.0354 14.8894 36.6291 14.8894H34.9125C34.5063 14.8894 34.1769 15.2406 34.1769 15.6738V17.5041C34.1769 17.9373 34.5063 18.2886 34.9125 18.2886H36.6291C37.0354 18.2886 37.3648 17.9373 37.3648 17.5041ZM43.2502 17.5041V15.6738C43.2502 15.2406 42.9208 14.8894 42.5145 14.8894H40.798C40.3917 14.8894 40.0623 15.2406 40.0623 15.6738V17.5041C40.0623 17.9373 40.3917 18.2886 40.798 18.2886H42.5145C42.9208 18.2886 43.2502 17.9373 43.2502 17.5041ZM49.1356 17.5041V15.6738C49.1356 15.2406 48.8062 14.8894 48.4 14.8894H46.6834C46.2771 14.8894 45.9477 15.2406 45.9477 15.6738V17.5041C45.9477 17.9373 46.2771 18.2886 46.6834 18.2886H48.4C48.8062 18.2886 49.1356 17.9373 49.1356 17.5041ZM55.0211 17.5041V15.6738C55.0211 15.2406 54.6917 14.8894 54.2854 14.8894H52.5688C52.1625 14.8894 51.8331 15.2406 51.8331 15.6738V17.5041C51.8331 17.9373 52.1625 18.2886 52.5688 18.2886H54.2854C54.6917 18.2886 55.0211 17.9373 55.0211 17.5041ZM49.013 27.8324V26.7865C49.013 26.3533 48.6836 26.0021 48.2773 26.0021H35.0352C34.6289 26.0021 34.2995 26.3533 34.2995 26.7865V27.8324C34.2995 28.2656 34.6289 28.6168 35.0352 28.6168H48.2773C48.6836 28.6168 49.013 28.2656 49.013 27.8324Z" fill="#FF6D00"/>
</g>
<path d="M14.8891 49V41.956H11.3611V40.36H20.0011V41.956H16.4851V49H14.8891ZM22.4946 49C22.0386 49 21.6466 48.84 21.3186 48.52C20.9986 48.192 20.8386 47.8 20.8386 47.344V43.696C20.8386 43.24 20.9986 42.852 21.3186 42.532C21.6466 42.204 22.0386 42.04 22.4946 42.04H26.2506C26.7066 42.04 27.0946 42.204 27.4146 42.532C27.7426 42.852 27.9066 43.24 27.9066 43.696V46.312H22.4106V47.008C22.4106 47.232 22.4226 47.36 22.4466 47.392C22.4786 47.416 22.6066 47.428 22.8306 47.428H27.9066V49H22.4946ZM22.4106 44.896H26.3346V44.032C26.3346 43.808 26.3186 43.684 26.2866 43.66C26.2626 43.628 26.1386 43.612 25.9146 43.612H22.8306C22.6066 43.612 22.4786 43.628 22.4466 43.66C22.4226 43.684 22.4106 43.808 22.4106 44.032V44.896ZM30.5219 49C30.0659 49 29.6739 48.84 29.3459 48.52C29.0259 48.192 28.8659 47.8 28.8659 47.344V43.696C28.8659 43.24 29.0259 42.852 29.3459 42.532C29.6739 42.204 30.0659 42.04 30.5219 42.04H35.9219V43.612H30.8579C30.6339 43.612 30.5059 43.628 30.4739 43.66C30.4499 43.684 30.4379 43.808 30.4379 44.032V47.008C30.4379 47.232 30.4499 47.36 30.4739 47.392C30.5059 47.416 30.6339 47.428 30.8579 47.428H35.9339V49H30.5219ZM38.8777 49C38.4217 49 38.0297 48.84 37.7017 48.52C37.3817 48.192 37.2217 47.8 37.2217 47.344V39.748H38.8057V47.008C38.8057 47.232 38.8177 47.36 38.8417 47.392C38.8737 47.416 38.9977 47.428 39.2137 47.428H40.2817V49H38.8777ZM42.8386 49C42.3826 49 41.9906 48.84 41.6626 48.52C41.3426 48.192 41.1826 47.8 41.1826 47.344V44.728H46.6786V44.032C46.6786 43.808 46.6626 43.684 46.6306 43.66C46.6066 43.628 46.4826 43.612 46.2586 43.612H41.1826V42.04H46.5946C47.0506 42.04 47.4386 42.204 47.7586 42.532C48.0866 42.852 48.2506 43.24 48.2506 43.696V49H42.8386ZM43.1746 47.428H46.6786V46.144H42.7546V47.008C42.7546 47.232 42.7666 47.36 42.7906 47.392C42.8226 47.416 42.9506 47.428 43.1746 47.428ZM50.8226 49C50.3666 49 49.9746 48.84 49.6466 48.52C49.3266 48.192 49.1666 47.8 49.1666 47.344V43.696C49.1666 43.24 49.3266 42.852 49.6466 42.532C49.9746 42.204 50.3666 42.04 50.8226 42.04H54.6746V39.76H56.2466V49H50.8226ZM51.1706 47.428H54.2546C54.4706 47.428 54.5946 47.416 54.6266 47.392C54.6586 47.36 54.6746 47.232 54.6746 47.008V44.032C54.6746 43.808 54.6586 43.684 54.6266 43.66C54.5946 43.628 54.4706 43.612 54.2546 43.612H51.1706C50.9466 43.612 50.8186 43.628 50.7866 43.66C50.7626 43.684 50.7506 43.808 50.7506 44.032V47.008C50.7506 47.232 50.7626 47.36 50.7866 47.392C50.8186 47.416 50.9466 47.428 51.1706 47.428ZM58.8813 49C58.4253 49 58.0333 48.84 57.7053 48.52C57.3853 48.192 57.2253 47.8 57.2253 47.344V43.696C57.2253 43.24 57.3853 42.852 57.7053 42.532C58.0333 42.204 58.4253 42.04 58.8813 42.04H62.6373C63.0933 42.04 63.4813 42.204 63.8013 42.532C64.1293 42.852 64.2933 43.24 64.2933 43.696V47.344C64.2933 47.8 64.1293 48.192 63.8013 48.52C63.4813 48.84 63.0933 49 62.6373 49H58.8813ZM59.2173 47.428H62.3013C62.5253 47.428 62.6493 47.416 62.6733 47.392C62.7053 47.36 62.7213 47.232 62.7213 47.008V44.032C62.7213 43.808 62.7053 43.684 62.6733 43.66C62.6493 43.628 62.5253 43.612 62.3013 43.612H59.2173C58.9933 43.612 58.8653 43.628 58.8333 43.66C58.8093 43.684 58.7973 43.808 58.7973 44.032V47.008C58.7973 47.232 58.8093 47.36 58.8333 47.392C58.8653 47.416 58.9933 47.428 59.2173 47.428ZM66.8843 49C66.4283 49 66.0363 48.84 65.7083 48.52C65.3883 48.192 65.2283 47.8 65.2283 47.344V47.08H66.8003V47.152C66.8003 47.28 66.8123 47.36 66.8363 47.392C66.8683 47.416 66.9483 47.428 67.0763 47.428H70.4483C70.5683 47.428 70.6443 47.416 70.6763 47.392C70.7083 47.36 70.7243 47.28 70.7243 47.152V46.588C70.7243 46.46 70.7083 46.384 70.6763 46.36C70.6443 46.328 70.5683 46.312 70.4483 46.312H66.8843C66.4283 46.312 66.0363 46.148 65.7083 45.82C65.3883 45.492 65.2283 45.104 65.2283 44.656V43.696C65.2283 43.24 65.3883 42.852 65.7083 42.532C66.0363 42.204 66.4283 42.04 66.8843 42.04H70.6403C71.0963 42.04 71.4883 42.204 71.8163 42.532C72.1443 42.852 72.3083 43.24 72.3083 43.696V43.96H70.7243V43.888C70.7243 43.76 70.7083 43.684 70.6763 43.66C70.6443 43.628 70.5683 43.612 70.4483 43.612H67.0763C66.9483 43.612 66.8683 43.628 66.8363 43.66C66.8123 43.684 66.8003 43.76 66.8003 43.888V44.452C66.8003 44.58 66.8123 44.66 66.8363 44.692C66.8683 44.716 66.9483 44.728 67.0763 44.728H70.6403C71.0963 44.728 71.4883 44.892 71.8163 45.22C72.1443 45.548 72.3083 45.936 72.3083 46.384V47.344C72.3083 47.8 72.1443 48.192 71.8163 48.52C71.4883 48.84 71.0963 49 70.6403 49H66.8843Z" fill="#FF6D00"/>
</g>
<defs>
<filter id="filter0_d" x="6.36133" y="0" width="70.9473" height="56" filterUnits="userSpaceOnUse" color-interpolation-filters="sRGB">
<feFlood flood-opacity="0" result="BackgroundImageFix"/>
<feColorMatrix in="SourceAlpha" type="matrix" values="0 0 0 0 0 0 0 0 0 0 0 0 0 0 0 0 0 0 127 0"/>
<feOffset dy="2"/>
<feGaussianBlur stdDeviation="2.5"/>
<feColorMatrix type="matrix" values="0 0 0 0 0.3575 0 0 0 0 0 0 0 0 0 0.704167 0 0 0 1 0"/>
<feBlend mode="normal" in2="BackgroundImageFix" result="effect1_dropShadow"/>
<feBlend mode="normal" in="SourceGraphic" in2="effect1_dropShadow" result="shape"/>
</filter>
<filter id="filter1_d" x="20" y="3" width="44" height="44" filterUnits="userSpaceOnUse" color-interpolation-filters="sRGB">
<feFlood flood-opacity="0" result="BackgroundImageFix"/>
<feColorMatrix in="SourceAlpha" type="matrix" values="0 0 0 0 0 0 0 0 0 0 0 0 0 0 0 0 0 0 127 0"/>
<feOffset dy="4"/>
<feGaussianBlur stdDeviation="2"/>
<feColorMatrix type="matrix" values="0 0 0 0 0 0 0 0 0 0 0 0 0 0 0 0 0 0 0.25 0"/>
<feBlend mode="normal" in2="BackgroundImageFix" result="effect1_dropShadow"/>
<feBlend mode="normal" in="SourceGraphic" in2="effect1_dropShadow" result="shape"/>
</filter>
</defs>
</svg>
